<svg width="34" height="34" viewBox="0 0 34 34" fill="none" xmlns="http://www.w3.org/2000/svg">
<path d="M2.375 4V30C2.375 31.5324 2.375 32.2978 2.85112 32.7739C3.32725 33.25 4.09262 33.25 5.625 33.25H28.375C29.9074 33.25 30.6728 33.25 31.1489 32.7739C31.625 32.2978 31.625 31.5324 31.625 30V4M14.5625 10.5V12.9375M14.5625 12.9375V15.375M14.5625 12.9375H19.4375M19.4375 10.5V12.9375M19.4375 12.9375V15.375" stroke="#DB3A06" stroke-width="1.5" stroke-linecap="round" stroke-linejoin="round"/>
<path d="M20.25 33.25V26.75C20.25 25.888 19.9076 25.0614 19.2981 24.4519C18.6886 23.8424 17.862 23.5 17 23.5C16.138 23.5 15.3114 23.8424 14.7019 24.4519C14.0924 25.0614 13.75 25.888 13.75 26.75V33.25M0.75 4H10.5C11.54 2.09388 14.0588 0.75 17 0.75C19.9412 0.75 22.46 2.09388 23.5 4H33.25M7.25 10.5H8.875M7.25 17H8.875M7.25 23.5H8.875M25.125 10.5H26.75M25.125 17H26.75M25.125 23.5H26.75" stroke="#DB3A06" stroke-width="1.5" stroke-linecap="round" stroke-linejoin="round"/>
</svg>
