<svg width="103" height="30" viewBox="0 0 103 30" fill="none" xmlns="http://www.w3.org/2000/svg">
<g clip-path="url(#clip0_166_1062)">
<path d="M20.1601 0.373945C20.0347 0.1569 19.7637 -0.00416374 19.4999 0.00030899H15.8507C15.8507 0.00030899 15.8505 11.6915 15.8507 14.7058C15.8507 15.3413 16.4944 15.3413 16.5282 15.3413C16.799 15.3413 16.9119 15.2277 17.0248 15.1142L19.9466 12.1754C20.1562 11.9646 20.2717 11.679 20.2717 11.3811V0.724236C20.2717 0.604851 20.2272 0.485466 20.1601 0.373945Z" fill="#999999"/>
<path d="M59.7322 30H62.862V10.4429C62.8723 10.2708 62.862 10.0973 62.862 9.92249C62.862 5.14209 59.0197 1.26684 54.2666 1.26684C49.514 1.26684 45.6611 5.14209 45.6611 9.92249C45.6611 14.7029 49.514 18.5782 54.2666 18.5782H54.702L57.8675 15.408H54.506H54.2666C51.2545 15.408 48.8129 12.9521 48.8129 9.92249C48.8129 6.8929 51.2545 4.4369 54.2666 4.4369C57.2787 4.4369 59.7322 6.8929 59.7322 9.92249V30Z" fill="#999999"/>
<path d="M79.5253 1.26693V10.03C79.5253 13.0896 77.0593 15.5825 74.0178 15.5825C70.9762 15.5825 68.5072 13.0896 68.5072 10.03V1.26693H65.457V10.03C65.457 10.03 65.457 10.0303 65.457 10.0367C65.457 14.7949 69.2872 18.6582 74.0178 18.6582C78.7483 18.6582 82.582 14.8069 82.582 10.0487C82.582 10.0423 82.582 10.03 82.582 10.03V1.26693H79.5253Z" fill="#999999"/>
<path d="M39.8619 15.4786C39.8619 15.4786 35.9227 15.4786 34.4042 15.4786C31.3752 15.4786 28.9197 12.9953 28.9197 9.94858C28.9197 8.42174 29.5365 7.05332 30.533 6.0545L30.534 6.05548C33.9215 2.6034 39.8832 5.02545 39.8619 9.94858C39.862 11.4754 39.8619 15.4786 39.8619 15.4786ZM42.5529 6.99134C39.146 -2.05855 25.9437 0.139034 25.7441 9.94858C25.7497 12.0561 26.4687 13.9457 27.7235 15.4848C29.1959 17.2826 31.3714 18.4762 33.8271 18.6389C34.0158 18.6513 34.2061 18.6581 34.3971 18.6582H43.0656C43.0656 18.6582 43.0656 9.94784 43.0656 9.94858C43.0655 8.94391 42.8925 7.93585 42.5529 6.99134Z" fill="#999999"/>
<path d="M99.2961 15.4786C99.2961 15.4786 95.3575 15.4786 93.8387 15.4786C90.8094 15.4786 88.3539 12.9953 88.3539 9.9486C88.3539 8.42177 88.9709 7.05331 89.9677 6.0545L89.9684 6.05544C93.3556 2.60337 99.3173 5.02541 99.2961 9.9486C99.2961 11.4754 99.2961 15.4786 99.2961 15.4786ZM101.987 6.99131C98.5802 -2.05855 85.3777 0.139038 85.1787 9.9486C85.1837 12.0561 85.9027 13.9457 87.1574 15.4848C88.6305 17.2826 90.8056 18.4762 93.2618 18.6389C93.4501 18.6513 93.6404 18.6581 93.8312 18.6582H102.5C102.5 18.6582 102.5 9.94784 102.5 9.9486C102.5 8.94393 102.327 7.93581 101.987 6.99131Z" fill="#999999"/>
<path d="M0.87491 19.7536C0.658451 19.6274 0.495917 19.3543 0.500078 19.0883V15.4548C0.500078 15.4548 12.1736 15.4548 15.154 15.4548C15.7873 15.4548 15.7879 16.0425 15.788 16.0766C15.7882 16.3497 15.6752 16.4636 15.5621 16.5775L12.6331 19.5233C12.4232 19.7348 12.1419 19.8547 11.8449 19.855H1.22412C1.10511 19.8551 0.986097 19.8211 0.87491 19.7536Z" fill="#999999"/>
<path d="M15.5751 0.000436783H8.9587C8.66253 0.000436783 8.37842 0.11879 8.16904 0.329397L5.24711 3.26835C5.13429 3.38184 5.02148 3.49528 5.02148 3.76762C5.02148 3.76762 5.02148 4.44873 5.65325 4.44873H15.5751V0.000436783Z" fill="#999999"/>
<path d="M4.93048 15.1768V5.17214C4.93048 4.53521 4.25162 4.53521 4.25162 4.53521C3.98016 4.53521 3.86709 4.64894 3.75403 4.76272L0.825031 7.70871C0.615063 7.9199 0.5 8.2063 0.5 8.50493V15.1768H4.93048Z" fill="#999999"/>
</g>
<defs>
<clipPath id="clip0_166_1062">
<rect width="102" height="30" fill="white" transform="translate(0.5)"/>
</clipPath>
</defs>
</svg>
