<svg width="97" height="30" viewBox="0 0 97 30" fill="none" xmlns="http://www.w3.org/2000/svg">
<g clip-path="url(#clip0_166_1020)">
<path d="M51.0938 7.53754C51.0938 8.61862 50.224 9.48949 49.1444 9.48949C48.0647 9.48949 47.195 8.61862 47.195 7.53754C47.195 6.45646 48.0347 5.58559 49.1444 5.58559C50.254 5.61562 51.0938 6.48649 51.0938 7.53754ZM43.0563 11.4715C43.0563 11.6517 43.0563 11.952 43.0563 11.952C43.0563 11.952 42.1266 10.7508 40.1472 10.7508C36.8782 10.7508 34.329 13.2432 34.329 16.6967C34.329 20.1201 36.8482 22.6426 40.1472 22.6426C42.1566 22.6426 43.0563 21.4114 43.0563 21.4114V21.9219C43.0563 22.1622 43.2362 22.3423 43.4761 22.3423H45.9054V11.0511C45.9054 11.0511 43.6861 11.0511 43.4761 11.0511C43.2362 11.0511 43.0563 11.2613 43.0563 11.4715ZM43.0563 18.7087C42.6064 19.3694 41.7067 19.9399 40.627 19.9399C38.7076 19.9399 37.2381 18.7387 37.2381 16.6967C37.2381 14.6547 38.7076 13.4535 40.627 13.4535C41.6767 13.4535 42.6364 14.0541 43.0563 14.6847V18.7087ZM47.7048 11.0511H50.5839V22.3423H47.7048V11.0511ZM90.7114 10.7508C88.732 10.7508 87.8023 11.952 87.8023 11.952V5.61562H84.9232V22.3423C84.9232 22.3423 87.1425 22.3423 87.3524 22.3423C87.5924 22.3423 87.7723 22.1321 87.7723 21.9219V21.4114C87.7723 21.4114 88.702 22.6426 90.6814 22.6426C93.9504 22.6426 96.4996 20.1201 96.4996 16.6967C96.4996 13.2733 93.9504 10.7508 90.7114 10.7508ZM90.2315 19.9099C89.1219 19.9099 88.2522 19.3393 87.8023 18.6787V14.6547C88.2522 14.0541 89.2119 13.4234 90.2315 13.4234C92.1509 13.4234 93.6205 14.6246 93.6205 16.6667C93.6205 18.7087 92.1509 19.9099 90.2315 19.9099ZM83.4237 15.6456V22.3724H80.5446V15.976C80.5446 14.1141 79.9447 13.3634 78.3252 13.3634C77.4555 13.3634 76.5558 13.8138 75.986 14.4745V22.3423H73.1069V11.0511H75.3862C75.6261 11.0511 75.806 11.2613 75.806 11.4715V11.952C76.6458 11.0811 77.7554 10.7508 78.8651 10.7508C80.1247 10.7508 81.1744 11.1111 82.0141 11.8318C83.0338 12.6727 83.4237 13.7538 83.4237 15.6456ZM66.1191 10.7508C64.1397 10.7508 63.21 11.952 63.21 11.952V5.61562H60.3309V22.3423C60.3309 22.3423 62.5502 22.3423 62.7601 22.3423C63 22.3423 63.18 22.1321 63.18 21.9219V21.4114C63.18 21.4114 64.1097 22.6426 66.0891 22.6426C69.358 22.6426 71.9073 20.1201 71.9073 16.6967C71.9372 13.2733 69.388 10.7508 66.1191 10.7508ZM65.6392 19.9099C64.5296 19.9099 63.6598 19.3393 63.21 18.6787V14.6547C63.6598 14.0541 64.6195 13.4234 65.6392 13.4234C67.5586 13.4234 69.0282 14.6246 69.0282 16.6667C69.0282 18.7087 67.5586 19.9099 65.6392 19.9099ZM57.8416 10.7508C58.7114 10.7508 59.1612 10.9009 59.1612 10.9009V13.5736C59.1612 13.5736 56.762 12.7628 55.2625 14.4745V22.3724H52.3834V11.0511C52.3834 11.0511 54.6027 11.0511 54.8126 11.0511C55.0525 11.0511 55.2325 11.2613 55.2325 11.4715V11.952C55.7723 11.3213 56.9419 10.7508 57.8416 10.7508ZM27.941 21.3213C27.791 20.961 27.6411 20.5706 27.4911 20.2402C27.2512 19.6997 27.0113 19.1892 26.8013 18.7087L26.7714 18.6787C24.702 14.1742 22.4827 9.60961 20.1434 5.1051L20.0535 4.92492C19.8135 4.47447 19.5736 3.99399 19.3337 3.51351C19.0338 2.97297 18.7339 2.4024 18.254 1.86186C17.2943 0.660661 15.9148 0 14.4452 0C12.9457 0 11.5961 0.660661 10.6064 1.8018C10.1566 2.34234 9.82666 2.91291 9.52675 3.45345C9.28682 3.93393 9.0469 4.41441 8.80697 4.86487L8.717 5.04504C6.40772 9.54955 4.15843 14.1141 2.08907 18.6186L2.05908 18.6787C1.84915 19.1592 1.60922 19.6697 1.3693 20.2102C1.21934 20.5405 1.06939 20.9009 0.919438 21.2913C0.52956 22.4024 0.409598 23.4535 0.559551 24.5345C0.889448 26.7868 2.38898 28.6787 4.45833 29.5195C5.23809 29.8499 6.04784 30 6.88757 30C7.1275 30 7.4274 29.97 7.66733 29.9399C8.65702 29.8198 9.6767 29.4895 10.6664 28.9189C11.896 28.2282 13.0656 27.2372 14.3852 25.7958C15.7048 27.2372 16.9044 28.2282 18.1041 28.9189C19.0938 29.4895 20.1134 29.8198 21.1031 29.9399C21.3431 29.97 21.643 30 21.8829 30C22.7226 30 23.5624 29.8499 24.3121 29.5195C26.4115 28.6787 27.881 26.7568 28.2109 24.5345C28.4508 23.4835 28.3309 22.4324 27.941 21.3213ZM14.4152 22.8829C12.7957 20.8408 11.7461 18.9189 11.3862 17.2973C11.2362 16.6066 11.2062 16.006 11.2962 15.4655C11.3562 14.985 11.5361 14.5646 11.776 14.2042C12.3459 13.3934 13.3056 12.8829 14.4152 12.8829C15.5249 12.8829 16.5146 13.3634 17.0544 14.2042C17.2943 14.5646 17.4743 14.985 17.5342 15.4655C17.6242 16.006 17.5942 16.6366 17.4443 17.2973C17.0844 18.8889 16.0347 20.8108 14.4152 22.8829ZM26.3815 24.2943C26.1715 25.8559 25.1219 27.2072 23.6523 27.8078C22.9326 28.1081 22.1528 28.1982 21.373 28.1081C20.6233 28.018 19.8735 27.7778 19.0938 27.3273C18.0141 26.7267 16.9344 25.7958 15.6748 24.4144C17.6542 21.982 18.8538 19.7598 19.3037 17.7778C19.5136 16.8468 19.5436 16.006 19.4536 15.2252C19.3337 14.4745 19.0638 13.7838 18.6439 13.1832C17.7142 11.8318 16.1547 11.0511 14.4152 11.0511C12.6758 11.0511 11.1163 11.8619 10.1865 13.1832C9.76667 13.7838 9.49676 14.4745 9.3768 15.2252C9.25683 16.006 9.28682 16.8769 9.52675 17.7778C9.97661 19.7598 11.2062 22.012 13.1556 24.4444C11.926 25.8258 10.8163 26.7568 9.73668 27.3574C8.95693 27.8078 8.20716 28.048 7.4574 28.1381C6.64765 28.2282 5.86789 28.1081 5.17811 27.8378C3.70857 27.2372 2.65889 25.8859 2.44896 24.3243C2.35899 23.5736 2.41897 22.8228 2.71888 21.982C2.80885 21.6817 2.9588 21.3814 3.10875 21.021C3.31869 20.5405 3.55861 20.03 3.79854 19.5195L3.82853 19.4595C5.89788 14.985 8.11719 10.4204 10.4265 5.97598L10.5164 5.7958C10.7564 5.34535 10.9963 4.86486 11.2362 4.41441C11.4761 3.93393 11.7461 3.48348 12.076 3.09309C12.7058 2.37237 13.5455 1.98198 14.4752 1.98198C15.4049 1.98198 16.2446 2.37237 16.8745 3.09309C17.2043 3.48348 17.4743 3.93393 17.7142 4.41441C17.9541 4.86486 18.194 5.34535 18.434 5.7958L18.5239 5.97598C20.8032 10.4504 23.0225 15.015 25.0919 19.4895V19.5195C25.3318 20 25.5417 20.5405 25.7817 21.021C25.9316 21.3814 26.0816 21.6817 26.1715 21.982C26.4115 22.7628 26.5014 23.5135 26.3815 24.2943Z" fill="#999999"/>
</g>
<defs>
<clipPath id="clip0_166_1020">
<rect width="96" height="30" fill="white" transform="translate(0.5)"/>
</clipPath>
</defs>
</svg>
