<svg width="36" height="32" viewBox="0 0 36 32" fill="none" xmlns="http://www.w3.org/2000/svg">
<path d="M28.5625 11.125H25.3125M25.3125 11.125H22.0625M25.3125 11.125V7.875M25.3125 11.125V14.375" stroke="#DB3A06" stroke-width="1.5" stroke-linecap="round"/>
<path d="M18 5.55788L17.1095 6.38988C17.2235 6.5119 17.3614 6.60919 17.5146 6.67571C17.6678 6.74222 17.833 6.77655 18 6.77655C18.167 6.77655 18.3322 6.74222 18.4854 6.67571C18.6386 6.60919 18.7765 6.5119 18.8905 6.38988L18 5.55788ZM2.8095 18.7334C2.8899 18.8751 2.99789 18.9992 3.12708 19.0984C3.25627 19.1976 3.40404 19.2699 3.56165 19.3111C3.71927 19.3522 3.88353 19.3613 4.04474 19.3379C4.20594 19.3145 4.36081 19.259 4.5002 19.1747C4.63958 19.0904 4.76065 18.979 4.85625 18.8471C4.95185 18.7152 5.02004 18.5655 5.05679 18.4068C5.09353 18.2481 5.09809 18.0836 5.0702 17.9231C5.0423 17.7626 4.98252 17.6094 4.89437 17.4724L2.8095 18.7334ZM9.12263 22.778C9.01251 22.6573 8.87924 22.5599 8.73074 22.4917C8.58224 22.4236 8.42154 22.3859 8.25821 22.3811C8.09488 22.3763 7.93224 22.4043 7.77997 22.4636C7.6277 22.5229 7.48891 22.6122 7.37185 22.7262C7.25479 22.8402 7.16185 22.9766 7.09856 23.1273C7.03527 23.2779 7.00292 23.4398 7.00344 23.6032C7.00395 23.7666 7.03732 23.9282 7.10156 24.0784C7.1658 24.2287 7.2596 24.3645 7.37737 24.4778L9.12263 22.778ZM2.96875 11.6419C2.96875 6.92125 5.02925 4.00438 7.57725 3.005C10.1204 2.00888 13.6775 2.72063 17.1095 6.38988L18.8905 4.72588C15.01 0.57563 10.4421 -0.73412 6.68837 0.73488C2.9395 2.20388 0.53125 6.23713 0.53125 11.6419H2.96875ZM23.7038 28.9351C26.1299 26.9673 29.0354 24.3299 31.3461 21.3838C33.6325 18.4685 35.4688 15.0804 35.4688 11.6386H33.0312C33.0312 14.2581 31.6012 17.1051 29.427 19.879C27.2755 22.6236 24.526 25.131 22.1698 27.042L23.7038 28.9351ZM35.4688 11.6386C35.4688 6.23551 33.0605 2.20225 29.31 0.73488C25.5562 -0.735745 20.99 0.57238 17.1095 4.72425L18.8905 6.38988C22.3225 2.72063 25.8796 2.00725 28.4227 3.00338C30.9707 4.00113 33.0312 6.91963 33.0312 11.6386H35.4688ZM12.2962 28.9368C14.36 30.6138 15.7933 31.8439 18 31.8439V29.4064C16.8251 29.4064 16.0939 28.8799 13.8302 27.0436L12.2962 28.9368ZM22.1698 27.042C19.9061 28.8783 19.1749 29.4064 18 29.4064V31.8439C20.2068 31.8439 21.6416 30.6138 23.7054 28.9368L22.1698 27.042ZM4.896 17.4724C3.67888 15.4639 2.96875 13.4895 2.96875 11.6419H0.53125C0.53125 14.0989 1.46725 16.5169 2.8095 18.7334L4.896 17.4724ZM13.8302 27.0436C12.1805 25.7132 10.6087 24.289 9.12263 22.778L7.37737 24.4778C8.92825 26.0585 10.5718 27.5474 12.2962 28.9368L13.8302 27.0436Z" fill="#DB3A06"/>
</svg>
