<svg width="165" height="30" viewBox="0 0 165 30" fill="none" xmlns="http://www.w3.org/2000/svg">
<g clip-path="url(#clip0_166_1076)">
<path d="M15.6713 0C7.27064 0 0.5 6.70807 0.5 14.9689C0.5 23.2298 7.27064 29.9379 15.6713 29.9379C24.0719 29.9379 30.8425 23.2298 30.8425 14.9689C30.8425 6.70807 24.0092 0 15.6713 0ZM8.83792 11.9255C9.40214 11.7391 9.96636 11.6149 10.5933 11.6149C13.5398 11.6149 15.922 13.913 15.922 16.8323C15.922 17.4534 15.7966 18.0745 15.5459 18.6957C15.3578 19.0683 14.9817 19.3168 14.5428 19.3168C14.2294 19.3168 13.9786 19.1925 13.7905 19.0062C13.6024 18.8199 13.4771 18.5093 13.4771 18.2609C13.4771 18.0745 13.4771 17.9503 13.5398 17.8261L13.6024 17.6398C13.6651 17.4534 13.6651 17.205 13.6651 16.9565C13.6651 15.2795 12.2859 13.913 10.5933 13.913C10.4052 13.913 10.1544 13.913 9.90367 13.9752L9.7156 14.0373C9.15138 14.2236 8.52446 13.9752 8.33639 13.4161C8.14832 12.795 8.33639 12.1739 8.83792 11.9255ZM8.83792 21.8634C8.71254 21.8634 8.58716 21.8634 8.46177 21.8012C6.58104 20.9317 5.38991 19.0683 5.38991 17.0807V8.32298C5.38991 7.70186 5.89144 7.20497 6.51835 7.20497C7.14526 7.20497 7.64679 7.70186 7.64679 8.32298V17.0186C7.64679 18.1366 8.2737 19.1304 9.21407 19.6894L9.33945 19.7516C9.77829 19.9379 10.0291 20.3106 10.0291 20.7453C9.96636 21.3665 9.46483 21.8634 8.83792 21.8634ZM21.8777 22.3602C20.3731 22.3602 19.0566 21.6149 18.1789 20.4348C17.3012 21.6149 15.922 22.3602 14.4801 22.3602C11.8471 22.3602 9.7156 20.0621 9.7156 17.1429V16.5217C9.7156 15.9006 10.2171 15.4658 10.7813 15.4658C11.3456 15.4658 11.8471 15.9627 11.8471 16.5217V17.1429C11.8471 18.8199 13.0382 20.1863 14.4174 20.1863C15.7966 20.1863 16.9878 18.8199 16.9878 17.1429V12.4845C16.9878 11.8634 17.4893 11.4286 18.0535 11.4286C18.6177 11.4286 19.1193 11.9255 19.1193 12.4845V17.1429C19.1193 18.8199 20.3104 20.1863 21.6896 20.1863C23.0688 20.1863 24.2599 18.8199 24.2599 17.1429V12.4845C24.2599 11.8634 24.7615 11.4286 25.3257 11.4286C25.9526 11.4286 26.3914 11.9255 26.3914 12.4845V17.1429C26.7049 20 24.5734 22.3602 21.8777 22.3602Z" fill="#999999"/>
<path d="M43.8196 6.77018C47.1422 6.64595 49.9006 9.25465 49.9633 12.5466C49.9633 12.6708 49.9633 12.795 49.9633 12.9814C50.026 16.3354 47.3303 19.1304 43.945 19.1925C41.8135 19.2547 39.8073 18.1987 38.6789 16.3975L38.4908 18.882H37.6132V2.73291H38.7416V9.37887C39.87 7.70185 41.8135 6.70807 43.8196 6.77018ZM48.8976 12.9192C49.0229 10.1863 46.8914 7.88819 44.133 7.82608C44.0077 7.82608 43.945 7.82608 43.8196 7.82608C40.9358 7.82608 38.6162 10.1242 38.6162 12.9814C38.6162 15.8385 40.9358 18.0745 43.8196 18.1366C46.578 18.1987 48.8349 16.0248 48.8976 13.2919C48.8976 13.1677 48.8976 13.0435 48.8976 12.9192ZM56.4832 19.1304C53.3486 19.1304 51.3425 17.0807 51.3425 13.8509V6.95651H52.4083V13.7267C52.4083 16.3975 53.9129 18.0745 56.4832 18.0745C58.9908 18.0745 60.5581 16.3975 60.5581 13.7267V6.95651H61.6239V13.8509C61.6239 17.0186 59.6177 19.0683 56.4832 19.1304ZM67.5795 19.1304C64.8211 19.1304 63.1284 17.764 62.9404 15.5279H64.0061C64.1942 17.205 65.5107 18.1366 67.6422 18.1366C69.711 18.1366 71.1529 17.205 71.1529 15.7143C71.1529 13.8509 69.3349 13.5404 67.5168 13.2298C65.448 12.8571 63.2538 12.4845 63.2538 10.0621C63.2538 8.13664 65.0092 6.83229 67.5795 6.83229C70.1499 6.83229 71.8425 8.13664 71.9679 10.2484H70.9021C70.7768 8.75775 69.5856 7.76397 67.5168 7.76397C65.5107 7.76397 64.2569 8.63353 64.2569 9.99999C64.2569 11.6149 65.8869 11.9255 67.7049 12.1739C69.8364 12.5466 72.156 12.9192 72.156 15.6522C72.2187 17.764 70.3379 19.1304 67.5795 19.1304ZM74.2248 6.95651H75.2905V18.8199H74.2248V6.95651ZM83.5031 6.77018C86.3869 6.77018 88.2049 8.81987 88.2049 11.8633V18.9441H87.1392V11.9876C87.1392 9.25465 85.6973 7.70185 83.315 7.70185C80.9327 7.76397 79.052 9.68943 79.052 12.0497V18.8199H77.9862V6.95651H78.7385L78.9266 9.37887C79.8043 7.70185 81.5596 6.70807 83.5031 6.77018ZM101.558 13.2919H90.7125C90.8379 16.0248 93.1575 18.1366 95.9159 18.0124C97.6713 17.9503 99.3012 16.9565 100.116 15.4037H101.245C100.367 17.6397 98.1101 19.1304 95.6651 19.1304C92.3425 19.1304 89.6468 16.5217 89.5841 13.2298C89.5841 13.1677 89.5841 13.0435 89.5841 12.9814C89.4587 9.68943 92.0918 6.8944 95.4144 6.83229C95.4771 6.83229 95.6025 6.83229 95.6651 6.83229C99.1759 6.83229 101.621 9.56521 101.621 12.9814C101.558 13.0435 101.558 13.1677 101.558 13.2919ZM90.7125 12.2981H100.492C100.367 9.75154 98.2355 7.70185 95.6025 7.70185C93.0321 7.70185 90.8379 9.75154 90.7125 12.2981ZM107.138 19.1304C104.379 19.1304 102.687 17.764 102.498 15.5279H103.564C103.752 17.205 105.069 18.1366 107.2 18.1366C109.269 18.1366 110.711 17.205 110.711 15.7143C110.711 13.8509 108.893 13.5404 107.075 13.2298C105.006 12.8571 102.812 12.4845 102.812 10.0621C102.812 8.13664 104.567 6.83229 107.138 6.83229C109.708 6.83229 111.401 8.13664 111.526 10.2484H110.46C110.335 8.75775 109.144 7.76397 107.075 7.76397C105.069 7.76397 103.815 8.63353 103.815 9.99999C103.815 11.6149 105.445 11.9255 107.263 12.1739C109.395 12.5466 111.714 12.9192 111.714 15.6522C111.777 17.764 109.896 19.1304 107.138 19.1304ZM117.294 19.1304C114.535 19.1304 112.843 17.764 112.654 15.5279H113.72C113.908 17.205 115.225 18.1366 117.356 18.1366C119.425 18.1366 120.867 17.205 120.867 15.7143C120.867 13.8509 119.049 13.5404 117.231 13.2298C115.162 12.8571 112.968 12.4845 112.968 10.0621C112.968 8.13664 114.723 6.83229 117.294 6.83229C119.864 6.83229 121.557 8.13664 121.682 10.2484H120.616C120.491 8.75775 119.3 7.76397 117.294 7.76397C115.287 7.76397 114.034 8.63353 114.034 9.99999C114.034 11.6149 115.664 11.9255 117.482 12.1739C119.55 12.5466 121.933 12.9192 121.933 15.6522C121.933 17.764 120.115 19.1304 117.294 19.1304ZM140.364 6.95651L136.352 18.8199H134.346L131.274 11.6149L128.202 18.8199H126.196L122.184 6.95651H124.754L127.45 14.9689L130.898 7.08074H131.65L135.161 15.031L137.919 6.95651H140.364ZM141.367 6.95651H143.812V18.8199H141.367V6.95651ZM152.589 6.95651V9.25465H151.272C149.203 9.25465 148.2 10.4348 148.2 12.5466V18.882H145.755V7.01862H147.448L147.887 8.63353C148.765 7.51552 150.144 6.83229 151.523 6.95651H152.589ZM164.5 12.9814C164.5 13.2298 164.5 13.5404 164.437 13.7888H154.72C154.908 15.6522 156.538 17.0186 158.356 16.9565C159.673 17.0186 160.927 16.3354 161.554 15.2174H164.124C163.058 18.3851 159.547 20.1242 156.287 19.0062C153.717 18.1366 152.024 15.6522 152.087 12.9814C151.962 9.62732 154.658 6.83229 157.98 6.77018C158.043 6.77018 158.168 6.77018 158.231 6.77018C161.992 6.77018 164.437 9.56521 164.5 12.9814ZM158.356 8.88198C156.601 8.81987 155.096 10.0621 154.72 11.7391H161.992C161.679 10.0621 160.112 8.88198 158.356 8.88198ZM39.3685 26.646H36.7982L36.2966 27.8882H35.7324L37.8012 22.9192H38.2401L40.3716 27.8882H39.8073L39.3685 26.646ZM37.0489 26.1491H39.1804L38.1147 23.6025L37.0489 26.1491ZM46.7661 26.5217C46.7661 27.3292 46.1391 27.8882 45.3242 27.8882H45.2615H43.3181V22.9192H45.2615C45.9511 22.8571 46.578 23.4161 46.6407 24.0994C46.6407 24.5963 46.4526 25.0932 45.9511 25.3416C46.4526 25.5279 46.7661 25.9627 46.7661 26.5217ZM43.7569 23.4161V25.0932H45.2615C45.7003 25.0932 46.1392 24.7205 46.1392 24.2236C46.1392 23.7267 45.763 23.354 45.2615 23.354L43.7569 23.4161ZM46.2645 26.4596C46.2645 25.9627 45.8257 25.5279 45.3242 25.5279H43.7569V27.3913H45.2615C45.763 27.3913 46.2018 27.0186 46.2645 26.4596ZM50.9037 27.3913V27.8882H48.0199V22.9192H50.841V23.354H48.5214V25.031H50.6529V25.4658H48.5214V27.3292H50.9037V27.3913ZM53.8502 25.8385H52.5963V27.8882H52.0948V22.9192H53.9755C54.8532 22.9192 55.5428 23.5404 55.6055 24.4099V24.472C55.6055 25.1553 55.104 25.7143 54.4144 25.9006L55.6682 27.9503H55.104L53.8502 25.8385ZM52.5963 25.4037H53.9755C54.5398 25.4658 55.0413 25.031 55.104 24.472C55.1667 23.913 54.7278 23.4161 54.1636 23.354C54.1009 23.354 54.0382 23.354 53.9755 23.354H52.5963V25.4037ZM58.0505 25.5279H57.2982V27.8882H56.7966V22.9192H57.2982V25.0932H58.0505L59.7431 22.9192H60.37L58.4266 25.2795L60.4954 27.8882H59.8685L58.0505 25.5279ZM60.9343 26.3975H61.4358C61.4358 27.0807 62 27.4534 62.7523 27.4534C63.5046 27.4534 64.0061 27.0807 64.0061 26.5217C64.0061 25.9627 63.3792 25.7764 62.6896 25.5901C62 25.4037 61.0596 25.2174 61.0596 24.2236C61.0596 23.354 61.6866 22.8571 62.7523 22.8571C63.5673 22.7329 64.2569 23.2919 64.3823 24.0994C64.3823 24.1615 64.3823 24.2236 64.3823 24.2857H63.8807C63.8807 23.6646 63.4419 23.2919 62.7523 23.2919C62.0627 23.2919 61.5612 23.6025 61.5612 24.1615C61.5612 24.7205 62.1881 24.9068 62.8777 25.0932C63.5673 25.2174 64.5703 25.4658 64.5703 26.5217C64.5703 27.5155 63.8181 28.0124 62.815 28.0124C61.9373 28.1366 61.1223 27.5155 60.9969 26.646C60.9969 26.5217 60.9343 26.4596 60.9343 26.3975ZM69.5229 22.9192V27.8882H69.0214V25.5901H66.263V27.8882H65.7615V22.9192H66.263V25.0932H69.0841V22.9192H69.5229ZM71.0902 22.9192H71.5918V27.8882H71.0902V22.9192ZM74.9144 25.8385H73.6606V27.8882H73.159V22.9192H75.0398C75.9174 22.9192 76.607 23.5404 76.6697 24.4099V24.472C76.6697 25.1553 76.1682 25.7764 75.4786 25.9006L76.7324 27.9503H76.1682L74.9144 25.8385ZM73.6606 25.4037H75.0398C75.604 25.4658 76.1055 25.031 76.1682 24.472C76.2309 23.913 75.7921 23.4161 75.2278 23.354C75.1651 23.354 75.1025 23.354 75.0398 23.354H73.6606V25.4037ZM80.7447 27.3913V27.8882H77.8609V22.9192H80.682V23.354H78.3624V25.031H80.4939V25.4658H78.3624V27.3292H80.7447V27.3913ZM87.8288 22.9192V27.8882H87.3272V25.5901H84.5061V27.8882H84.0046V22.9192H84.5061V25.0932H87.3272V22.9192H87.8288ZM92.4052 26.646H89.8349L89.2707 27.8882H88.7691L90.8379 22.9192H91.2768L93.4083 27.8882H92.844L92.4052 26.646ZM90.0856 26.1491H92.2171L91.1514 23.6025L90.0856 26.1491ZM97.107 23.354H95.6025V27.8882H95.1009V23.354H93.5963V22.9192H97.2324L97.107 23.354ZM101.872 22.9192V27.8882H101.37V25.5901H98.6116V27.8882H98.1101V22.9192H98.6116V25.0932H101.37V22.9192H101.872ZM106.448 26.646H103.94L103.439 27.8882H102.937L105.006 22.9192H105.445L107.576 27.8882H107.012L106.448 26.646ZM104.128 26.1491H106.26L105.194 23.6025L104.128 26.1491ZM114.723 22.9192L113.093 27.8882H112.654L111.213 24.0994L109.771 27.8882H109.332L107.702 22.9192H108.203L109.52 27.0807L111.024 23.0435H111.213L112.717 27.0807L114.034 22.9192H114.723ZM118.547 26.646H115.977L115.476 27.8882H114.911L116.98 22.9192H117.482L119.613 27.8882H118.986L118.547 26.646ZM116.165 26.1491H118.297L117.231 23.6025L116.165 26.1491ZM121.933 25.9006V27.8882H121.431V25.9006L119.55 22.9192H120.115L121.682 25.4658L123.249 22.9192H123.813L121.933 25.9006ZM126.384 25.4037C126.321 24.0373 127.387 22.8571 128.766 22.8571C128.829 22.8571 128.891 22.8571 128.954 22.8571C130.02 22.8571 131.023 23.5404 131.274 24.5342H130.772C130.521 23.7888 129.706 23.2919 128.891 23.2919C127.763 23.2919 126.76 24.2236 126.76 25.4037C126.76 26.5217 127.7 27.5155 128.891 27.5155C129.769 27.5155 130.521 27.0186 130.772 26.2112H131.274C131.023 27.2671 130.02 28.0124 128.891 28.0124C127.512 28.0745 126.321 27.0186 126.321 25.6522C126.384 25.5279 126.384 25.4658 126.384 25.4037ZM132.089 25.4037C132.089 23.9751 133.217 22.795 134.659 22.795C136.101 22.795 137.292 23.913 137.292 25.3416C137.292 26.7702 136.164 27.9503 134.722 27.9503C133.343 28.0124 132.151 26.8944 132.089 25.5279C132.089 25.4658 132.089 25.4658 132.089 25.4037ZM136.791 25.4037C136.791 24.2236 135.85 23.2919 134.659 23.2919C133.468 23.2919 132.528 24.2236 132.528 25.4037C132.528 26.5838 133.468 27.5155 134.659 27.5155C135.787 27.5155 136.728 26.646 136.791 25.5279C136.791 25.4658 136.791 25.4037 136.791 25.4037ZM143.812 27.8882L143.122 23.7888L141.304 27.764H141.179L139.361 23.7888L138.671 27.8882H138.17L139.047 22.9192H139.549L141.304 26.7702L143.06 22.9192H143.561L144.439 27.8882H143.812ZM148.89 24.472C148.89 25.3416 148.263 26.0248 147.385 26.0869C147.323 26.0869 147.26 26.0869 147.197 26.0869H145.943V27.9503H145.442V22.9814H147.197C148.075 22.9192 148.765 23.6025 148.827 24.4099C148.89 24.3478 148.89 24.4099 148.89 24.472ZM148.388 24.472C148.388 23.8509 147.887 23.4161 147.323 23.4161H147.26H146.006V25.5901H147.26C147.824 25.5901 148.326 25.1553 148.388 24.472ZM152.651 26.646H150.081L149.517 27.8882H149.078L151.147 22.9192H151.586L153.717 27.8882H153.153L152.651 26.646ZM150.332 26.1491H152.463L151.398 23.6025L150.332 26.1491ZM158.67 22.9192V27.8882H158.231L155.222 23.7888V27.8882H154.72V22.9192H155.159L158.168 26.9565V22.9192H158.67ZM162.118 25.9006V27.8882H161.616V25.9006L159.735 22.9192H160.3L161.867 25.4658L163.434 22.9192H163.998L162.118 25.9006Z" fill="#999999"/>
</g>
<defs>
<clipPath id="clip0_166_1076">
<rect width="164" height="30" fill="white" transform="translate(0.5)"/>
</clipPath>
</defs>
</svg>
