<svg width="46" height="46" viewBox="0 0 46 46" fill="none" xmlns="http://www.w3.org/2000/svg">
<path d="M32.104 6.82349V3.8335C32.104 3.04766 31.4523 2.396 30.6665 2.396C29.8806 2.396 29.229 3.04766 29.229 3.8335V6.7085H16.7706V3.8335C16.7706 3.04766 16.119 2.396 15.3331 2.396C14.5473 2.396 13.8956 3.04766 13.8956 3.8335V6.82349C8.72062 7.30266 6.20979 10.3885 5.82645 14.9693C5.78812 15.5252 6.24812 15.9852 6.78479 15.9852H39.2148C39.7706 15.9852 40.2306 15.506 40.1731 14.9693C39.7898 10.3885 37.2789 7.30266 32.104 6.82349Z" fill="#DB3A06"/>
<path opacity="0.4" d="M38.3333 18.8599C39.3875 18.8599 40.25 19.7224 40.25 20.7765V32.5832C40.25 38.3332 37.375 42.1665 30.6667 42.1665H15.3333C8.625 42.1665 5.75 38.3332 5.75 32.5832V20.7765C5.75 19.7224 6.6125 18.8599 7.66667 18.8599H38.3333Z" fill="#DB3A06"/>
<path d="M16.2917 28.7502C15.7933 28.7502 15.295 28.5393 14.9308 28.1943C14.5858 27.8301 14.375 27.3318 14.375 26.8335C14.375 26.3352 14.5858 25.8368 14.9308 25.4727C15.4675 24.936 16.3108 24.7635 17.02 25.0701C17.2692 25.166 17.48 25.3002 17.6525 25.4727C17.9975 25.8368 18.2083 26.3352 18.2083 26.8335C18.2083 27.3318 17.9975 27.8301 17.6525 28.1943C17.2883 28.5393 16.79 28.7502 16.2917 28.7502Z" fill="#DB3A06"/>
<path d="M22.9997 28.7502C22.5013 28.7502 22.003 28.5393 21.6388 28.1943C21.2938 27.8301 21.083 27.3318 21.083 26.8335C21.083 26.3352 21.2938 25.8368 21.6388 25.4727C21.8113 25.3002 22.0222 25.166 22.2713 25.0701C22.9805 24.7635 23.8238 24.936 24.3605 25.4727C24.7055 25.8368 24.9163 26.3352 24.9163 26.8335C24.9163 27.3318 24.7055 27.8301 24.3605 28.1943C24.2647 28.271 24.1688 28.3476 24.073 28.4243C23.958 28.501 23.843 28.5585 23.728 28.5969C23.613 28.6544 23.498 28.6927 23.383 28.7119C23.2488 28.731 23.1338 28.7502 22.9997 28.7502Z" fill="#DB3A06"/>
<path d="M29.7087 28.7499C29.2103 28.7499 28.712 28.539 28.3478 28.194C28.0028 27.8298 27.792 27.3315 27.792 26.8332C27.792 26.3349 28.0028 25.8365 28.3478 25.4724C28.5395 25.2999 28.7312 25.1657 28.9803 25.0698C29.3253 24.9165 29.7087 24.8782 30.092 24.9548C30.207 24.974 30.322 25.0123 30.437 25.0698C30.552 25.1082 30.667 25.1657 30.782 25.2424C30.8778 25.3191 30.9737 25.3957 31.0695 25.4724C31.4145 25.8365 31.6253 26.3349 31.6253 26.8332C31.6253 27.3315 31.4145 27.8298 31.0695 28.194C30.9737 28.2707 30.8778 28.3473 30.782 28.424C30.667 28.5007 30.552 28.5582 30.437 28.5966C30.322 28.6541 30.207 28.6924 30.092 28.7115C29.9578 28.7307 29.8237 28.7499 29.7087 28.7499Z" fill="#DB3A06"/>
<path d="M16.2917 35.4584C16.0425 35.4584 15.7933 35.4009 15.5633 35.305C15.3142 35.2092 15.1225 35.075 14.9308 34.9025C14.5858 34.5383 14.375 34.04 14.375 33.5417C14.375 33.0434 14.5858 32.545 14.9308 32.1809C15.1225 32.0084 15.3142 31.8742 15.5633 31.7783C15.9083 31.625 16.2917 31.5867 16.675 31.6633C16.79 31.6825 16.905 31.7208 17.02 31.7783C17.135 31.8167 17.25 31.8742 17.365 31.9509C17.4608 32.0275 17.5567 32.1042 17.6525 32.1809C17.9975 32.545 18.2083 33.0434 18.2083 33.5417C18.2083 34.04 17.9975 34.5383 17.6525 34.9025C17.5567 34.9792 17.4608 35.075 17.365 35.1325C17.25 35.2092 17.135 35.2667 17.02 35.305C16.905 35.3625 16.79 35.4009 16.675 35.42C16.5408 35.4392 16.4258 35.4584 16.2917 35.4584Z" fill="#DB3A06"/>
<path d="M22.9997 35.4583C22.5013 35.4583 22.003 35.2474 21.6388 34.9024C21.2938 34.5383 21.083 34.04 21.083 33.5416C21.083 33.0433 21.2938 32.545 21.6388 32.1808C22.348 31.4716 23.6513 31.4716 24.3605 32.1808C24.7055 32.545 24.9163 33.0433 24.9163 33.5416C24.9163 34.04 24.7055 34.5383 24.3605 34.9024C23.9963 35.2474 23.498 35.4583 22.9997 35.4583Z" fill="#DB3A06"/>
<path d="M29.7087 35.4583C29.2103 35.4583 28.712 35.2474 28.3478 34.9024C28.0028 34.5383 27.792 34.04 27.792 33.5416C27.792 33.0433 28.0028 32.545 28.3478 32.1808C29.057 31.4716 30.3603 31.4716 31.0695 32.1808C31.4145 32.545 31.6253 33.0433 31.6253 33.5416C31.6253 34.04 31.4145 34.5383 31.0695 34.9024C30.7053 35.2474 30.207 35.4583 29.7087 35.4583Z" fill="#DB3A06"/>
</svg>
