<svg xmlns="http://www.w3.org/2000/svg" viewBox="0 0 540 540"><title>TFHBCWC Icon</title><g id="Layer_2" data-name="Layer 2"><g id="Layer_1-2" data-name="Layer 1"><circle cx="270" cy="270" r="270" style="fill:#f1100c"/><path d="M181.11,469.77c-2,4.25-6,5.23-10.9,2.93l-10.81-5.07,11-23.54,10.08,4.72c4.91,2.3,6.84,5.87,4.87,10.09a5.64,5.64,0,0,1-5.48,3.51A6.34,6.34,0,0,1,181.11,469.77Zm-13.48-4.45,4.14,1.94c1.73.81,3.12.33,3.74-1s.13-2.75-1.6-3.56l-4.14-1.94Zm7.82-7.51c1.8.84,3.08.6,3.77-.86s0-2.56-1.78-3.4l-3.53-1.65-2,4.25Z" style="fill:#141414"/><path d="M219.08,462.35l6.91,1.88-13.47,13.71-2.42,8.91-6.58-1.79,2.42-8.91-4.51-18.6,7.11,1.94,2.61,11.23Z" style="fill:#141414"/><path d="M272.63,467.94c6.48-.11,10.35,3.68,11.37,9l-6.77.11a4.39,4.39,0,0,0-4.5-3.1c-3.6.06-5.58,3.26-5.51,7.54s2.16,7.42,5.75,7.36a4.4,4.4,0,0,0,4.4-3.29l6.77-.11c-.84,5.35-4.59,9.26-11.07,9.37-7.28.12-12.58-5.34-12.71-13.22S265.35,468.06,272.63,467.94Z" style="fill:#141414"/><path d="M317.67,463.09l7.08,14.11.32-15.69,6.71-1.43-1.28,26.84-6.07,1.3-7.12-14.06-.79,15.75-6.08,1.3-12.1-24,6.79-1.45L311.88,480l.74-15.78Z" style="fill:#141414"/><path d="M356.64,449.66c5.92-2.61,11-.63,13.95,3.83l-6.2,2.73a4.39,4.39,0,0,0-5.34-1.1c-3.29,1.45-3.87,5.17-2.14,9.08s4.87,6,8.16,4.54a4.39,4.39,0,0,0,2.76-4.74l6.19-2.74c1.3,5.26-.63,10.32-6.54,12.93-6.66,2.94-13.66,0-16.84-7.22S350,452.6,356.64,449.66Z" style="fill:#141414"/><path d="M47.9,212.92l7.54-23.87,7.33,2.31-2.35,7.41,46.09,14.56-2.87,9.06L57.56,207.83l-2.34,7.4Z" style="fill:#fff"/><path d="M104.21,162.29,99.43,170l21,13-5,8L67.85,161.56l5-8L93,166l4.78-7.73L77.58,145.82l5-8.08,47.64,29.46-5,8.09Z" style="fill:#fff"/><path d="M102.34,113.64,118.46,98l5.36,5.51-9.36,9.11,11.2,11.5,6.69-6.52,5.31,5.45-6.7,6.52,11.88,12.21,9.37-9.12,5.36,5.51-16.11,15.69Z" style="fill:#fff"/><path d="M167.51,64.93l20.18-9,3.12,7-11.56,5.14,6.51,14.65L194.38,79l3.09,7-8.62,3.83,10,22.59-8.61,3.83Z" style="fill:#fff"/><path d="M222.52,88.12l-4.81-26.69C216.15,52.72,219.26,45.77,229,44s15.19,3.65,16.76,12.36l4.81,26.69c1.52,8.46-1.55,15.65-11.4,17.43S224.05,96.58,222.52,88.12Zm19.06-1.92-5.33-29.62c-.6-3.34-2.49-5.44-5.83-4.83s-4.29,3.2-3.69,6.54l5.34,29.62c.6,3.34,2.48,5.43,5.74,4.85S242.19,89.53,241.58,86.2Z" style="fill:#fff"/><path d="M271.68,82.09l2.27-27c.75-8.81,5.55-14.71,15.44-13.87s13.71,7.46,13,16.26l-2.28,27c-.72,8.56-5.55,14.7-15.51,13.86S271,90.65,271.68,82.09Zm18.89,3.09,2.52-30c.29-3.38-1-5.89-4.36-6.17s-5,2-5.27,5.36l-2.52,30c-.29,3.38,1,5.89,4.29,6.17S290.29,88.55,290.57,85.18Z" style="fill:#fff"/><path d="M348.32,54.8C357.88,58.26,359,65.42,356,73.58L347.2,98c-2.92,8.09-8.38,13-17.94,9.51l-13.68-5,19.06-52.7ZM330.79,99.88c3.65,1.32,5.84-.35,7-3.54l10-27.59c1.12-3.11.51-5.79-3.14-7.12l-3.73-1.35L327.06,98.53Z" style="fill:#fff"/><path d="M406.11,126.62l-6.74-6.11-16.6,18.32-7-6.33L413.44,91l7,6.33-15.94,17.58,6.74,6.11,15.94-17.58,7,6.39-37.65,41.52-7-6.39Z" style="fill:#fff"/><path d="M469.56,156.87,434,180c-7.28,4.73-14,4.67-19.25-3.37-5.4-8.32-2.93-14.85,4.35-19.58l35.55-23.09,5.14,7.9-36.33,23.59c-2.77,1.8-3.92,4.13-2.12,6.9s4.4,2.67,7.17.86l36.32-23.59Z" style="fill:#fff"/><path d="M483.27,185.48l4.26,13c2.92,8.87-.23,13.3-7.76,15.79L474.35,216c-4.48,1.47-7.9.6-10.24-2.55.46,4.81-1.73,8-6.67,9.6l-7.07,2.32c-7.54,2.49-12.78.56-15.75-8.47L430,203Zm-26.34,18.59-16.64,5.48,1.29,3.93c.95,2.9,2.86,3.93,5.77,3l8-2.64c2.83-.93,3.89-2.75,2.85-5.89Zm6.83-2.25,1,3.14c.93,2.83,2.81,3.77,5.71,2.82l6.51-2.15c2.91-.95,3.86-2.83,2.9-5.74l-1-3.06Z" style="fill:#fff"/><path d="M277.05,169.69a.65.65,0,0,0,.47.33Z" style="fill:#fff"/><path d="M242,370a20.14,20.14,0,0,0,3.29.54c36.23.11,72.48.84,108.42-5.31,16.51-2.82,18.87-10.69,13-31.36-8.59-30.38-25.57-53.49-53.44-68.4-8.19-4.39-17.18-6.63-26.15-8.81l-1.14-.11-4-.69-1.94-.17c-1.59.89-4.93-1.4-4.74.76a6.79,6.79,0,0,0,6.24,6.49c30,2.6,62.24,30.73,68.7,59.94,1.48,6.69,2.71,13.44,4.54,20,3.59,13-4.33,16-14.5,18.12-31.34,6.57-63.15,7.26-95,8.32A20.14,20.14,0,0,0,242,370Z" style="fill:#141414"/><path d="M144.55,363.88c0,.92,0,1.83.06,2.75.15.21.3.43.44.65l.49.72c.57.47,1.15.93,1.71,1.4l2.44,1.48,7.42,2.94.72.17,3.23.92,1.11.17,1.65.63,1.11.17c9.67,1.56,19.29,3.54,29,4.61,14.23,1.54,28.53,2.43,42.8,3.6l2.32.06c27.77.38,55.56,1,83.26-1.37,24-2,48.36-2.85,71.05-12.66,2.21-1,4.07-2.75,3.65-5-1-5-5.8-5.92-9.68-7.47A99.85,99.85,0,0,0,377,354.75c2.77,1.41,5.62,2.66,8.26,4.29a6.53,6.53,0,0,1,2,3c-1.91,1.67-3.82,3.79-6.13,4.48-33,9.83-67.07,10.26-101,10.68-38.65.49-77.33,0-115.34-8.65-3.53-.8-6.8-2.71-10.2-4.11l-1.11-.84-1-1.34c0-.25,0-.5-.05-.76s.14-.61.21-.93c.46-.6.9-1.21,1.36-1.81l-1.19-1.15-7.88,5.49C144.8,363.36,144.68,363.62,144.55,363.88Z" style="fill:#141414"/><path d="M166.22,385.11c1,.59,1.95,1.17,2.93,1.74.71.37,1.43.72,2.15,1.07l1,.55,1,.17.75.44,1.56.45,1,.48,4.07,1.18,2,.58.74.19,1.23.21,2.7.61,2,.55,2.75.5,2,.35.74.14,4,.79,1.91.13c.94.21,1.88.4,2.83.6l2.29.25.87.07,1.14.11,4.78.67,2.69.18,6,.67,2.3.15c2.13.2,4.25.41,6.38.6l5.44.19,11.1.66,11.36.2h17.5l11.75-.23,9.91-.62,3.49-.17,7.16-.64,3.09-.14,6-.68,1.52-.13,7.57-.92,2.28-.27c1.34-.21,2.67-.43,4-.63l.72-.12,3.63-.61,1.12-.17,2.43-.57,1.89-.28,2.43-.61,1.12-.19,2-.58,1.12-.18,3.62-1,.72-.22.81-.32,1.34-.32,5.34-2.1,1.17-.41.78-.4c.19-.09.38-.2.58-.29s.6-.38.91-.56l0,0,1.66-1.06,1.36-1.09.78-.64.06-.07c2.64-6-2.5-2.81-3.63-2.63-7.17,1.12-14.27,2.66-21.4,4.06-.4.12-.82.23-1.22.36a210.3,210.3,0,0,1-38.25,5.72l-3.13.16-7.95.61-3.48.18-9.92.62-11.76.17q-13.8,0-27.58,0l-7-.15-13.07-.65-3.87-.2-.87-.08-2-.09-3.15-.36-6.29-.46-2-.33-2.29-.21-1.65-.14-1.54-.16-4-.63-1.93-.14c-1.34-.24-2.66-.46-4-.68l-1.53-.13-8.9-1.69-.63-.15c-.39-.15-.77-.29-1.15-.45l-2-.16-2.75-.94-1.23-.39-.74-.36Z" style="fill:#141414"/><path d="M252.27,203.15c-3.58,5.77-10.08,6.89-15.49,9.73-4.08,1.81-8.84,2.51-11.21,7,0,1,0,2.06,0,3.09.33.6.65,1.21,1,1.8l2.84,3.27-3.26-1.28c-8.76-7.29-4.54-12.72,2.7-17.41s7.06-8.75.19-14c-5.62-4.32-14.38-8.66-5.69-17.94,2.15.57-.29,1.45.14,2.15-.14.57-.27,1.13-.4,1.71-.85,2.91.64,4.57,3.06,5.72.26.14.52.28.79.41.6.44,1.22.87,1.84,1.3l.47.33a.38.38,0,0,0,.25.14l2.55,1.39,1.19.39.76.43,1.22.37,1,.55.36.17,6.51,2.41.59.28,2.58,1.26,1.17.5.75.37a.45.45,0,0,0,.24.17c.31.21.61.44.93.65s.89.71,1.34,1c.5.94,1,1.88,1.51,2.81Z" style="fill:#141414"/><path d="M183.48,307a10.15,10.15,0,0,0,2.27-1.84c14.3-20.8,33.31-34.83,58.07-40.67l11.88-1.74c3-1,4.25-3.24,4.43-6.24a24.79,24.79,0,0,0-4.93-.14c-29.45,5-52,20.46-68.46,45.13a8.92,8.92,0,0,1-1.33,1.35,2.6,2.6,0,0,1-.13-.24,12.51,12.51,0,0,1-.49,1.87C184.42,305.33,183.92,306.14,183.48,307Z" style="fill:#141414"/><path d="M324,202c-2.7,4.36-7.61,5.19-11.69,7.34-3.08,1.36-6.67,1.9-8.45,5.31l0,2.33.73,1.36c.72.83,1.43,1.64,2.14,2.47l-2.46-1c-6.61-5.5-3.42-9.6,2-13.13s5.33-6.61.14-10.59c-4.24-3.26-10.85-6.54-4.29-13.54,1.62.44-.22,1.1.1,1.62l-.3,1.29c-.64,2.2.49,3.45,2.31,4.32l.59.31,1.39,1,.36.25a.29.29,0,0,0,.19.11l1.92,1,.9.3.57.32.92.28.75.41.28.13,4.91,1.82.44.21,1.95.95.88.38.57.28a.32.32,0,0,0,.18.13l.7.49,1,.79,1.14,2.12C323.93,201.41,324,201.7,324,202Z" style="fill:#141414"/><path d="M295.21,167.4c-4.27,13.43-12,16-18.46,22.63-4.86,4.21-10.54,5.85-13.36,16.39q0,3.6.05,7.2c.39,1.39.77,2.8,1.16,4.19l3.38,7.6-3.89-3c-10.44-17-5.41-29.61,3.22-40.53s8.42-20.37.23-32.67c-6.7-10.05-17.15-20.16-6.79-41.76,2.57,1.34-.34,3.39.17,5-.17,1.32-.32,2.64-.48,4-1,6.77.77,10.63,3.65,13.31l.94,1c.72,1,1.46,2,2.19,3,.2.26.38.52.57.77s.18.31.3.33c1,1.09,2,2.17,3,3.23l1.42.91.9,1,1.45.87,1.19,1.27c.14.12.29.26.43.4l7.76,5.62.7.64c1,1,2.06,2,3.08,2.94.47.4.93.78,1.39,1.15.3.31.6.59.9.87a.76.76,0,0,0,.28.4l1.11,1.51c.53.82,1.06,1.65,1.6,2.45.59,2.18,1.19,4.37,1.8,6.53C295.16,165.56,295.18,166.48,295.21,167.4Z" style="fill:#141414"/><path d="M248,239.72a8,8,0,0,0,.74,1.68c6.61,9,28.07,7.78,32.41-1.89.65-1.47.56-3.28.8-4.94-.11-.52-.23-1-.35-1.56-.19-.36-.38-.72-.59-1.07h0c-.35-.56-.7-1.11-1.07-1.67l-.38-.4L278,228.3c-.43-.22-.87-.44-1.31-.68l-1-.64-1.25-.65-1.17-.42c-.89.32-2.12-1.56-2.77.41l.87.3.71.5.87.29c4.91,3.55,5,7.53,1.08,11.89-.63.55-1.24,1.11-1.87,1.68l-2.06,1.09-1.57.43-.82.31-3.12.44h-3.94l-2.3-.16c-3-.88-5.91-1.75-8.86-2.65A8.65,8.65,0,0,1,248,239.72Z" style="fill:#141414"/><path d="M263.37,266.46a38.36,38.36,0,0,0,5.27.27c5.76-.56,11.22-1.33,4.48-8.47-2.37-2.5.53-8.68-3-8.33-5.88.58-1.22,5.57-1.48,8.6-.12,1.45,2.5,3.3,0,4.3-1.56.65-3.71-.17-5.59-.33.52-1.71,1-3.42,1.54-5.13-.25-.46-.49-.94-.73-1.4-1.63,2.42-3.92,4.66-4.68,7.32C258.67,265.22,261.48,266.11,263.37,266.46Z" style="fill:#141414"/><path d="M282.06,255.86l4,.7Z" style="fill:#fff"/><path d="M397.8,352.05l1.71-1.39Z" style="fill:#fff"/><path d="M400,349.93l.45-.65Z" style="fill:#fff"/><path d="M400.49,346.54l-.35-.79Z" style="fill:#fff"/><path d="M272.14,241l-2.06,1.1Z" style="fill:#fff"/><path d="M268.52,242.5l-.83.31Z" style="fill:#fff"/><path d="M115.37,418.67A220.94,220.94,0,0,1,47.25,258.33h7a214,214,0,0,0,66,155.3Z" style="fill:#fff"/><path d="M422.51,420.69l-4.8-5.1a213.73,213.73,0,0,0,68.05-157.26h7A220.69,220.69,0,0,1,422.51,420.69Z" style="fill:#fff"/></g></g></svg>