<svg width="46" height="46" viewBox="0 0 46 46" fill="none" xmlns="http://www.w3.org/2000/svg">
<path opacity="0.3" fill-rule="evenodd" clip-rule="evenodd" d="M36.417 21.0833C37.3841 21.083 38.3156 21.4483 39.0247 22.1059C39.7338 22.7635 40.1682 23.6648 40.2407 24.6292L40.2503 24.9167V36.4167C40.2506 37.3838 39.8854 38.3153 39.2278 39.0244C38.5702 39.7335 37.6689 40.1679 36.7045 40.2404L36.417 40.25H28.7503C27.7832 40.2503 26.8517 39.8851 26.1426 39.2275C25.4335 38.5699 24.9991 37.6685 24.9266 36.7042L24.917 36.4167V24.9167C24.9167 23.9496 25.2819 23.0181 25.9395 22.3089C26.5971 21.5998 27.4984 21.1654 28.4628 21.0929L28.7503 21.0833H36.417ZM36.417 5.75C37.4337 5.75 38.4087 6.15387 39.1276 6.87276C39.8465 7.59165 40.2503 8.56667 40.2503 9.58333V13.4167C40.2503 14.4333 39.8465 15.4084 39.1276 16.1272C38.4087 16.8461 37.4337 17.25 36.417 17.25H28.7503C27.7337 17.25 26.7586 16.8461 26.0398 16.1272C25.3209 15.4084 24.917 14.4333 24.917 13.4167V9.58333C24.917 8.56667 25.3209 7.59165 26.0398 6.87276C26.7586 6.15387 27.7337 5.75 28.7503 5.75H36.417Z" fill="#DB3A06"/>
<path fill-rule="evenodd" clip-rule="evenodd" d="M17.25 5.75C18.2667 5.75 19.2417 6.15387 19.9606 6.87276C20.6795 7.59165 21.0833 8.56667 21.0833 9.58333V21.0833C21.0833 22.1 20.6795 23.075 19.9606 23.7939C19.2417 24.5128 18.2667 24.9167 17.25 24.9167H9.58333C8.56667 24.9167 7.59165 24.5128 6.87276 23.7939C6.15387 23.075 5.75 22.1 5.75 21.0833V9.58333C5.75 8.56667 6.15387 7.59165 6.87276 6.87276C7.59165 6.15387 8.56667 5.75 9.58333 5.75H17.25Z" fill="#DB3A06"/>
<path opacity="0.3" fill-rule="evenodd" clip-rule="evenodd" d="M17.25 28.75C18.2667 28.75 19.2417 29.1539 19.9606 29.8728C20.6795 30.5916 21.0833 31.5667 21.0833 32.5833V36.4167C21.0833 37.4333 20.6795 38.4084 19.9606 39.1272C19.2417 39.8461 18.2667 40.25 17.25 40.25H9.58333C8.56667 40.25 7.59165 39.8461 6.87276 39.1272C6.15387 38.4084 5.75 37.4333 5.75 36.4167V32.5833C5.75 31.5667 6.15387 30.5916 6.87276 29.8728C7.59165 29.1539 8.56667 28.75 9.58333 28.75H17.25Z" fill="#DB3A06"/>
</svg>
