<svg width="1440" height="1060" viewBox="0 0 1440 1060" fill="none" xmlns="http://www.w3.org/2000/svg">
<g clip-path="url(#clip0_2254_3119)">
<rect width="1504" height="1060" transform="translate(-50)" fill="white"/>
<rect x="643.5" y="36.5" width="52" height="52" rx="26" stroke="#F4C2B2"/>
<circle cx="669" cy="62.5" r="17" fill="#F4C2B2"/>
<line x1="670.5" y1="101" x2="670.5" y2="318" stroke="#F4C2B2" stroke-width="2" stroke-dasharray="5 5"/>
<rect x="643.5" y="329.5" width="52" height="52" rx="26" stroke="#F4C2B2"/>
<circle cx="669" cy="355.5" r="17" fill="#F4C2B2"/>
<line x1="670.5" y1="403" x2="670.5" y2="620" stroke="#F4C2B2" stroke-width="2" stroke-dasharray="5 5"/>
<rect x="643.5" y="631.5" width="52" height="52" rx="26" stroke="#F4C2B2"/>
<circle cx="669" cy="657.5" r="17" fill="#F4C2B2"/>
<line x1="670.5" y1="705" x2="670.5" y2="922" stroke="#F4C2B2" stroke-width="2" stroke-dasharray="5 5"/>
<rect x="643.5" y="933.5" width="52" height="52" rx="26" stroke="#F4C2B2"/>
<circle cx="669" cy="959.5" r="17" fill="#F4C2B2"/>
<g opacity="0.5">
<path d="M492.688 258.625V282.875M456.312 113.125H529.062C532.278 113.125 535.362 114.402 537.636 116.676C539.91 118.95 541.188 122.034 541.188 125.25V281.359C541.188 281.761 541.028 282.147 540.744 282.431C540.459 282.715 540.074 282.875 539.672 282.875H444.188V125.25C444.188 122.034 445.465 118.95 447.739 116.676C450.013 114.402 453.097 113.125 456.312 113.125ZM547.25 173.75H589.688C592.903 173.75 595.987 175.027 598.261 177.301C600.535 179.575 601.812 182.659 601.812 185.875V282.875H541.188V179.812C541.188 178.205 541.826 176.663 542.963 175.526C544.1 174.389 545.642 173.75 547.25 173.75Z" stroke="#F4C2B2" stroke-width="2.4" stroke-linecap="round" stroke-linejoin="round"/>
<path d="M463.161 264.636C461.906 264.801 460.63 264.567 459.514 263.97C458.397 263.372 457.496 262.44 456.937 261.304C456.377 260.168 456.187 258.885 456.394 257.636C456.6 256.387 457.193 255.234 458.088 254.338C458.984 253.443 460.137 252.85 461.386 252.644C462.635 252.437 463.918 252.627 465.054 253.187C466.19 253.746 467.122 254.647 467.72 255.764C468.317 256.88 468.551 258.156 468.386 259.411C468.213 260.736 467.607 261.967 466.662 262.912C465.717 263.857 464.486 264.463 463.161 264.636ZM463.161 234.324C461.906 234.488 460.63 234.255 459.514 233.657C458.397 233.06 457.496 232.127 456.937 230.992C456.377 229.856 456.187 228.573 456.394 227.324C456.6 226.074 457.193 224.921 458.088 224.026C458.984 223.13 460.137 222.538 461.386 222.331C462.635 222.125 463.918 222.314 465.054 222.874C466.19 223.434 467.122 224.335 467.72 225.451C468.317 226.568 468.551 227.843 468.386 229.099C468.213 230.424 467.607 231.654 466.662 232.599C465.717 233.544 464.486 234.151 463.161 234.324ZM463.161 204.011C461.906 204.176 460.63 203.942 459.514 203.345C458.397 202.747 457.496 201.815 456.937 200.679C456.377 199.543 456.187 198.26 456.394 197.011C456.6 195.762 457.193 194.609 458.088 193.713C458.984 192.818 460.137 192.225 461.386 192.019C462.635 191.812 463.918 192.002 465.054 192.562C466.19 193.121 467.122 194.022 467.72 195.139C468.317 196.255 468.551 197.531 468.386 198.786C468.213 200.111 467.607 201.342 466.662 202.287C465.717 203.232 464.486 203.838 463.161 204.011ZM463.161 173.699C461.906 173.863 460.63 173.63 459.514 173.032C458.397 172.435 457.496 171.502 456.937 170.367C456.377 169.231 456.187 167.948 456.394 166.699C456.6 165.449 457.193 164.296 458.088 163.401C458.984 162.505 460.137 161.913 461.386 161.706C462.635 161.5 463.918 161.689 465.054 162.249C466.19 162.809 467.122 163.71 467.72 164.826C468.317 165.943 468.551 167.218 468.386 168.474C468.213 169.799 467.607 171.029 466.662 171.974C465.717 172.919 464.486 173.526 463.161 173.699ZM463.161 143.386C461.906 143.551 460.63 143.317 459.514 142.72C458.397 142.122 457.496 141.19 456.937 140.054C456.377 138.918 456.187 137.635 456.394 136.386C456.6 135.137 457.193 133.984 458.088 133.088C458.984 132.193 460.137 131.6 461.386 131.394C462.635 131.187 463.918 131.377 465.054 131.937C466.19 132.496 467.122 133.397 467.72 134.514C468.317 135.63 468.551 136.906 468.386 138.161C468.213 139.486 467.607 140.717 466.662 141.662C465.717 142.607 464.486 143.213 463.161 143.386ZM493.474 234.324C492.218 234.488 490.943 234.255 489.826 233.657C488.71 233.06 487.809 232.127 487.249 230.992C486.689 229.856 486.5 228.573 486.706 227.324C486.913 226.074 487.505 224.921 488.401 224.026C489.296 223.13 490.449 222.538 491.699 222.331C492.948 222.125 494.231 222.314 495.367 222.874C496.502 223.434 497.435 224.335 498.032 225.451C498.63 226.568 498.863 227.843 498.699 229.099C498.526 230.424 497.919 231.654 496.974 232.599C496.029 233.544 494.799 234.151 493.474 234.324ZM493.474 204.011C492.218 204.176 490.943 203.942 489.826 203.345C488.71 202.747 487.809 201.815 487.249 200.679C486.689 199.543 486.5 198.26 486.706 197.011C486.913 195.762 487.505 194.609 488.401 193.713C489.296 192.818 490.449 192.225 491.699 192.019C492.948 191.812 494.231 192.002 495.367 192.562C496.502 193.121 497.435 194.022 498.032 195.139C498.63 196.255 498.863 197.531 498.699 198.786C498.526 200.111 497.919 201.342 496.974 202.287C496.029 203.232 494.799 203.838 493.474 204.011ZM493.474 173.699C492.218 173.863 490.943 173.63 489.826 173.032C488.71 172.435 487.809 171.502 487.249 170.367C486.689 169.231 486.5 167.948 486.706 166.699C486.913 165.449 487.505 164.296 488.401 163.401C489.296 162.505 490.449 161.913 491.699 161.706C492.948 161.5 494.231 161.689 495.367 162.249C496.502 162.809 497.435 163.71 498.032 164.826C498.63 165.943 498.863 167.218 498.699 168.474C498.526 169.799 497.919 171.029 496.974 171.974C496.029 172.919 494.799 173.526 493.474 173.699ZM493.474 143.386C492.218 143.551 490.943 143.317 489.826 142.72C488.71 142.122 487.809 141.19 487.249 140.054C486.689 138.918 486.5 137.635 486.706 136.386C486.913 135.137 487.505 133.984 488.401 133.088C489.296 132.193 490.449 131.6 491.699 131.394C492.948 131.187 494.231 131.377 495.367 131.937C496.502 132.496 497.435 133.397 498.032 134.514C498.63 135.63 498.863 136.906 498.699 138.161C498.526 139.486 497.919 140.717 496.974 141.662C496.029 142.607 494.799 143.213 493.474 143.386ZM523.786 264.636C522.531 264.801 521.255 264.567 520.139 263.97C519.022 263.372 518.121 262.44 517.562 261.304C517.002 260.168 516.812 258.885 517.019 257.636C517.225 256.387 517.818 255.234 518.713 254.338C519.609 253.443 520.762 252.85 522.011 252.644C523.26 252.437 524.543 252.627 525.679 253.187C526.815 253.746 527.747 254.647 528.345 255.764C528.942 256.88 529.176 258.156 529.011 259.411C528.838 260.736 528.232 261.967 527.287 262.912C526.342 263.857 525.111 264.463 523.786 264.636ZM523.786 234.324C522.531 234.488 521.255 234.255 520.139 233.657C519.022 233.06 518.121 232.127 517.562 230.992C517.002 229.856 516.812 228.573 517.019 227.324C517.225 226.074 517.818 224.921 518.713 224.026C519.609 223.13 520.762 222.538 522.011 222.331C523.26 222.125 524.543 222.314 525.679 222.874C526.815 223.434 527.747 224.335 528.345 225.451C528.942 226.568 529.176 227.843 529.011 229.099C528.838 230.424 528.232 231.654 527.287 232.599C526.342 233.544 525.111 234.151 523.786 234.324ZM523.786 204.011C522.531 204.176 521.255 203.942 520.139 203.345C519.022 202.747 518.121 201.815 517.562 200.679C517.002 199.543 516.812 198.26 517.019 197.011C517.225 195.762 517.818 194.609 518.713 193.713C519.609 192.818 520.762 192.225 522.011 192.019C523.26 191.812 524.543 192.002 525.679 192.562C526.815 193.121 527.747 194.022 528.345 195.139C528.942 196.255 529.176 197.531 529.011 198.786C528.838 200.111 528.232 201.342 527.287 202.287C526.342 203.232 525.111 203.838 523.786 204.011Z" fill="#F4C2B2"/>
<path d="M527.29 171.98C529.65 169.62 529.641 165.784 527.269 163.412C524.897 161.04 521.06 161.03 518.7 163.391C516.34 165.751 516.35 169.587 518.722 171.959C521.094 174.331 524.93 174.341 527.29 171.98Z" fill="#F4C2B2"/>
<path d="M523.786 143.386C522.531 143.551 521.255 143.317 520.139 142.72C519.022 142.122 518.121 141.19 517.562 140.054C517.002 138.918 516.812 137.635 517.019 136.386C517.225 135.137 517.818 133.984 518.713 133.088C519.609 132.193 520.762 131.6 522.011 131.394C523.26 131.187 524.543 131.377 525.679 131.937C526.815 132.496 527.747 133.397 528.345 134.514C528.942 135.63 529.176 136.906 529.011 138.161C528.838 139.486 528.232 140.717 527.287 141.662C526.342 142.607 525.111 143.213 523.786 143.386ZM577.561 252.561C576.362 252.561 575.189 252.916 574.192 253.582C573.195 254.248 572.418 255.195 571.96 256.303C571.501 257.411 571.381 258.63 571.615 259.806C571.848 260.982 572.426 262.062 573.274 262.91C574.122 263.758 575.202 264.335 576.378 264.569C577.554 264.803 578.773 264.683 579.881 264.224C580.988 263.765 581.935 262.988 582.601 261.991C583.268 260.994 583.623 259.822 583.623 258.623C583.623 257.015 582.984 255.473 581.847 254.336C580.71 253.199 579.168 252.561 577.561 252.561ZM577.561 222.248C576.362 222.248 575.189 222.604 574.192 223.27C573.195 223.936 572.418 224.883 571.96 225.991C571.501 227.098 571.381 228.317 571.615 229.493C571.848 230.669 572.426 231.75 573.274 232.597C574.122 233.445 575.202 234.023 576.378 234.257C577.554 234.49 578.773 234.37 579.881 233.912C580.988 233.453 581.935 232.676 582.601 231.679C583.268 230.682 583.623 229.51 583.623 228.311C583.623 226.703 582.984 225.161 581.847 224.024C580.71 222.887 579.168 222.248 577.561 222.248ZM577.561 191.936C576.362 191.936 575.189 192.291 574.192 192.957C573.195 193.623 572.418 194.57 571.96 195.678C571.501 196.786 571.381 198.005 571.615 199.181C571.848 200.357 572.426 201.437 573.274 202.285C574.122 203.133 575.202 203.71 576.378 203.944C577.554 204.178 578.773 204.058 579.881 203.599C580.988 203.14 581.935 202.363 582.601 201.366C583.268 200.369 583.623 199.197 583.623 197.998C583.623 196.39 582.984 194.848 581.847 193.711C580.71 192.574 579.168 191.936 577.561 191.936ZM553.311 252.561C552.112 252.561 550.939 252.916 549.942 253.582C548.945 254.248 548.168 255.195 547.71 256.303C547.251 257.411 547.131 258.63 547.365 259.806C547.598 260.982 548.176 262.062 549.024 262.91C549.872 263.758 550.952 264.335 552.128 264.569C553.304 264.803 554.523 264.683 555.631 264.224C556.738 263.765 557.685 262.988 558.351 261.991C559.018 260.994 559.373 259.822 559.373 258.623C559.373 257.015 558.734 255.473 557.597 254.336C556.46 253.199 554.918 252.561 553.311 252.561ZM553.311 222.248C552.112 222.248 550.939 222.604 549.942 223.27C548.945 223.936 548.168 224.883 547.71 225.991C547.251 227.098 547.131 228.317 547.365 229.493C547.598 230.669 548.176 231.75 549.024 232.597C549.872 233.445 550.952 234.023 552.128 234.257C553.304 234.49 554.523 234.37 555.631 233.912C556.738 233.453 557.685 232.676 558.351 231.679C559.018 230.682 559.373 229.51 559.373 228.311C559.373 226.703 558.734 225.161 557.597 224.024C556.46 222.887 554.918 222.248 553.311 222.248ZM553.311 191.936C552.112 191.936 550.939 192.291 549.942 192.957C548.945 193.623 548.168 194.57 547.71 195.678C547.251 196.786 547.131 198.005 547.365 199.181C547.598 200.357 548.176 201.437 549.024 202.285C549.872 203.133 550.952 203.71 552.128 203.944C553.304 204.178 554.523 204.058 555.631 203.599C556.738 203.14 557.685 202.363 558.351 201.366C559.018 200.369 559.373 199.197 559.373 197.998C559.373 196.39 558.734 194.848 557.597 193.711C556.46 192.574 554.918 191.936 553.311 191.936Z" fill="#F4C2B2"/>
</g>
<g opacity="0.5">
<path d="M852.667 557.949H788.333C758.981 557.949 742.094 541.061 742.094 511.709V431.292C742.094 401.94 758.981 385.053 788.333 385.053H852.667C882.019 385.053 898.906 401.94 898.906 431.292V511.709C898.906 541.061 882.019 557.949 852.667 557.949ZM788.333 397.115C765.334 397.115 754.156 408.293 754.156 431.292V511.709C754.156 534.708 765.334 545.886 788.333 545.886H852.667C875.666 545.886 886.844 534.708 886.844 511.709V431.292C886.844 408.293 875.666 397.115 852.667 397.115H788.333Z" fill="#F4C2B2"/>
<path d="M872.771 449.385H856.688C844.464 449.385 834.573 439.494 834.573 427.271V411.187C834.573 407.89 837.307 405.156 840.604 405.156C843.902 405.156 846.636 407.89 846.636 411.187V427.271C846.636 432.82 851.139 437.323 856.688 437.323H872.771C876.068 437.323 878.802 440.057 878.802 443.354C878.802 446.651 876.068 449.385 872.771 449.385Z" fill="#F4C2B2"/>
<path d="M820.5 485.572H788.333C785.036 485.572 782.302 482.838 782.302 479.541C782.302 476.244 785.036 473.51 788.333 473.51H820.5C823.797 473.51 826.531 476.244 826.531 479.541C826.531 482.838 823.797 485.572 820.5 485.572Z" fill="#F4C2B2"/>
<path d="M852.666 517.74H788.333C785.036 517.74 782.302 515.006 782.302 511.709C782.302 508.412 785.036 505.678 788.333 505.678H852.666C855.963 505.678 858.698 508.412 858.698 511.709C858.698 515.006 855.963 517.74 852.666 517.74Z" fill="#F4C2B2"/>
</g>
<g opacity="0.5">
<path d="M565.252 850.5V856.562C565.252 862.994 562.697 869.162 558.149 873.71C553.601 878.258 547.433 880.812 541.002 880.812C534.57 880.812 528.402 878.258 523.854 873.71C519.306 869.162 516.752 862.994 516.752 856.562V850.5M606.052 838.159C596.322 826.25 589.452 820.188 589.452 787.355C589.452 757.289 574.099 746.577 561.462 741.375C559.784 740.685 558.204 739.102 557.692 737.378C555.476 729.834 549.262 723.188 541.002 723.188C532.741 723.188 526.523 729.837 524.33 737.385C523.818 739.128 522.238 740.685 520.56 741.375C507.908 746.585 492.57 757.259 492.57 787.355C492.551 820.188 485.681 826.25 475.951 838.159C471.919 843.092 475.451 850.5 482.502 850.5H599.539C606.552 850.5 610.061 843.07 606.052 838.159Z" stroke="#F4C2B2" stroke-width="6.8125" stroke-linecap="round" stroke-linejoin="round"/>
</g>
<path d="M796.83 622.443H791.511C791.307 621.307 790.926 620.307 790.369 619.443C789.813 618.58 789.131 617.847 788.324 617.244C787.517 616.642 786.614 616.187 785.614 615.881C784.625 615.574 783.574 615.42 782.46 615.42C780.449 615.42 778.648 615.926 777.057 616.938C775.477 617.949 774.227 619.432 773.307 621.386C772.398 623.341 771.943 625.727 771.943 628.545C771.943 631.386 772.398 633.784 773.307 635.739C774.227 637.693 775.483 639.17 777.074 640.17C778.665 641.17 780.455 641.67 782.443 641.67C783.545 641.67 784.591 641.523 785.58 641.227C786.58 640.92 787.483 640.472 788.29 639.881C789.097 639.29 789.778 638.568 790.335 637.716C790.903 636.852 791.295 635.864 791.511 634.75L796.83 634.767C796.545 636.483 795.994 638.062 795.176 639.506C794.369 640.938 793.33 642.176 792.057 643.222C790.795 644.256 789.352 645.057 787.727 645.625C786.102 646.193 784.33 646.477 782.409 646.477C779.386 646.477 776.693 645.761 774.33 644.33C771.966 642.886 770.102 640.824 768.739 638.142C767.386 635.46 766.71 632.261 766.71 628.545C766.71 624.818 767.392 621.619 768.756 618.949C770.119 616.267 771.983 614.21 774.347 612.778C776.71 611.335 779.398 610.614 782.409 610.614C784.261 610.614 785.989 610.881 787.591 611.415C789.205 611.937 790.653 612.71 791.938 613.733C793.222 614.744 794.284 615.983 795.125 617.449C795.966 618.903 796.534 620.568 796.83 622.443ZM802.723 646V619.818H807.649V623.977H807.922C808.399 622.568 809.24 621.46 810.445 620.653C811.661 619.835 813.036 619.426 814.57 619.426C814.888 619.426 815.263 619.437 815.695 619.46C816.138 619.483 816.484 619.511 816.734 619.545V624.42C816.53 624.364 816.166 624.301 815.643 624.233C815.121 624.153 814.598 624.114 814.075 624.114C812.871 624.114 811.797 624.369 810.854 624.881C809.922 625.381 809.183 626.08 808.638 626.977C808.092 627.864 807.82 628.875 807.82 630.011V646H802.723ZM831.491 646.528C828.912 646.528 826.69 645.977 824.827 644.875C822.974 643.761 821.543 642.199 820.531 640.188C819.531 638.165 819.031 635.795 819.031 633.08C819.031 630.398 819.531 628.034 820.531 625.989C821.543 623.943 822.952 622.347 824.759 621.199C826.577 620.051 828.702 619.477 831.134 619.477C832.611 619.477 834.043 619.722 835.429 620.21C836.815 620.699 838.06 621.466 839.162 622.511C840.264 623.557 841.134 624.915 841.77 626.585C842.406 628.244 842.724 630.261 842.724 632.636V634.443H821.912V630.625H837.73C837.73 629.284 837.457 628.097 836.912 627.062C836.366 626.017 835.599 625.193 834.611 624.591C833.634 623.989 832.486 623.688 831.168 623.688C829.736 623.688 828.486 624.04 827.418 624.744C826.361 625.437 825.543 626.347 824.963 627.472C824.395 628.585 824.111 629.795 824.111 631.102V634.085C824.111 635.835 824.418 637.324 825.031 638.551C825.656 639.778 826.526 640.716 827.639 641.364C828.753 642 830.054 642.318 831.543 642.318C832.509 642.318 833.389 642.182 834.185 641.909C834.98 641.625 835.668 641.205 836.247 640.648C836.827 640.091 837.27 639.403 837.577 638.585L842.401 639.455C842.014 640.875 841.321 642.119 840.321 643.188C839.332 644.244 838.088 645.068 836.588 645.659C835.099 646.239 833.401 646.528 831.491 646.528ZM855.999 646.58C854.339 646.58 852.839 646.273 851.499 645.659C850.158 645.034 849.095 644.131 848.311 642.949C847.538 641.767 847.152 640.318 847.152 638.602C847.152 637.125 847.436 635.909 848.004 634.955C848.572 634 849.339 633.244 850.305 632.688C851.271 632.131 852.351 631.71 853.544 631.426C854.737 631.142 855.953 630.926 857.192 630.778C858.76 630.597 860.033 630.449 861.01 630.335C861.987 630.21 862.697 630.011 863.141 629.739C863.584 629.466 863.805 629.023 863.805 628.409V628.29C863.805 626.801 863.385 625.648 862.544 624.83C861.714 624.011 860.476 623.602 858.828 623.602C857.112 623.602 855.76 623.983 854.771 624.744C853.794 625.494 853.118 626.33 852.743 627.25L847.953 626.159C848.521 624.568 849.351 623.284 850.442 622.307C851.544 621.318 852.811 620.602 854.243 620.159C855.675 619.705 857.18 619.477 858.76 619.477C859.805 619.477 860.913 619.602 862.084 619.852C863.266 620.091 864.368 620.534 865.391 621.182C866.425 621.83 867.271 622.756 867.93 623.96C868.589 625.153 868.919 626.705 868.919 628.614V646H863.942V642.42H863.737C863.408 643.08 862.913 643.727 862.254 644.364C861.595 645 860.749 645.528 859.714 645.949C858.68 646.369 857.442 646.58 855.999 646.58ZM857.107 642.489C858.516 642.489 859.72 642.21 860.72 641.653C861.732 641.097 862.499 640.369 863.021 639.472C863.555 638.562 863.822 637.591 863.822 636.557V633.182C863.641 633.364 863.288 633.534 862.766 633.693C862.254 633.841 861.669 633.972 861.01 634.085C860.351 634.187 859.709 634.284 859.084 634.375C858.459 634.455 857.936 634.523 857.516 634.58C856.527 634.705 855.624 634.915 854.805 635.21C853.999 635.506 853.351 635.932 852.862 636.489C852.385 637.034 852.146 637.761 852.146 638.67C852.146 639.932 852.612 640.886 853.544 641.534C854.476 642.17 855.663 642.489 857.107 642.489ZM887.929 619.818V623.909H873.628V619.818H887.929ZM877.463 613.545H882.56V638.312C882.56 639.301 882.707 640.045 883.003 640.545C883.298 641.034 883.679 641.369 884.145 641.551C884.622 641.722 885.139 641.807 885.696 641.807C886.105 641.807 886.463 641.778 886.77 641.722C887.077 641.665 887.315 641.619 887.486 641.585L888.406 645.795C888.111 645.909 887.69 646.023 887.145 646.136C886.599 646.261 885.918 646.33 885.099 646.341C883.759 646.364 882.509 646.125 881.349 645.625C880.19 645.125 879.253 644.352 878.537 643.307C877.821 642.261 877.463 640.949 877.463 639.369V613.545ZM904.57 646.528C901.99 646.528 899.768 645.977 897.905 644.875C896.053 643.761 894.621 642.199 893.609 640.188C892.609 638.165 892.109 635.795 892.109 633.08C892.109 630.398 892.609 628.034 893.609 625.989C894.621 623.943 896.03 622.347 897.837 621.199C899.655 620.051 901.78 619.477 904.212 619.477C905.689 619.477 907.121 619.722 908.507 620.21C909.893 620.699 911.138 621.466 912.24 622.511C913.342 623.557 914.212 624.915 914.848 626.585C915.484 628.244 915.803 630.261 915.803 632.636V634.443H894.99V630.625H910.808C910.808 629.284 910.536 628.097 909.99 627.062C909.445 626.017 908.678 625.193 907.689 624.591C906.712 623.989 905.564 623.688 904.246 623.688C902.814 623.688 901.564 624.04 900.496 624.744C899.439 625.437 898.621 626.347 898.041 627.472C897.473 628.585 897.189 629.795 897.189 631.102V634.085C897.189 635.835 897.496 637.324 898.109 638.551C898.734 639.778 899.604 640.716 900.717 641.364C901.831 642 903.132 642.318 904.621 642.318C905.587 642.318 906.467 642.182 907.263 641.909C908.058 641.625 908.746 641.205 909.325 640.648C909.905 640.091 910.348 639.403 910.655 638.585L915.479 639.455C915.092 640.875 914.399 642.119 913.399 643.188C912.411 644.244 911.166 645.068 909.666 645.659C908.178 646.239 906.479 646.528 904.57 646.528ZM931.876 611.091H937.859L946.979 626.96H947.354L956.473 611.091H962.456L949.791 632.295V646H944.541V632.295L931.876 611.091ZM973.736 646.528C971.281 646.528 969.139 645.966 967.31 644.841C965.48 643.716 964.06 642.142 963.048 640.119C962.037 638.097 961.531 635.733 961.531 633.028C961.531 630.312 962.037 627.937 963.048 625.903C964.06 623.869 965.48 622.29 967.31 621.165C969.139 620.04 971.281 619.477 973.736 619.477C976.19 619.477 978.332 620.04 980.162 621.165C981.991 622.29 983.412 623.869 984.423 625.903C985.435 627.937 985.94 630.312 985.94 633.028C985.94 635.733 985.435 638.097 984.423 640.119C983.412 642.142 981.991 643.716 980.162 644.841C978.332 645.966 976.19 646.528 973.736 646.528ZM973.753 642.25C975.344 642.25 976.662 641.83 977.707 640.989C978.753 640.148 979.526 639.028 980.026 637.631C980.537 636.233 980.793 634.693 980.793 633.011C980.793 631.341 980.537 629.807 980.026 628.409C979.526 627 978.753 625.869 977.707 625.017C976.662 624.165 975.344 623.739 973.753 623.739C972.151 623.739 970.821 624.165 969.764 625.017C968.719 625.869 967.94 627 967.429 628.409C966.929 629.807 966.679 631.341 966.679 633.011C966.679 634.693 966.929 636.233 967.429 637.631C967.94 639.028 968.719 640.148 969.764 640.989C970.821 641.83 972.151 642.25 973.753 642.25ZM1008.21 635.142V619.818H1013.33V646H1008.32V641.466H1008.04C1007.44 642.864 1006.48 644.028 1005.15 644.96C1003.83 645.881 1002.19 646.341 1000.22 646.341C998.538 646.341 997.05 645.972 995.754 645.233C994.47 644.483 993.459 643.375 992.72 641.909C991.993 640.443 991.629 638.631 991.629 636.472V619.818H996.726V635.858C996.726 637.642 997.22 639.062 998.209 640.119C999.197 641.176 1000.48 641.705 1002.06 641.705C1003.02 641.705 1003.96 641.466 1004.91 640.989C1005.86 640.511 1006.65 639.79 1007.28 638.824C1007.91 637.858 1008.23 636.631 1008.21 635.142ZM1020.18 646V619.818H1025.1V623.977H1025.38C1025.85 622.568 1026.69 621.46 1027.9 620.653C1029.11 619.835 1030.49 619.426 1032.02 619.426C1032.34 619.426 1032.72 619.437 1033.15 619.46C1033.59 619.483 1033.94 619.511 1034.19 619.545V624.42C1033.98 624.364 1033.62 624.301 1033.1 624.233C1032.57 624.153 1032.05 624.114 1031.53 624.114C1030.32 624.114 1029.25 624.369 1028.31 624.881C1027.38 625.381 1026.64 626.08 1026.09 626.977C1025.55 627.864 1025.27 628.875 1025.27 630.011V646H1020.18ZM1051.71 646V611.091H1064.15C1066.87 611.091 1069.12 611.585 1070.9 612.574C1072.69 613.562 1074.02 614.915 1074.91 616.631C1075.8 618.335 1076.24 620.256 1076.24 622.392C1076.24 624.54 1075.79 626.472 1074.89 628.188C1074.01 629.892 1072.66 631.244 1070.87 632.244C1069.09 633.233 1066.84 633.727 1064.14 633.727H1055.58V629.261H1063.66C1065.38 629.261 1066.77 628.966 1067.84 628.375C1068.9 627.773 1069.69 626.955 1070.19 625.92C1070.69 624.886 1070.94 623.71 1070.94 622.392C1070.94 621.074 1070.69 619.903 1070.19 618.881C1069.69 617.858 1068.9 617.057 1067.82 616.477C1066.75 615.898 1065.34 615.608 1063.59 615.608H1056.98V646H1051.71ZM1082 646V619.818H1086.93V623.977H1087.2C1087.68 622.568 1088.52 621.46 1089.73 620.653C1090.94 619.835 1092.32 619.426 1093.85 619.426C1094.17 619.426 1094.54 619.437 1094.98 619.46C1095.42 619.483 1095.77 619.511 1096.02 619.545V624.42C1095.81 624.364 1095.45 624.301 1094.92 624.233C1094.4 624.153 1093.88 624.114 1093.36 624.114C1092.15 624.114 1091.08 624.369 1090.13 624.881C1089.2 625.381 1088.46 626.08 1087.92 626.977C1087.37 627.864 1087.1 628.875 1087.1 630.011V646H1082ZM1110.52 646.528C1108.06 646.528 1105.92 645.966 1104.09 644.841C1102.26 643.716 1100.84 642.142 1099.83 640.119C1098.82 638.097 1098.31 635.733 1098.31 633.028C1098.31 630.312 1098.82 627.937 1099.83 625.903C1100.84 623.869 1102.26 622.29 1104.09 621.165C1105.92 620.04 1108.06 619.477 1110.52 619.477C1112.97 619.477 1115.11 620.04 1116.94 621.165C1118.77 622.29 1120.19 623.869 1121.2 625.903C1122.22 627.937 1122.72 630.312 1122.72 633.028C1122.72 635.733 1122.22 638.097 1121.2 640.119C1120.19 642.142 1118.77 643.716 1116.94 644.841C1115.11 645.966 1112.97 646.528 1110.52 646.528ZM1110.53 642.25C1112.13 642.25 1113.44 641.83 1114.49 640.989C1115.53 640.148 1116.31 639.028 1116.81 637.631C1117.32 636.233 1117.57 634.693 1117.57 633.011C1117.57 631.341 1117.32 629.807 1116.81 628.409C1116.31 627 1115.53 625.869 1114.49 625.017C1113.44 624.165 1112.13 623.739 1110.53 623.739C1108.93 623.739 1107.6 624.165 1106.55 625.017C1105.5 625.869 1104.72 627 1104.21 628.409C1103.71 629.807 1103.46 631.341 1103.46 633.011C1103.46 634.693 1103.71 636.233 1104.21 637.631C1104.72 639.028 1105.5 640.148 1106.55 640.989C1107.6 641.83 1108.93 642.25 1110.53 642.25ZM1140.87 619.818V623.909H1126.08V619.818H1140.87ZM1130.13 646V616.784C1130.13 615.148 1130.49 613.79 1131.21 612.71C1131.92 611.619 1132.87 610.807 1134.05 610.273C1135.23 609.727 1136.52 609.455 1137.9 609.455C1138.93 609.455 1139.8 609.54 1140.53 609.71C1141.26 609.869 1141.8 610.017 1142.15 610.153L1140.96 614.278C1140.72 614.21 1140.41 614.131 1140.04 614.04C1139.66 613.937 1139.21 613.886 1138.67 613.886C1137.43 613.886 1136.55 614.193 1136.01 614.807C1135.49 615.42 1135.23 616.307 1135.23 617.466V646H1130.13ZM1146.13 646V619.818H1151.23V646H1146.13ZM1148.7 615.778C1147.82 615.778 1147.06 615.483 1146.42 614.892C1145.79 614.29 1145.48 613.574 1145.48 612.744C1145.48 611.903 1145.79 611.187 1146.42 610.597C1147.06 609.994 1147.82 609.693 1148.7 609.693C1149.59 609.693 1150.35 609.994 1150.97 610.597C1151.61 611.187 1151.92 611.903 1151.92 612.744C1151.92 613.574 1151.61 614.29 1150.97 614.892C1150.35 615.483 1149.59 615.778 1148.7 615.778ZM1163.18 611.091V646H1158.08V611.091H1163.18ZM1181.32 646.528C1178.74 646.528 1176.52 645.977 1174.65 644.875C1172.8 643.761 1171.37 642.199 1170.36 640.188C1169.36 638.165 1168.86 635.795 1168.86 633.08C1168.86 630.398 1169.36 628.034 1170.36 625.989C1171.37 623.943 1172.78 622.347 1174.59 621.199C1176.4 620.051 1178.53 619.477 1180.96 619.477C1182.44 619.477 1183.87 619.722 1185.26 620.21C1186.64 620.699 1187.89 621.466 1188.99 622.511C1190.09 623.557 1190.96 624.915 1191.6 626.585C1192.23 628.244 1192.55 630.261 1192.55 632.636V634.443H1171.74V630.625H1187.56C1187.56 629.284 1187.29 628.097 1186.74 627.062C1186.19 626.017 1185.43 625.193 1184.44 624.591C1183.46 623.989 1182.31 623.688 1181 623.688C1179.56 623.688 1178.31 624.04 1177.25 624.744C1176.19 625.437 1175.37 626.347 1174.79 627.472C1174.22 628.585 1173.94 629.795 1173.94 631.102V634.085C1173.94 635.835 1174.25 637.324 1174.86 638.551C1175.48 639.778 1176.35 640.716 1177.47 641.364C1178.58 642 1179.88 642.318 1181.37 642.318C1182.34 642.318 1183.22 642.182 1184.01 641.909C1184.81 641.625 1185.5 641.205 1186.08 640.648C1186.65 640.091 1187.1 639.403 1187.4 638.585L1192.23 639.455C1191.84 640.875 1191.15 642.119 1190.15 643.188C1189.16 644.244 1187.92 645.068 1186.42 645.659C1184.93 646.239 1183.23 646.528 1181.32 646.528ZM1221.07 646.494C1218.73 646.494 1216.71 646.068 1215.02 645.216C1213.34 644.364 1212.04 643.205 1211.13 641.739C1210.22 640.261 1209.77 638.591 1209.77 636.727C1209.77 635.307 1210.06 634.045 1210.65 632.943C1211.25 631.83 1212.07 630.801 1213.13 629.858C1214.18 628.915 1215.4 627.966 1216.79 627.011L1222.42 623.04C1223.37 622.415 1224.12 621.756 1224.65 621.062C1225.18 620.358 1225.45 619.489 1225.45 618.455C1225.45 617.636 1225.1 616.852 1224.39 616.102C1223.69 615.352 1222.75 614.977 1221.56 614.977C1220.75 614.977 1220.02 615.176 1219.4 615.574C1218.79 615.972 1218.3 616.483 1217.95 617.108C1217.61 617.722 1217.44 618.369 1217.44 619.051C1217.44 619.847 1217.65 620.648 1218.09 621.455C1218.53 622.261 1219.1 623.097 1219.79 623.96C1220.48 624.812 1221.21 625.699 1221.97 626.619L1238.18 646H1232.42L1219.01 630.233C1217.88 628.903 1216.84 627.653 1215.87 626.483C1214.9 625.301 1214.12 624.108 1213.52 622.903C1212.93 621.688 1212.63 620.375 1212.63 618.966C1212.63 617.364 1213 615.943 1213.72 614.705C1214.46 613.455 1215.49 612.477 1216.81 611.773C1218.13 611.068 1219.67 610.716 1221.44 610.716C1223.24 610.716 1224.78 611.068 1226.06 611.773C1227.36 612.466 1228.35 613.392 1229.05 614.551C1229.75 615.699 1230.1 616.955 1230.1 618.318C1230.1 619.977 1229.69 621.443 1228.86 622.716C1228.04 623.977 1226.91 625.136 1225.47 626.193L1218.46 631.358C1217.1 632.358 1216.15 633.347 1215.62 634.324C1215.09 635.29 1214.83 636.045 1214.83 636.591C1214.83 637.591 1215.09 638.517 1215.6 639.369C1216.12 640.222 1216.85 640.903 1217.78 641.415C1218.72 641.926 1219.83 642.182 1221.09 642.182C1222.38 642.182 1223.64 641.903 1224.87 641.347C1226.11 640.778 1227.23 639.966 1228.23 638.909C1229.24 637.852 1230.04 636.585 1230.63 635.108C1231.22 633.631 1231.52 631.977 1231.52 630.148H1236.12C1236.12 632.398 1235.87 634.301 1235.35 635.858C1234.84 637.403 1234.22 638.665 1233.5 639.642C1232.78 640.608 1232.1 641.364 1231.47 641.909C1231.26 642.091 1231.07 642.273 1230.89 642.455C1230.71 642.636 1230.51 642.818 1230.31 643C1229.13 644.193 1227.69 645.074 1226.01 645.642C1224.34 646.21 1222.69 646.494 1221.07 646.494ZM1277.74 611.091H1283.02V634.051C1283.02 636.494 1282.45 638.659 1281.3 640.545C1280.15 642.42 1278.54 643.898 1276.46 644.977C1274.38 646.045 1271.94 646.58 1269.15 646.58C1266.36 646.58 1263.93 646.045 1261.85 644.977C1259.77 643.898 1258.16 642.42 1257.01 640.545C1255.86 638.659 1255.29 636.494 1255.29 634.051V611.091H1260.56V633.625C1260.56 635.205 1260.9 636.608 1261.6 637.835C1262.3 639.062 1263.29 640.028 1264.58 640.733C1265.86 641.426 1267.38 641.773 1269.15 641.773C1270.92 641.773 1272.45 641.426 1273.73 640.733C1275.03 640.028 1276.02 639.062 1276.7 637.835C1277.39 636.608 1277.74 635.205 1277.74 633.625V611.091ZM1290.27 655.818V619.818H1295.25V624.062H1295.67C1295.97 623.517 1296.39 622.886 1296.95 622.17C1297.51 621.455 1298.28 620.83 1299.27 620.295C1300.26 619.75 1301.57 619.477 1303.19 619.477C1305.3 619.477 1307.19 620.011 1308.85 621.08C1310.51 622.148 1311.81 623.687 1312.75 625.699C1313.71 627.71 1314.18 630.131 1314.18 632.96C1314.18 635.79 1313.71 638.216 1312.77 640.239C1311.83 642.25 1310.53 643.801 1308.88 644.892C1307.24 645.972 1305.36 646.511 1303.24 646.511C1301.65 646.511 1300.35 646.244 1299.34 645.71C1298.34 645.176 1297.55 644.551 1296.99 643.835C1296.42 643.119 1295.98 642.483 1295.67 641.926H1295.37V655.818H1290.27ZM1295.26 632.909C1295.26 634.75 1295.53 636.364 1296.07 637.75C1296.6 639.136 1297.37 640.222 1298.38 641.006C1299.39 641.778 1300.63 642.165 1302.1 642.165C1303.62 642.165 1304.89 641.761 1305.92 640.955C1306.94 640.136 1307.71 639.028 1308.24 637.631C1308.77 636.233 1309.04 634.659 1309.04 632.909C1309.04 631.182 1308.78 629.631 1308.25 628.256C1307.74 626.881 1306.97 625.795 1305.93 625C1304.91 624.205 1303.63 623.807 1302.1 623.807C1300.62 623.807 1299.37 624.187 1298.35 624.949C1297.34 625.71 1296.57 626.773 1296.05 628.136C1295.53 629.5 1295.26 631.091 1295.26 632.909ZM1324.99 611.091V646H1319.89V611.091H1324.99ZM1342.88 646.528C1340.42 646.528 1338.28 645.966 1336.45 644.841C1334.62 643.716 1333.2 642.142 1332.19 640.119C1331.18 638.097 1330.67 635.733 1330.67 633.028C1330.67 630.312 1331.18 627.937 1332.19 625.903C1333.2 623.869 1334.62 622.29 1336.45 621.165C1338.28 620.04 1340.42 619.477 1342.88 619.477C1345.33 619.477 1347.47 620.04 1349.3 621.165C1351.13 622.29 1352.55 623.869 1353.56 625.903C1354.58 627.937 1355.08 630.312 1355.08 633.028C1355.08 635.733 1354.58 638.097 1353.56 640.119C1352.55 642.142 1351.13 643.716 1349.3 644.841C1347.47 645.966 1345.33 646.528 1342.88 646.528ZM1342.89 642.25C1344.48 642.25 1345.8 641.83 1346.85 640.989C1347.89 640.148 1348.67 639.028 1349.17 637.631C1349.68 636.233 1349.93 634.693 1349.93 633.011C1349.93 631.341 1349.68 629.807 1349.17 628.409C1348.67 627 1347.89 625.869 1346.85 625.017C1345.8 624.165 1344.48 623.739 1342.89 623.739C1341.29 623.739 1339.96 624.165 1338.9 625.017C1337.86 625.869 1337.08 627 1336.57 628.409C1336.07 629.807 1335.82 631.341 1335.82 633.011C1335.82 634.693 1336.07 636.233 1336.57 637.631C1337.08 639.028 1337.86 640.148 1338.9 640.989C1339.96 641.83 1341.29 642.25 1342.89 642.25ZM1368.39 646.58C1366.73 646.58 1365.23 646.273 1363.89 645.659C1362.55 645.034 1361.49 644.131 1360.7 642.949C1359.93 641.767 1359.54 640.318 1359.54 638.602C1359.54 637.125 1359.83 635.909 1360.39 634.955C1360.96 634 1361.73 633.244 1362.7 632.688C1363.66 632.131 1364.74 631.71 1365.93 631.426C1367.13 631.142 1368.34 630.926 1369.58 630.778C1371.15 630.597 1372.42 630.449 1373.4 630.335C1374.38 630.21 1375.09 630.011 1375.53 629.739C1375.97 629.466 1376.2 629.023 1376.2 628.409V628.29C1376.2 626.801 1375.78 625.648 1374.93 624.83C1374.11 624.011 1372.87 623.602 1371.22 623.602C1369.5 623.602 1368.15 623.983 1367.16 624.744C1366.18 625.494 1365.51 626.33 1365.13 627.25L1360.34 626.159C1360.91 624.568 1361.74 623.284 1362.83 622.307C1363.93 621.318 1365.2 620.602 1366.63 620.159C1368.07 619.705 1369.57 619.477 1371.15 619.477C1372.2 619.477 1373.3 619.602 1374.47 619.852C1375.66 620.091 1376.76 620.534 1377.78 621.182C1378.82 621.83 1379.66 622.756 1380.32 623.96C1380.98 625.153 1381.31 626.705 1381.31 628.614V646H1376.33V642.42H1376.13C1375.8 643.08 1375.3 643.727 1374.64 644.364C1373.99 645 1373.14 645.528 1372.11 645.949C1371.07 646.369 1369.83 646.58 1368.39 646.58ZM1369.5 642.489C1370.91 642.489 1372.11 642.21 1373.11 641.653C1374.12 641.097 1374.89 640.369 1375.41 639.472C1375.95 638.562 1376.21 637.591 1376.21 636.557V633.182C1376.03 633.364 1375.68 633.534 1375.16 633.693C1374.64 633.841 1374.06 633.972 1373.4 634.085C1372.74 634.187 1372.1 634.284 1371.47 634.375C1370.85 634.455 1370.33 634.523 1369.91 634.58C1368.92 634.705 1368.01 634.915 1367.2 635.21C1366.39 635.506 1365.74 635.932 1365.25 636.489C1364.78 637.034 1364.54 637.761 1364.54 638.67C1364.54 639.932 1365 640.886 1365.93 641.534C1366.87 642.17 1368.05 642.489 1369.5 642.489ZM1397.9 646.511C1395.79 646.511 1393.9 645.972 1392.24 644.892C1390.59 643.801 1389.3 642.25 1388.35 640.239C1387.42 638.216 1386.96 635.79 1386.96 632.96C1386.96 630.131 1387.43 627.71 1388.37 625.699C1389.33 623.687 1390.63 622.148 1392.29 621.08C1393.95 620.011 1395.83 619.477 1397.93 619.477C1399.56 619.477 1400.87 619.75 1401.85 620.295C1402.85 620.83 1403.63 621.455 1404.17 622.17C1404.73 622.886 1405.16 623.517 1405.47 624.062H1405.77V611.091H1410.87V646H1405.89V641.926H1405.47C1405.16 642.483 1404.72 643.119 1404.14 643.835C1403.57 644.551 1402.79 645.176 1401.79 645.71C1400.79 646.244 1399.49 646.511 1397.9 646.511ZM1399.02 642.165C1400.49 642.165 1401.73 641.778 1402.74 641.006C1403.76 640.222 1404.54 639.136 1405.06 637.75C1405.59 636.364 1405.86 634.75 1405.86 632.909C1405.86 631.091 1405.6 629.5 1405.08 628.136C1404.55 626.773 1403.79 625.71 1402.77 624.949C1401.76 624.187 1400.51 623.807 1399.02 623.807C1397.49 623.807 1396.21 624.205 1395.19 625C1394.17 625.795 1393.39 626.881 1392.87 628.256C1392.36 629.631 1392.1 631.182 1392.1 632.909C1392.1 634.659 1392.37 636.233 1392.89 637.631C1393.41 639.028 1394.18 640.136 1395.21 640.955C1396.24 641.761 1397.51 642.165 1399.02 642.165ZM770.648 713.818C769.886 713.818 769.193 713.756 768.568 713.631C767.943 713.517 767.477 713.392 767.17 713.256L768.398 709.08C769.33 709.33 770.159 709.438 770.886 709.403C771.614 709.369 772.256 709.097 772.812 708.585C773.381 708.074 773.881 707.239 774.312 706.08L774.943 704.341L765.364 677.818H770.818L777.449 698.136H777.722L784.352 677.818H789.824L779.034 707.494C778.534 708.858 777.898 710.011 777.125 710.955C776.352 711.909 775.432 712.625 774.364 713.102C773.295 713.58 772.057 713.818 770.648 713.818ZM804.751 704.528C802.297 704.528 800.155 703.966 798.325 702.841C796.496 701.716 795.075 700.142 794.064 698.119C793.053 696.097 792.547 693.733 792.547 691.028C792.547 688.312 793.053 685.937 794.064 683.903C795.075 681.869 796.496 680.29 798.325 679.165C800.155 678.04 802.297 677.477 804.751 677.477C807.206 677.477 809.348 678.04 811.178 679.165C813.007 680.29 814.428 681.869 815.439 683.903C816.45 685.937 816.956 688.312 816.956 691.028C816.956 693.733 816.45 696.097 815.439 698.119C814.428 700.142 813.007 701.716 811.178 702.841C809.348 703.966 807.206 704.528 804.751 704.528ZM804.768 700.25C806.359 700.25 807.678 699.83 808.723 698.989C809.768 698.148 810.541 697.028 811.041 695.631C811.553 694.233 811.808 692.693 811.808 691.011C811.808 689.341 811.553 687.807 811.041 686.409C810.541 685 809.768 683.869 808.723 683.017C807.678 682.165 806.359 681.739 804.768 681.739C803.166 681.739 801.837 682.165 800.78 683.017C799.734 683.869 798.956 685 798.445 686.409C797.945 687.807 797.695 689.341 797.695 691.011C797.695 692.693 797.945 694.233 798.445 695.631C798.956 697.028 799.734 698.148 800.78 698.989C801.837 699.83 803.166 700.25 804.768 700.25ZM839.23 693.142V677.818H844.344V704H839.332V699.466H839.06C838.457 700.864 837.491 702.028 836.162 702.96C834.844 703.881 833.202 704.341 831.236 704.341C829.554 704.341 828.065 703.972 826.77 703.233C825.486 702.483 824.474 701.375 823.736 699.909C823.009 698.443 822.645 696.631 822.645 694.472V677.818H827.741V693.858C827.741 695.642 828.236 697.062 829.224 698.119C830.213 699.176 831.497 699.705 833.077 699.705C834.031 699.705 834.98 699.466 835.923 698.989C836.878 698.511 837.668 697.79 838.293 696.824C838.929 695.858 839.241 694.631 839.23 693.142ZM851.192 704V677.818H856.118V681.977H856.391C856.868 680.568 857.709 679.46 858.913 678.653C860.129 677.835 861.504 677.426 863.038 677.426C863.357 677.426 863.732 677.437 864.163 677.46C864.607 677.483 864.953 677.511 865.203 677.545V682.42C864.999 682.364 864.635 682.301 864.112 682.233C863.589 682.153 863.067 682.114 862.544 682.114C861.339 682.114 860.266 682.369 859.322 682.881C858.391 683.381 857.652 684.08 857.107 684.977C856.561 685.864 856.288 686.875 856.288 688.011V704H851.192ZM911.72 680.443H906.402C906.197 679.307 905.817 678.307 905.26 677.443C904.703 676.58 904.021 675.847 903.214 675.244C902.408 674.642 901.504 674.187 900.504 673.881C899.516 673.574 898.464 673.42 897.351 673.42C895.339 673.42 893.538 673.926 891.947 674.938C890.368 675.949 889.118 677.432 888.197 679.386C887.288 681.341 886.834 683.727 886.834 686.545C886.834 689.386 887.288 691.784 888.197 693.739C889.118 695.693 890.374 697.17 891.964 698.17C893.555 699.17 895.345 699.67 897.334 699.67C898.436 699.67 899.482 699.523 900.47 699.227C901.47 698.92 902.374 698.472 903.18 697.881C903.987 697.29 904.669 696.568 905.226 695.716C905.794 694.852 906.186 693.864 906.402 692.75L911.72 692.767C911.436 694.483 910.885 696.062 910.067 697.506C909.26 698.938 908.22 700.176 906.947 701.222C905.686 702.256 904.243 703.057 902.618 703.625C900.993 704.193 899.22 704.477 897.3 704.477C894.277 704.477 891.584 703.761 889.22 702.33C886.857 700.886 884.993 698.824 883.629 696.142C882.277 693.46 881.601 690.261 881.601 686.545C881.601 682.818 882.283 679.619 883.646 676.949C885.01 674.267 886.874 672.21 889.237 670.778C891.601 669.335 894.288 668.614 897.3 668.614C899.152 668.614 900.879 668.881 902.482 669.415C904.095 669.937 905.544 670.71 906.828 671.733C908.112 672.744 909.175 673.983 910.016 675.449C910.857 676.903 911.425 678.568 911.72 680.443ZM928.642 704.528C926.188 704.528 924.045 703.966 922.216 702.841C920.386 701.716 918.966 700.142 917.955 698.119C916.943 696.097 916.438 693.733 916.438 691.028C916.438 688.312 916.943 685.937 917.955 683.903C918.966 681.869 920.386 680.29 922.216 679.165C924.045 678.04 926.188 677.477 928.642 677.477C931.097 677.477 933.239 678.04 935.068 679.165C936.898 680.29 938.318 681.869 939.33 683.903C940.341 685.937 940.847 688.312 940.847 691.028C940.847 693.733 940.341 696.097 939.33 698.119C938.318 700.142 936.898 701.716 935.068 702.841C933.239 703.966 931.097 704.528 928.642 704.528ZM928.659 700.25C930.25 700.25 931.568 699.83 932.614 698.989C933.659 698.148 934.432 697.028 934.932 695.631C935.443 694.233 935.699 692.693 935.699 691.011C935.699 689.341 935.443 687.807 934.932 686.409C934.432 685 933.659 683.869 932.614 683.017C931.568 682.165 930.25 681.739 928.659 681.739C927.057 681.739 925.727 682.165 924.67 683.017C923.625 683.869 922.847 685 922.335 686.409C921.835 687.807 921.585 689.341 921.585 691.011C921.585 692.693 921.835 694.233 922.335 695.631C922.847 697.028 923.625 698.148 924.67 698.989C925.727 699.83 927.057 700.25 928.659 700.25ZM951.632 688.455V704H946.536V677.818H951.428V682.08H951.751C952.354 680.693 953.297 679.58 954.581 678.739C955.876 677.898 957.507 677.477 959.473 677.477C961.257 677.477 962.82 677.852 964.161 678.602C965.501 679.341 966.541 680.443 967.28 681.909C968.018 683.375 968.388 685.187 968.388 687.347V704H963.291V687.96C963.291 686.062 962.797 684.58 961.808 683.511C960.82 682.432 959.462 681.892 957.734 681.892C956.553 681.892 955.501 682.148 954.581 682.659C953.672 683.17 952.95 683.92 952.416 684.909C951.893 685.886 951.632 687.068 951.632 688.455ZM987.445 677.818V681.909H973.143V677.818H987.445ZM976.979 671.545H982.075V696.312C982.075 697.301 982.223 698.045 982.518 698.545C982.814 699.034 983.195 699.369 983.661 699.551C984.138 699.722 984.655 699.807 985.212 699.807C985.621 699.807 985.979 699.778 986.286 699.722C986.592 699.665 986.831 699.619 987.001 699.585L987.922 703.795C987.626 703.909 987.206 704.023 986.661 704.136C986.115 704.261 985.433 704.33 984.615 704.341C983.274 704.364 982.024 704.125 980.865 703.625C979.706 703.125 978.768 702.352 978.053 701.307C977.337 700.261 976.979 698.949 976.979 697.369V671.545ZM1004.09 704.528C1001.51 704.528 999.284 703.977 997.42 702.875C995.568 701.761 994.136 700.199 993.125 698.188C992.125 696.165 991.625 693.795 991.625 691.08C991.625 688.398 992.125 686.034 993.125 683.989C994.136 681.943 995.545 680.347 997.352 679.199C999.17 678.051 1001.3 677.477 1003.73 677.477C1005.2 677.477 1006.64 677.722 1008.02 678.21C1009.41 678.699 1010.65 679.466 1011.76 680.511C1012.86 681.557 1013.73 682.915 1014.36 684.585C1015 686.244 1015.32 688.261 1015.32 690.636V692.443H994.506V688.625H1010.32C1010.32 687.284 1010.05 686.097 1009.51 685.062C1008.96 684.017 1008.19 683.193 1007.2 682.591C1006.23 681.989 1005.08 681.688 1003.76 681.688C1002.33 681.688 1001.08 682.04 1000.01 682.744C998.955 683.437 998.136 684.347 997.557 685.472C996.989 686.585 996.705 687.795 996.705 689.102V692.085C996.705 693.835 997.011 695.324 997.625 696.551C998.25 697.778 999.119 698.716 1000.23 699.364C1001.35 700 1002.65 700.318 1004.14 700.318C1005.1 700.318 1005.98 700.182 1006.78 699.909C1007.57 699.625 1008.26 699.205 1008.84 698.648C1009.42 698.091 1009.86 697.403 1010.17 696.585L1014.99 697.455C1014.61 698.875 1013.91 700.119 1012.91 701.188C1011.93 702.244 1010.68 703.068 1009.18 703.659C1007.69 704.239 1005.99 704.528 1004.09 704.528ZM1026.07 688.455V704H1020.97V677.818H1025.87V682.08H1026.19C1026.79 680.693 1027.73 679.58 1029.02 678.739C1030.31 677.898 1031.94 677.477 1033.91 677.477C1035.69 677.477 1037.26 677.852 1038.6 678.602C1039.94 679.341 1040.98 680.443 1041.72 681.909C1042.46 683.375 1042.83 685.187 1042.83 687.347V704H1037.73V687.96C1037.73 686.062 1037.23 684.58 1036.25 683.511C1035.26 682.432 1033.9 681.892 1032.17 681.892C1030.99 681.892 1029.94 682.148 1029.02 682.659C1028.11 683.17 1027.39 683.92 1026.85 684.909C1026.33 685.886 1026.07 687.068 1026.07 688.455ZM1061.88 677.818V681.909H1047.58V677.818H1061.88ZM1051.42 671.545H1056.51V696.312C1056.51 697.301 1056.66 698.045 1056.96 698.545C1057.25 699.034 1057.63 699.369 1058.1 699.551C1058.58 699.722 1059.09 699.807 1059.65 699.807C1060.06 699.807 1060.42 699.778 1060.72 699.722C1061.03 699.665 1061.27 699.619 1061.44 699.585L1062.36 703.795C1062.06 703.909 1061.64 704.023 1061.1 704.136C1060.55 704.261 1059.87 704.33 1059.05 704.341C1057.71 704.364 1056.46 704.125 1055.3 703.625C1054.14 703.125 1053.21 702.352 1052.49 701.307C1051.77 700.261 1051.42 698.949 1051.42 697.369V671.545ZM1086.72 684.21L1082.1 685.028C1081.9 684.437 1081.6 683.875 1081.18 683.341C1080.77 682.807 1080.21 682.369 1079.51 682.028C1078.8 681.687 1077.92 681.517 1076.87 681.517C1075.42 681.517 1074.22 681.841 1073.25 682.489C1072.29 683.125 1071.8 683.949 1071.8 684.96C1071.8 685.835 1072.13 686.54 1072.77 687.074C1073.42 687.608 1074.47 688.045 1075.91 688.386L1080.07 689.341C1082.48 689.898 1084.27 690.756 1085.46 691.915C1086.64 693.074 1087.23 694.58 1087.23 696.432C1087.23 698 1086.77 699.398 1085.87 700.625C1084.97 701.841 1083.71 702.795 1082.1 703.489C1080.5 704.182 1078.64 704.528 1076.52 704.528C1073.59 704.528 1071.2 703.903 1069.35 702.653C1067.5 701.392 1066.36 699.602 1065.94 697.284L1070.87 696.534C1071.17 697.818 1071.8 698.79 1072.76 699.449C1073.71 700.097 1074.96 700.42 1076.49 700.42C1078.16 700.42 1079.5 700.074 1080.5 699.381C1081.5 698.676 1082 697.818 1082 696.807C1082 695.989 1081.69 695.301 1081.08 694.744C1080.47 694.187 1079.55 693.767 1078.3 693.483L1073.87 692.511C1071.42 691.955 1069.62 691.068 1068.44 689.852C1067.29 688.636 1066.71 687.097 1066.71 685.233C1066.71 683.687 1067.14 682.335 1068 681.176C1068.87 680.017 1070.06 679.114 1071.58 678.466C1073.1 677.807 1074.85 677.477 1076.81 677.477C1079.64 677.477 1081.87 678.091 1083.5 679.318C1085.12 680.534 1086.19 682.165 1086.72 684.21Z" fill="black"/>
<path d="M746.875 54.2614C746.693 52.6477 745.943 51.3977 744.625 50.5114C743.307 49.6136 741.648 49.1648 739.648 49.1648C738.216 49.1648 736.977 49.392 735.932 49.8466C734.886 50.2898 734.074 50.9034 733.494 51.6875C732.926 52.4602 732.642 53.3409 732.642 54.3295C732.642 55.1591 732.835 55.875 733.222 56.4773C733.619 57.0795 734.136 57.5852 734.773 57.9943C735.42 58.392 736.114 58.7273 736.852 59C737.591 59.2614 738.301 59.4773 738.983 59.6477L742.392 60.5341C743.506 60.8068 744.648 61.1761 745.818 61.642C746.989 62.108 748.074 62.7216 749.074 63.483C750.074 64.2443 750.881 65.1875 751.494 66.3125C752.119 67.4375 752.432 68.7841 752.432 70.3523C752.432 72.3295 751.92 74.0852 750.898 75.6193C749.886 77.1534 748.415 78.3636 746.483 79.25C744.563 80.1364 742.239 80.5795 739.511 80.5795C736.898 80.5795 734.636 80.1648 732.727 79.3352C730.818 78.5057 729.324 77.3295 728.244 75.8068C727.165 74.2727 726.568 72.4545 726.455 70.3523H731.739C731.841 71.6136 732.25 72.6648 732.966 73.5057C733.693 74.3352 734.619 74.9545 735.744 75.3636C736.881 75.7614 738.125 75.9602 739.477 75.9602C740.966 75.9602 742.29 75.7273 743.449 75.2614C744.619 74.7841 745.54 74.125 746.21 73.2841C746.881 72.4318 747.216 71.4375 747.216 70.3011C747.216 69.267 746.92 68.4205 746.33 67.7614C745.75 67.1023 744.96 66.5568 743.96 66.125C742.972 65.6932 741.852 65.3125 740.602 64.983L736.477 63.858C733.682 63.0966 731.466 61.9773 729.83 60.5C728.205 59.0227 727.392 57.0682 727.392 54.6364C727.392 52.625 727.938 50.8693 729.028 49.3693C730.119 47.8693 731.597 46.7045 733.46 45.875C735.324 45.0341 737.426 44.6136 739.767 44.6136C742.131 44.6136 744.216 45.0284 746.023 45.858C747.841 46.6875 749.273 47.8295 750.318 49.2841C751.364 50.7273 751.909 52.3864 751.955 54.2614H746.875ZM758.317 80V53.8182H763.413V80H758.317ZM760.891 49.7784C760.004 49.7784 759.243 49.483 758.607 48.892C757.982 48.2898 757.669 47.5739 757.669 46.7443C757.669 45.9034 757.982 45.1875 758.607 44.5966C759.243 43.9943 760.004 43.6932 760.891 43.6932C761.777 43.6932 762.533 43.9943 763.158 44.5966C763.794 45.1875 764.112 45.9034 764.112 46.7443C764.112 47.5739 763.794 48.2898 763.158 48.892C762.533 49.483 761.777 49.7784 760.891 49.7784ZM781.247 90.3636C779.168 90.3636 777.378 90.0909 775.878 89.5455C774.389 89 773.173 88.2784 772.23 87.3807C771.287 86.483 770.582 85.5 770.116 84.4318L774.497 82.625C774.804 83.125 775.213 83.6534 775.724 84.2102C776.247 84.7784 776.952 85.2614 777.838 85.6591C778.736 86.0568 779.889 86.2557 781.298 86.2557C783.23 86.2557 784.827 85.7841 786.088 84.8409C787.349 83.9091 787.98 82.4205 787.98 80.375V75.2273H787.656C787.349 75.7841 786.906 76.4034 786.327 77.0852C785.759 77.767 784.974 78.358 783.974 78.858C782.974 79.358 781.673 79.608 780.071 79.608C778.003 79.608 776.139 79.125 774.48 78.1591C772.832 77.1818 771.526 75.7443 770.56 73.8466C769.605 71.9375 769.128 69.5909 769.128 66.8068C769.128 64.0227 769.599 61.6364 770.543 59.6477C771.497 57.6591 772.804 56.1364 774.463 55.0795C776.122 54.0114 778.003 53.4773 780.105 53.4773C781.73 53.4773 783.043 53.75 784.043 54.2955C785.043 54.8295 785.821 55.4545 786.378 56.1705C786.946 56.8864 787.384 57.517 787.69 58.0625H788.065V53.8182H793.06V80.5795C793.06 82.8295 792.537 84.6761 791.491 86.1193C790.446 87.5625 789.031 88.6307 787.247 89.3239C785.474 90.017 783.474 90.3636 781.247 90.3636ZM781.196 75.3807C782.662 75.3807 783.901 75.0398 784.912 74.358C785.935 73.6648 786.707 72.6761 787.23 71.392C787.764 70.0966 788.031 68.5455 788.031 66.7386C788.031 64.9773 787.77 63.4261 787.247 62.0852C786.724 60.7443 785.957 59.6989 784.946 58.9489C783.935 58.1875 782.685 57.8068 781.196 57.8068C779.662 57.8068 778.384 58.2045 777.361 59C776.338 59.7841 775.565 60.8523 775.043 62.2045C774.531 63.5568 774.276 65.0682 774.276 66.7386C774.276 68.4545 774.537 69.9602 775.06 71.2557C775.582 72.5511 776.355 73.5625 777.378 74.2898C778.412 75.017 779.685 75.3807 781.196 75.3807ZM804.991 64.4545V80H799.895V53.8182H804.787V58.0795H805.111C805.713 56.6932 806.656 55.5795 807.94 54.7386C809.236 53.8977 810.866 53.4773 812.832 53.4773C814.616 53.4773 816.179 53.8523 817.52 54.6023C818.861 55.3409 819.901 56.4432 820.639 57.9091C821.378 59.375 821.747 61.1875 821.747 63.3466V80H816.651V63.9602C816.651 62.0625 816.156 60.5795 815.168 59.5114C814.179 58.4318 812.821 57.892 811.094 57.892C809.912 57.892 808.861 58.1477 807.94 58.6591C807.031 59.1705 806.31 59.9205 805.776 60.9091C805.253 61.8864 804.991 63.0682 804.991 64.4545ZM864.143 45.0909H869.428V68.0511C869.428 70.4943 868.854 72.6591 867.706 74.5455C866.558 76.4205 864.945 77.8977 862.865 78.9773C860.786 80.0455 858.348 80.5795 855.553 80.5795C852.768 80.5795 850.337 80.0455 848.257 78.9773C846.178 77.8977 844.564 76.4205 843.416 74.5455C842.268 72.6591 841.695 70.4943 841.695 68.0511V45.0909H846.962V67.625C846.962 69.2045 847.308 70.608 848.001 71.8352C848.706 73.0625 849.7 74.0284 850.984 74.733C852.268 75.4261 853.791 75.7727 855.553 75.7727C857.325 75.7727 858.854 75.4261 860.138 74.733C861.433 74.0284 862.422 73.0625 863.104 71.8352C863.797 70.608 864.143 69.2045 864.143 67.625V45.0909ZM876.676 89.8182V53.8182H881.653V58.0625H882.08C882.375 57.517 882.801 56.8864 883.358 56.1705C883.915 55.4545 884.688 54.8295 885.676 54.2955C886.665 53.75 887.972 53.4773 889.597 53.4773C891.71 53.4773 893.597 54.0114 895.256 55.0795C896.915 56.1477 898.216 57.6875 899.159 59.6989C900.114 61.7102 900.591 64.1307 900.591 66.9602C900.591 69.7898 900.119 72.2159 899.176 74.2386C898.233 76.25 896.938 77.8011 895.29 78.892C893.642 79.9716 891.761 80.5114 889.648 80.5114C888.057 80.5114 886.756 80.2443 885.744 79.7102C884.744 79.1761 883.96 78.5511 883.392 77.8352C882.824 77.1193 882.386 76.483 882.08 75.9261H881.773V89.8182H876.676ZM881.67 66.9091C881.67 68.75 881.938 70.3636 882.472 71.75C883.006 73.1364 883.778 74.2216 884.79 75.0057C885.801 75.7784 887.04 76.1648 888.506 76.1648C890.028 76.1648 891.301 75.7614 892.324 74.9545C893.347 74.1364 894.119 73.0284 894.642 71.6307C895.176 70.233 895.443 68.6591 895.443 66.9091C895.443 65.1818 895.182 63.6307 894.659 62.2557C894.148 60.8807 893.375 59.7955 892.341 59C891.318 58.2045 890.04 57.8068 888.506 57.8068C887.028 57.8068 885.778 58.1875 884.756 58.9489C883.744 59.7102 882.977 60.7727 882.455 62.1364C881.932 63.5 881.67 65.0909 881.67 66.9091ZM922.226 89.8182C921.464 89.8182 920.771 89.7557 920.146 89.6307C919.521 89.517 919.055 89.392 918.749 89.2557L919.976 85.0795C920.908 85.3295 921.737 85.4375 922.464 85.4034C923.192 85.3693 923.834 85.0966 924.391 84.5852C924.959 84.0739 925.459 83.2386 925.891 82.0795L926.521 80.3409L916.942 53.8182H922.396L929.027 74.1364H929.3L935.93 53.8182H941.402L930.612 83.4943C930.112 84.858 929.476 86.0114 928.703 86.9545C927.93 87.9091 927.01 88.625 925.942 89.1023C924.874 89.5795 923.635 89.8182 922.226 89.8182ZM956.33 80.5284C953.875 80.5284 951.733 79.9659 949.903 78.8409C948.074 77.7159 946.653 76.142 945.642 74.1193C944.631 72.0966 944.125 69.733 944.125 67.0284C944.125 64.3125 944.631 61.9375 945.642 59.9034C946.653 57.8693 948.074 56.2898 949.903 55.1648C951.733 54.0398 953.875 53.4773 956.33 53.4773C958.784 53.4773 960.926 54.0398 962.756 55.1648C964.585 56.2898 966.006 57.8693 967.017 59.9034C968.028 61.9375 968.534 64.3125 968.534 67.0284C968.534 69.733 968.028 72.0966 967.017 74.1193C966.006 76.142 964.585 77.7159 962.756 78.8409C960.926 79.9659 958.784 80.5284 956.33 80.5284ZM956.347 76.25C957.938 76.25 959.256 75.8295 960.301 74.9886C961.347 74.1477 962.119 73.0284 962.619 71.6307C963.131 70.233 963.386 68.6932 963.386 67.0114C963.386 65.3409 963.131 63.8068 962.619 62.4091C962.119 61 961.347 59.8693 960.301 59.017C959.256 58.1648 957.938 57.7386 956.347 57.7386C954.744 57.7386 953.415 58.1648 952.358 59.017C951.313 59.8693 950.534 61 950.023 62.4091C949.523 63.8068 949.273 65.3409 949.273 67.0114C949.273 68.6932 949.523 70.233 950.023 71.6307C950.534 73.0284 951.313 74.1477 952.358 74.9886C953.415 75.8295 954.744 76.25 956.347 76.25ZM990.808 69.142V53.8182H995.922V80H990.911V75.4659H990.638C990.036 76.8636 989.07 78.0284 987.74 78.9602C986.422 79.8807 984.78 80.3409 982.814 80.3409C981.132 80.3409 979.643 79.9716 978.348 79.233C977.064 78.483 976.053 77.375 975.314 75.9091C974.587 74.4432 974.223 72.6307 974.223 70.4716V53.8182H979.32V69.858C979.32 71.642 979.814 73.0625 980.803 74.1193C981.791 75.1761 983.075 75.7045 984.655 75.7045C985.609 75.7045 986.558 75.4659 987.501 74.9886C988.456 74.5114 989.246 73.7898 989.871 72.8239C990.507 71.858 990.82 70.6307 990.808 69.142ZM1002.77 80V53.8182H1007.7V57.9773H1007.97C1008.45 56.5682 1009.29 55.4602 1010.49 54.6534C1011.71 53.8352 1013.08 53.4261 1014.62 53.4261C1014.93 53.4261 1015.31 53.4375 1015.74 53.4602C1016.18 53.483 1016.53 53.5114 1016.78 53.5455V58.4205C1016.58 58.3636 1016.21 58.3011 1015.69 58.233C1015.17 58.1534 1014.64 58.1136 1014.12 58.1136C1012.92 58.1136 1011.84 58.3693 1010.9 58.8807C1009.97 59.3807 1009.23 60.0795 1008.68 60.9773C1008.14 61.8636 1007.87 62.875 1007.87 64.0114V80H1002.77ZM1034.3 80V45.0909H1047.09C1049.57 45.0909 1051.62 45.5 1053.24 46.3182C1054.87 47.125 1056.08 48.2216 1056.89 49.608C1057.7 50.983 1058.1 52.5341 1058.1 54.2614C1058.1 55.7159 1057.83 56.9432 1057.3 57.9432C1056.76 58.9318 1056.05 59.7273 1055.15 60.3295C1054.26 60.9205 1053.29 61.3523 1052.22 61.625V61.9659C1053.38 62.0227 1054.51 62.3977 1055.61 63.0909C1056.72 63.7727 1057.64 64.7443 1058.37 66.0057C1059.1 67.267 1059.46 68.8011 1059.46 70.608C1059.46 72.392 1059.04 73.9943 1058.2 75.4148C1057.37 76.8239 1056.09 77.9432 1054.35 78.7727C1052.61 79.5909 1050.39 80 1047.68 80H1034.3ZM1039.57 75.483H1047.17C1049.7 75.483 1051.5 74.9943 1052.59 74.017C1053.68 73.0398 1054.23 71.8182 1054.23 70.3523C1054.23 69.25 1053.95 68.2386 1053.39 67.3182C1052.84 66.3977 1052.04 65.6648 1051.01 65.1193C1049.99 64.5739 1048.77 64.3011 1047.36 64.3011H1039.57V75.483ZM1039.57 60.1932H1046.63C1047.81 60.1932 1048.87 59.9659 1049.82 59.5114C1050.77 59.0568 1051.53 58.4205 1052.08 57.6023C1052.65 56.7727 1052.93 55.7955 1052.93 54.6705C1052.93 53.2273 1052.43 52.017 1051.42 51.0398C1050.41 50.0625 1048.86 49.5739 1046.76 49.5739H1039.57V60.1932ZM1081.89 69.142V53.8182H1087V80H1081.99V75.4659H1081.72C1081.11 76.8636 1080.15 78.0284 1078.82 78.9602C1077.5 79.8807 1075.86 80.3409 1073.89 80.3409C1072.21 80.3409 1070.72 79.9716 1069.43 79.233C1068.14 78.483 1067.13 77.375 1066.39 75.9091C1065.66 74.4432 1065.3 72.6307 1065.3 70.4716V53.8182H1070.4V69.858C1070.4 71.642 1070.89 73.0625 1071.88 74.1193C1072.87 75.1761 1074.15 75.7045 1075.73 75.7045C1076.69 75.7045 1077.64 75.4659 1078.58 74.9886C1079.53 74.5114 1080.32 73.7898 1080.95 72.8239C1081.59 71.858 1081.9 70.6307 1081.89 69.142ZM1113.47 60.2102L1108.85 61.0284C1108.65 60.4375 1108.35 59.875 1107.93 59.3409C1107.52 58.8068 1106.96 58.3693 1106.26 58.0284C1105.55 57.6875 1104.67 57.517 1103.62 57.517C1102.17 57.517 1100.97 57.8409 1100 58.4886C1099.04 59.125 1098.55 59.9489 1098.55 60.9602C1098.55 61.8352 1098.88 62.5398 1099.52 63.0739C1100.17 63.608 1101.22 64.0455 1102.66 64.3864L1106.82 65.3409C1109.23 65.8977 1111.02 66.7557 1112.21 67.9148C1113.39 69.0739 1113.98 70.5795 1113.98 72.4318C1113.98 74 1113.52 75.3977 1112.62 76.625C1111.72 77.8409 1110.46 78.7955 1108.85 79.4886C1107.25 80.1818 1105.39 80.5284 1103.27 80.5284C1100.34 80.5284 1097.95 79.9034 1096.1 78.6534C1094.25 77.392 1093.11 75.6023 1092.69 73.2841L1097.62 72.5341C1097.92 73.8182 1098.55 74.7898 1099.51 75.4489C1100.46 76.0966 1101.71 76.4205 1103.24 76.4205C1104.91 76.4205 1106.25 76.0739 1107.25 75.3807C1108.25 74.6761 1108.75 73.8182 1108.75 72.8068C1108.75 71.9886 1108.44 71.3011 1107.83 70.7443C1107.22 70.1875 1106.3 69.767 1105.05 69.483L1100.62 68.5114C1098.17 67.9545 1096.37 67.0682 1095.19 65.8523C1094.04 64.6364 1093.46 63.0966 1093.46 61.233C1093.46 59.6875 1093.89 58.3352 1094.75 57.1761C1095.62 56.017 1096.81 55.1136 1098.33 54.4659C1099.85 53.8068 1101.6 53.4773 1103.56 53.4773C1106.39 53.4773 1108.62 54.0909 1110.25 55.3182C1111.87 56.5341 1112.94 58.1648 1113.47 60.2102ZM1119.58 80V53.8182H1124.68V80H1119.58ZM1122.16 49.7784C1121.27 49.7784 1120.51 49.483 1119.87 48.892C1119.25 48.2898 1118.93 47.5739 1118.93 46.7443C1118.93 45.9034 1119.25 45.1875 1119.87 44.5966C1120.51 43.9943 1121.27 43.6932 1122.16 43.6932C1123.04 43.6932 1123.8 43.9943 1124.42 44.5966C1125.06 45.1875 1125.38 45.9034 1125.38 46.7443C1125.38 47.5739 1125.06 48.2898 1124.42 48.892C1123.8 49.483 1123.04 49.7784 1122.16 49.7784ZM1136.63 64.4545V80H1131.54V53.8182H1136.43V58.0795H1136.75C1137.35 56.6932 1138.3 55.5795 1139.58 54.7386C1140.88 53.8977 1142.51 53.4773 1144.47 53.4773C1146.26 53.4773 1147.82 53.8523 1149.16 54.6023C1150.5 55.3409 1151.54 56.4432 1152.28 57.9091C1153.02 59.375 1153.39 61.1875 1153.39 63.3466V80H1148.29V63.9602C1148.29 62.0625 1147.8 60.5795 1146.81 59.5114C1145.82 58.4318 1144.46 57.892 1142.73 57.892C1141.55 57.892 1140.5 58.1477 1139.58 58.6591C1138.67 59.1705 1137.95 59.9205 1137.42 60.9091C1136.89 61.8864 1136.63 63.0682 1136.63 64.4545ZM1171.51 80.5284C1168.93 80.5284 1166.71 79.9773 1164.84 78.875C1162.99 77.7614 1161.56 76.1989 1160.55 74.1875C1159.55 72.1648 1159.05 69.7955 1159.05 67.0795C1159.05 64.3977 1159.55 62.0341 1160.55 59.9886C1161.56 57.9432 1162.97 56.3466 1164.77 55.1989C1166.59 54.0511 1168.72 53.4773 1171.15 53.4773C1172.63 53.4773 1174.06 53.7216 1175.44 54.2102C1176.83 54.6989 1178.08 55.4659 1179.18 56.5114C1180.28 57.5568 1181.15 58.9148 1181.79 60.5852C1182.42 62.2443 1182.74 64.2614 1182.74 66.6364V68.4432H1161.93V64.625H1177.75C1177.75 63.2841 1177.47 62.0966 1176.93 61.0625C1176.38 60.017 1175.62 59.1932 1174.63 58.5909C1173.65 57.9886 1172.5 57.6875 1171.18 57.6875C1169.75 57.6875 1168.5 58.0398 1167.43 58.7443C1166.38 59.4375 1165.56 60.3466 1164.98 61.4716C1164.41 62.5852 1164.13 63.7955 1164.13 65.1023V68.0852C1164.13 69.8352 1164.43 71.3239 1165.05 72.5511C1165.67 73.7784 1166.54 74.7159 1167.65 75.3636C1168.77 76 1170.07 76.3182 1171.56 76.3182C1172.52 76.3182 1173.4 76.1818 1174.2 75.9091C1175 75.625 1175.68 75.2045 1176.26 74.6477C1176.84 74.0909 1177.29 73.4034 1177.59 72.5852L1182.42 73.4545C1182.03 74.875 1181.34 76.1193 1180.34 77.1875C1179.35 78.2443 1178.1 79.0682 1176.6 79.6591C1175.12 80.2386 1173.42 80.5284 1171.51 80.5284ZM1208.01 60.2102L1203.39 61.0284C1203.2 60.4375 1202.89 59.875 1202.47 59.3409C1202.07 58.8068 1201.51 58.3693 1200.8 58.0284C1200.1 57.6875 1199.22 57.517 1198.16 57.517C1196.72 57.517 1195.51 57.8409 1194.55 58.4886C1193.58 59.125 1193.1 59.9489 1193.1 60.9602C1193.1 61.8352 1193.42 62.5398 1194.07 63.0739C1194.72 63.608 1195.76 64.0455 1197.21 64.3864L1201.37 65.3409C1203.78 65.8977 1205.57 66.7557 1206.75 67.9148C1207.93 69.0739 1208.53 70.5795 1208.53 72.4318C1208.53 74 1208.07 75.3977 1207.16 76.625C1206.26 77.8409 1205.01 78.7955 1203.39 79.4886C1201.79 80.1818 1199.93 80.5284 1197.82 80.5284C1194.89 80.5284 1192.5 79.9034 1190.64 78.6534C1188.79 77.392 1187.66 75.6023 1187.24 73.2841L1192.16 72.5341C1192.47 73.8182 1193.1 74.7898 1194.05 75.4489C1195.01 76.0966 1196.25 76.4205 1197.79 76.4205C1199.46 76.4205 1200.79 76.0739 1201.79 75.3807C1202.79 74.6761 1203.29 73.8182 1203.29 72.8068C1203.29 71.9886 1202.99 71.3011 1202.37 70.7443C1201.77 70.1875 1200.84 69.767 1199.59 69.483L1195.16 68.5114C1192.72 67.9545 1190.91 67.0682 1189.74 65.8523C1188.58 64.6364 1188 63.0966 1188 61.233C1188 59.6875 1188.43 58.3352 1189.3 57.1761C1190.16 56.017 1191.36 55.1136 1192.88 54.4659C1194.4 53.8068 1196.14 53.4773 1198.11 53.4773C1200.94 53.4773 1203.17 54.0909 1204.79 55.3182C1206.42 56.5341 1207.49 58.1648 1208.01 60.2102ZM1233.75 60.2102L1229.13 61.0284C1228.94 60.4375 1228.63 59.875 1228.21 59.3409C1227.8 58.8068 1227.24 58.3693 1226.54 58.0284C1225.83 57.6875 1224.95 57.517 1223.9 57.517C1222.45 57.517 1221.25 57.8409 1220.28 58.4886C1219.32 59.125 1218.83 59.9489 1218.83 60.9602C1218.83 61.8352 1219.16 62.5398 1219.81 63.0739C1220.45 63.608 1221.5 64.0455 1222.94 64.3864L1227.1 65.3409C1229.51 65.8977 1231.31 66.7557 1232.49 67.9148C1233.67 69.0739 1234.26 70.5795 1234.26 72.4318C1234.26 74 1233.81 75.3977 1232.9 76.625C1232 77.8409 1230.74 78.7955 1229.13 79.4886C1227.53 80.1818 1225.67 80.5284 1223.56 80.5284C1220.62 80.5284 1218.23 79.9034 1216.38 78.6534C1214.53 77.392 1213.39 75.6023 1212.97 73.2841L1217.9 72.5341C1218.2 73.8182 1218.83 74.7898 1219.79 75.4489C1220.74 76.0966 1221.99 76.4205 1223.52 76.4205C1225.19 76.4205 1226.53 76.0739 1227.53 75.3807C1228.53 74.6761 1229.03 73.8182 1229.03 72.8068C1229.03 71.9886 1228.72 71.3011 1228.11 70.7443C1227.5 70.1875 1226.58 69.767 1225.33 69.483L1220.9 68.5114C1218.45 67.9545 1216.65 67.0682 1215.48 65.8523C1214.32 64.6364 1213.74 63.0966 1213.74 61.233C1213.74 59.6875 1214.17 58.3352 1215.03 57.1761C1215.9 56.017 1217.09 55.1136 1218.61 54.4659C1220.13 53.8068 1221.88 53.4773 1223.85 53.4773C1226.67 53.4773 1228.9 54.0909 1230.53 55.3182C1232.15 56.5341 1233.23 58.1648 1233.75 60.2102Z" fill="black"/>
<path d="M348.46 349.119C348.131 348.085 347.688 347.159 347.131 346.341C346.585 345.511 345.932 344.807 345.17 344.227C344.409 343.636 343.54 343.187 342.562 342.881C341.597 342.574 340.534 342.42 339.375 342.42C337.409 342.42 335.636 342.926 334.057 343.938C332.477 344.949 331.227 346.432 330.307 348.386C329.398 350.33 328.943 352.71 328.943 355.528C328.943 358.358 329.403 360.75 330.324 362.705C331.244 364.659 332.506 366.142 334.108 367.153C335.71 368.165 337.534 368.67 339.58 368.67C341.477 368.67 343.131 368.284 344.54 367.511C345.96 366.739 347.057 365.648 347.83 364.239C348.614 362.818 349.006 361.148 349.006 359.227L350.369 359.483H340.381V355.136H354.102V359.108C354.102 362.04 353.477 364.585 352.227 366.744C350.989 368.892 349.273 370.551 347.08 371.722C344.898 372.892 342.398 373.477 339.58 373.477C336.42 373.477 333.648 372.75 331.261 371.295C328.886 369.841 327.034 367.778 325.705 365.108C324.375 362.426 323.71 359.244 323.71 355.562C323.71 352.778 324.097 350.278 324.869 348.062C325.642 345.847 326.727 343.966 328.125 342.42C329.534 340.864 331.188 339.676 333.085 338.858C334.994 338.028 337.08 337.614 339.341 337.614C341.227 337.614 342.983 337.892 344.608 338.449C346.244 339.006 347.699 339.795 348.972 340.818C350.256 341.841 351.318 343.057 352.159 344.466C353 345.864 353.568 347.415 353.864 349.119H348.46ZM371.663 373.528C369.084 373.528 366.862 372.977 364.999 371.875C363.146 370.761 361.714 369.199 360.703 367.188C359.703 365.165 359.203 362.795 359.203 360.08C359.203 357.398 359.703 355.034 360.703 352.989C361.714 350.943 363.124 349.347 364.93 348.199C366.749 347.051 368.874 346.477 371.305 346.477C372.783 346.477 374.214 346.722 375.601 347.21C376.987 347.699 378.232 348.466 379.334 349.511C380.436 350.557 381.305 351.915 381.942 353.585C382.578 355.244 382.896 357.261 382.896 359.636V361.443H362.084V357.625H377.902C377.902 356.284 377.629 355.097 377.084 354.062C376.538 353.017 375.771 352.193 374.783 351.591C373.805 350.989 372.658 350.688 371.339 350.688C369.908 350.688 368.658 351.04 367.589 351.744C366.533 352.437 365.714 353.347 365.135 354.472C364.567 355.585 364.283 356.795 364.283 358.102V361.085C364.283 362.835 364.589 364.324 365.203 365.551C365.828 366.778 366.697 367.716 367.811 368.364C368.925 369 370.226 369.318 371.714 369.318C372.68 369.318 373.561 369.182 374.357 368.909C375.152 368.625 375.839 368.205 376.419 367.648C376.999 367.091 377.442 366.403 377.749 365.585L382.572 366.455C382.186 367.875 381.493 369.119 380.493 370.188C379.504 371.244 378.26 372.068 376.76 372.659C375.271 373.239 373.572 373.528 371.663 373.528ZM400.773 346.818V350.909H386.472V346.818H400.773ZM390.307 340.545H395.403V365.312C395.403 366.301 395.551 367.045 395.847 367.545C396.142 368.034 396.523 368.369 396.989 368.551C397.466 368.722 397.983 368.807 398.54 368.807C398.949 368.807 399.307 368.778 399.614 368.722C399.92 368.665 400.159 368.619 400.33 368.585L401.25 372.795C400.955 372.909 400.534 373.023 399.989 373.136C399.443 373.261 398.761 373.33 397.943 373.341C396.602 373.364 395.352 373.125 394.193 372.625C393.034 372.125 392.097 371.352 391.381 370.307C390.665 369.261 390.307 367.949 390.307 366.369V340.545ZM422.472 373H416.881L429.443 338.091H435.528L448.091 373H442.5L432.631 344.432H432.358L422.472 373ZM423.409 359.33H441.545V363.761H423.409V359.33ZM452.723 382.818V346.818H457.7V351.062H458.126C458.422 350.517 458.848 349.886 459.405 349.17C459.962 348.455 460.734 347.83 461.723 347.295C462.712 346.75 464.018 346.477 465.643 346.477C467.757 346.477 469.643 347.011 471.303 348.08C472.962 349.148 474.263 350.687 475.206 352.699C476.161 354.71 476.638 357.131 476.638 359.96C476.638 362.79 476.166 365.216 475.223 367.239C474.28 369.25 472.984 370.801 471.337 371.892C469.689 372.972 467.808 373.511 465.695 373.511C464.104 373.511 462.803 373.244 461.791 372.71C460.791 372.176 460.007 371.551 459.439 370.835C458.871 370.119 458.433 369.483 458.126 368.926H457.82V382.818H452.723ZM457.717 359.909C457.717 361.75 457.984 363.364 458.518 364.75C459.053 366.136 459.825 367.222 460.837 368.006C461.848 368.778 463.087 369.165 464.553 369.165C466.075 369.165 467.348 368.761 468.371 367.955C469.393 367.136 470.166 366.028 470.689 364.631C471.223 363.233 471.49 361.659 471.49 359.909C471.49 358.182 471.229 356.631 470.706 355.256C470.195 353.881 469.422 352.795 468.388 352C467.365 351.205 466.087 350.807 464.553 350.807C463.075 350.807 461.825 351.187 460.803 351.949C459.791 352.71 459.024 353.773 458.501 355.136C457.979 356.5 457.717 358.091 457.717 359.909ZM482.348 382.818V346.818H487.325V351.062H487.751C488.047 350.517 488.473 349.886 489.03 349.17C489.587 348.455 490.359 347.83 491.348 347.295C492.337 346.75 493.643 346.477 495.268 346.477C497.382 346.477 499.268 347.011 500.928 348.08C502.587 349.148 503.888 350.687 504.831 352.699C505.786 354.71 506.263 357.131 506.263 359.96C506.263 362.79 505.791 365.216 504.848 367.239C503.905 369.25 502.609 370.801 500.962 371.892C499.314 372.972 497.433 373.511 495.32 373.511C493.729 373.511 492.428 373.244 491.416 372.71C490.416 372.176 489.632 371.551 489.064 370.835C488.496 370.119 488.058 369.483 487.751 368.926H487.445V382.818H482.348ZM487.342 359.909C487.342 361.75 487.609 363.364 488.143 364.75C488.678 366.136 489.45 367.222 490.462 368.006C491.473 368.778 492.712 369.165 494.178 369.165C495.7 369.165 496.973 368.761 497.996 367.955C499.018 367.136 499.791 366.028 500.314 364.631C500.848 363.233 501.115 361.659 501.115 359.909C501.115 358.182 500.854 356.631 500.331 355.256C499.82 353.881 499.047 352.795 498.013 352C496.99 351.205 495.712 350.807 494.178 350.807C492.7 350.807 491.45 351.187 490.428 351.949C489.416 352.71 488.649 353.773 488.126 355.136C487.604 356.5 487.342 358.091 487.342 359.909ZM511.973 373V346.818H516.899V350.977H517.172C517.649 349.568 518.49 348.46 519.695 347.653C520.911 346.835 522.286 346.426 523.82 346.426C524.138 346.426 524.513 346.437 524.945 346.46C525.388 346.483 525.734 346.511 525.984 346.545V351.42C525.78 351.364 525.416 351.301 524.893 351.233C524.371 351.153 523.848 351.114 523.325 351.114C522.121 351.114 521.047 351.369 520.104 351.881C519.172 352.381 518.433 353.08 517.888 353.977C517.342 354.864 517.07 355.875 517.07 357.011V373H511.973ZM540.486 373.528C538.031 373.528 535.889 372.966 534.06 371.841C532.23 370.716 530.81 369.142 529.798 367.119C528.787 365.097 528.281 362.733 528.281 360.028C528.281 357.312 528.787 354.937 529.798 352.903C530.81 350.869 532.23 349.29 534.06 348.165C535.889 347.04 538.031 346.477 540.486 346.477C542.94 346.477 545.082 347.04 546.912 348.165C548.741 349.29 550.162 350.869 551.173 352.903C552.185 354.937 552.69 357.312 552.69 360.028C552.69 362.733 552.185 365.097 551.173 367.119C550.162 369.142 548.741 370.716 546.912 371.841C545.082 372.966 542.94 373.528 540.486 373.528ZM540.503 369.25C542.094 369.25 543.412 368.83 544.457 367.989C545.503 367.148 546.276 366.028 546.776 364.631C547.287 363.233 547.543 361.693 547.543 360.011C547.543 358.341 547.287 356.807 546.776 355.409C546.276 354 545.503 352.869 544.457 352.017C543.412 351.165 542.094 350.739 540.503 350.739C538.901 350.739 537.571 351.165 536.514 352.017C535.469 352.869 534.69 354 534.179 355.409C533.679 356.807 533.429 358.341 533.429 360.011C533.429 361.693 533.679 363.233 534.179 364.631C534.69 366.028 535.469 367.148 536.514 367.989C537.571 368.83 538.901 369.25 540.503 369.25ZM579.886 346.818L570.392 373H564.938L555.426 346.818H560.898L567.528 366.966H567.801L574.415 346.818H579.886ZM591.545 373.58C589.886 373.58 588.386 373.273 587.045 372.659C585.705 372.034 584.642 371.131 583.858 369.949C583.085 368.767 582.699 367.318 582.699 365.602C582.699 364.125 582.983 362.909 583.551 361.955C584.119 361 584.886 360.244 585.852 359.688C586.818 359.131 587.898 358.71 589.091 358.426C590.284 358.142 591.5 357.926 592.739 357.778C594.307 357.597 595.58 357.449 596.557 357.335C597.534 357.21 598.244 357.011 598.688 356.739C599.131 356.466 599.352 356.023 599.352 355.409V355.29C599.352 353.801 598.932 352.648 598.091 351.83C597.261 351.011 596.023 350.602 594.375 350.602C592.659 350.602 591.307 350.983 590.318 351.744C589.341 352.494 588.665 353.33 588.29 354.25L583.5 353.159C584.068 351.568 584.898 350.284 585.989 349.307C587.091 348.318 588.358 347.602 589.79 347.159C591.222 346.705 592.727 346.477 594.307 346.477C595.352 346.477 596.46 346.602 597.631 346.852C598.813 347.091 599.915 347.534 600.938 348.182C601.972 348.83 602.818 349.756 603.477 350.96C604.136 352.153 604.466 353.705 604.466 355.614V373H599.489V369.42H599.284C598.955 370.08 598.46 370.727 597.801 371.364C597.142 372 596.295 372.528 595.261 372.949C594.227 373.369 592.989 373.58 591.545 373.58ZM592.653 369.489C594.063 369.489 595.267 369.21 596.267 368.653C597.278 368.097 598.045 367.369 598.568 366.472C599.102 365.562 599.369 364.591 599.369 363.557V360.182C599.188 360.364 598.835 360.534 598.312 360.693C597.801 360.841 597.216 360.972 596.557 361.085C595.898 361.187 595.256 361.284 594.631 361.375C594.006 361.455 593.483 361.523 593.062 361.58C592.074 361.705 591.17 361.915 590.352 362.21C589.545 362.506 588.898 362.932 588.409 363.489C587.932 364.034 587.693 364.761 587.693 365.67C587.693 366.932 588.159 367.886 589.091 368.534C590.023 369.17 591.21 369.489 592.653 369.489ZM616.351 338.091V373H611.254V338.091H616.351Z" fill="black"/>
<path d="M62.875 934.261C62.6932 932.648 61.9432 931.398 60.625 930.511C59.3068 929.614 57.6477 929.165 55.6477 929.165C54.2159 929.165 52.9773 929.392 51.9318 929.847C50.8864 930.29 50.0739 930.903 49.4943 931.688C48.9261 932.46 48.642 933.341 48.642 934.33C48.642 935.159 48.8352 935.875 49.2216 936.477C49.6193 937.08 50.1364 937.585 50.7727 937.994C51.4205 938.392 52.1136 938.727 52.8523 939C53.5909 939.261 54.3011 939.477 54.983 939.648L58.392 940.534C59.5057 940.807 60.6477 941.176 61.8182 941.642C62.9886 942.108 64.0739 942.722 65.0739 943.483C66.0739 944.244 66.8807 945.188 67.4943 946.312C68.1193 947.438 68.4318 948.784 68.4318 950.352C68.4318 952.33 67.9205 954.085 66.8977 955.619C65.8864 957.153 64.4148 958.364 62.483 959.25C60.5625 960.136 58.2386 960.58 55.5114 960.58C52.8977 960.58 50.6364 960.165 48.7273 959.335C46.8182 958.506 45.3239 957.33 44.2443 955.807C43.1648 954.273 42.5682 952.455 42.4545 950.352H47.7386C47.8409 951.614 48.25 952.665 48.9659 953.506C49.6932 954.335 50.6193 954.955 51.7443 955.364C52.8807 955.761 54.125 955.96 55.4773 955.96C56.9659 955.96 58.2898 955.727 59.4489 955.261C60.6193 954.784 61.5398 954.125 62.2102 953.284C62.8807 952.432 63.2159 951.437 63.2159 950.301C63.2159 949.267 62.9205 948.42 62.3295 947.761C61.75 947.102 60.9602 946.557 59.9602 946.125C58.9716 945.693 57.8523 945.312 56.6023 944.983L52.4773 943.858C49.6818 943.097 47.4659 941.977 45.8295 940.5C44.2045 939.023 43.392 937.068 43.392 934.636C43.392 932.625 43.9375 930.869 45.0284 929.369C46.1193 927.869 47.5966 926.705 49.4602 925.875C51.3239 925.034 53.4261 924.614 55.767 924.614C58.1307 924.614 60.2159 925.028 62.0227 925.858C63.8409 926.688 65.2727 927.83 66.3182 929.284C67.3636 930.727 67.9091 932.386 67.9545 934.261H62.875ZM86.5384 933.818V937.909H72.2372V933.818H86.5384ZM76.0724 927.545H81.169V952.312C81.169 953.301 81.3168 954.045 81.6122 954.545C81.9077 955.034 82.2884 955.369 82.7543 955.551C83.2315 955.722 83.7486 955.807 84.3054 955.807C84.7145 955.807 85.0724 955.778 85.3793 955.722C85.6861 955.665 85.9247 955.619 86.0952 955.585L87.0156 959.795C86.7202 959.909 86.2997 960.023 85.7543 960.136C85.2088 960.261 84.527 960.33 83.7088 960.341C82.3679 960.364 81.1179 960.125 79.9588 959.625C78.7997 959.125 77.8622 958.352 77.1463 957.307C76.4304 956.261 76.0724 954.949 76.0724 953.369V927.545ZM99.7955 960.58C98.1364 960.58 96.6364 960.273 95.2955 959.659C93.9545 959.034 92.892 958.131 92.108 956.949C91.3352 955.767 90.9489 954.318 90.9489 952.602C90.9489 951.125 91.233 949.909 91.8011 948.955C92.3693 948 93.1364 947.244 94.1023 946.688C95.0682 946.131 96.1477 945.71 97.3409 945.426C98.5341 945.142 99.75 944.926 100.989 944.778C102.557 944.597 103.83 944.449 104.807 944.335C105.784 944.21 106.494 944.011 106.938 943.739C107.381 943.466 107.602 943.023 107.602 942.409V942.29C107.602 940.801 107.182 939.648 106.341 938.83C105.511 938.011 104.273 937.602 102.625 937.602C100.909 937.602 99.5568 937.983 98.5682 938.744C97.5909 939.494 96.9148 940.33 96.5398 941.25L91.75 940.159C92.3182 938.568 93.1477 937.284 94.2386 936.307C95.3409 935.318 96.608 934.602 98.0398 934.159C99.4716 933.705 100.977 933.477 102.557 933.477C103.602 933.477 104.71 933.602 105.881 933.852C107.063 934.091 108.165 934.534 109.188 935.182C110.222 935.83 111.068 936.756 111.727 937.96C112.386 939.153 112.716 940.705 112.716 942.614V960H107.739V956.42H107.534C107.205 957.08 106.71 957.727 106.051 958.364C105.392 959 104.545 959.528 103.511 959.949C102.477 960.369 101.239 960.58 99.7955 960.58ZM100.903 956.489C102.313 956.489 103.517 956.21 104.517 955.653C105.528 955.097 106.295 954.369 106.818 953.472C107.352 952.562 107.619 951.591 107.619 950.557V947.182C107.438 947.364 107.085 947.534 106.562 947.693C106.051 947.841 105.466 947.972 104.807 948.085C104.148 948.187 103.506 948.284 102.881 948.375C102.256 948.455 101.733 948.523 101.312 948.58C100.324 948.705 99.4205 948.915 98.6023 949.21C97.7955 949.506 97.1477 949.932 96.6591 950.489C96.1818 951.034 95.9432 951.761 95.9432 952.67C95.9432 953.932 96.4091 954.886 97.3409 955.534C98.2727 956.17 99.4602 956.489 100.903 956.489ZM119.504 960V933.818H124.43V937.977H124.703C125.18 936.568 126.021 935.46 127.226 934.653C128.442 933.835 129.817 933.426 131.351 933.426C131.669 933.426 132.044 933.437 132.476 933.46C132.919 933.483 133.266 933.511 133.516 933.545V938.42C133.311 938.364 132.947 938.301 132.425 938.233C131.902 938.153 131.379 938.114 130.857 938.114C129.652 938.114 128.578 938.369 127.635 938.881C126.703 939.381 125.964 940.08 125.419 940.977C124.874 941.864 124.601 942.875 124.601 944.011V960H119.504ZM151.695 933.818V937.909H137.393V933.818H151.695ZM141.229 927.545H146.325V952.312C146.325 953.301 146.473 954.045 146.768 954.545C147.064 955.034 147.445 955.369 147.911 955.551C148.388 955.722 148.905 955.807 149.462 955.807C149.871 955.807 150.229 955.778 150.536 955.722C150.842 955.665 151.081 955.619 151.251 955.585L152.172 959.795C151.876 959.909 151.456 960.023 150.911 960.136C150.365 960.261 149.683 960.33 148.865 960.341C147.524 960.364 146.274 960.125 145.115 959.625C143.956 959.125 143.018 958.352 142.303 957.307C141.587 956.261 141.229 954.949 141.229 953.369V927.545ZM194.07 936.119C193.74 935.085 193.297 934.159 192.74 933.341C192.195 932.511 191.541 931.807 190.78 931.227C190.018 930.636 189.149 930.187 188.172 929.881C187.206 929.574 186.143 929.42 184.984 929.42C183.018 929.42 181.246 929.926 179.666 930.938C178.087 931.949 176.837 933.432 175.916 935.386C175.007 937.33 174.553 939.71 174.553 942.528C174.553 945.358 175.013 947.75 175.933 949.705C176.854 951.659 178.115 953.142 179.717 954.153C181.32 955.165 183.143 955.67 185.189 955.67C187.087 955.67 188.74 955.284 190.149 954.511C191.57 953.739 192.666 952.648 193.439 951.239C194.223 949.818 194.615 948.148 194.615 946.227L195.979 946.483H185.99V942.136H199.712V946.108C199.712 949.04 199.087 951.585 197.837 953.744C196.598 955.892 194.882 957.551 192.689 958.722C190.507 959.892 188.007 960.477 185.189 960.477C182.03 960.477 179.257 959.75 176.871 958.295C174.496 956.841 172.643 954.778 171.314 952.108C169.984 949.426 169.32 946.244 169.32 942.562C169.32 939.778 169.706 937.278 170.479 935.062C171.251 932.847 172.337 930.966 173.734 929.42C175.143 927.864 176.797 926.676 178.695 925.858C180.604 925.028 182.689 924.614 184.95 924.614C186.837 924.614 188.592 924.892 190.217 925.449C191.854 926.006 193.308 926.795 194.581 927.818C195.865 928.841 196.928 930.057 197.768 931.466C198.609 932.864 199.178 934.415 199.473 936.119H194.07ZM217.273 960.528C214.693 960.528 212.472 959.977 210.608 958.875C208.756 957.761 207.324 956.199 206.312 954.188C205.312 952.165 204.812 949.795 204.812 947.08C204.812 944.398 205.312 942.034 206.312 939.989C207.324 937.943 208.733 936.347 210.54 935.199C212.358 934.051 214.483 933.477 216.915 933.477C218.392 933.477 219.824 933.722 221.21 934.21C222.597 934.699 223.841 935.466 224.943 936.511C226.045 937.557 226.915 938.915 227.551 940.585C228.188 942.244 228.506 944.261 228.506 946.636V948.443H207.693V944.625H223.511C223.511 943.284 223.239 942.097 222.693 941.062C222.148 940.017 221.381 939.193 220.392 938.591C219.415 937.989 218.267 937.688 216.949 937.688C215.517 937.688 214.267 938.04 213.199 938.744C212.142 939.437 211.324 940.347 210.744 941.472C210.176 942.585 209.892 943.795 209.892 945.102V948.085C209.892 949.835 210.199 951.324 210.812 952.551C211.438 953.778 212.307 954.716 213.42 955.364C214.534 956 215.835 956.318 217.324 956.318C218.29 956.318 219.17 956.182 219.966 955.909C220.761 955.625 221.449 955.205 222.028 954.648C222.608 954.091 223.051 953.403 223.358 952.585L228.182 953.455C227.795 954.875 227.102 956.119 226.102 957.188C225.114 958.244 223.869 959.068 222.369 959.659C220.881 960.239 219.182 960.528 217.273 960.528ZM246.382 933.818V937.909H232.081V933.818H246.382ZM235.916 927.545H241.013V952.312C241.013 953.301 241.161 954.045 241.456 954.545C241.751 955.034 242.132 955.369 242.598 955.551C243.075 955.722 243.592 955.807 244.149 955.807C244.558 955.807 244.916 955.778 245.223 955.722C245.53 955.665 245.768 955.619 245.939 955.585L246.859 959.795C246.564 959.909 246.143 960.023 245.598 960.136C245.053 960.261 244.371 960.33 243.553 960.341C242.212 960.364 240.962 960.125 239.803 959.625C238.643 959.125 237.706 958.352 236.99 957.307C236.274 956.261 235.916 954.949 235.916 953.369V927.545ZM264.241 933.818V937.909H249.94V933.818H264.241ZM253.776 927.545H258.872V952.312C258.872 953.301 259.02 954.045 259.315 954.545C259.611 955.034 259.991 955.369 260.457 955.551C260.935 955.722 261.452 955.807 262.009 955.807C262.418 955.807 262.776 955.778 263.082 955.722C263.389 955.665 263.628 955.619 263.798 955.585L264.719 959.795C264.423 959.909 264.003 960.023 263.457 960.136C262.912 960.261 262.23 960.33 261.412 960.341C260.071 960.364 258.821 960.125 257.662 959.625C256.503 959.125 255.565 958.352 254.849 957.307C254.134 956.261 253.776 954.949 253.776 953.369V927.545ZM269.879 960V933.818H274.976V960H269.879ZM272.453 929.778C271.567 929.778 270.805 929.483 270.169 928.892C269.544 928.29 269.232 927.574 269.232 926.744C269.232 925.903 269.544 925.187 270.169 924.597C270.805 923.994 271.567 923.693 272.453 923.693C273.339 923.693 274.095 923.994 274.72 924.597C275.357 925.187 275.675 925.903 275.675 926.744C275.675 927.574 275.357 928.29 274.72 928.892C274.095 929.483 273.339 929.778 272.453 929.778ZM286.929 944.455V960H281.832V933.818H286.724V938.08H287.048C287.651 936.693 288.594 935.58 289.878 934.739C291.173 933.898 292.804 933.477 294.77 933.477C296.554 933.477 298.116 933.852 299.457 934.602C300.798 935.341 301.838 936.443 302.577 937.909C303.315 939.375 303.685 941.187 303.685 943.347V960H298.588V943.96C298.588 942.062 298.094 940.58 297.105 939.511C296.116 938.432 294.759 937.892 293.031 937.892C291.849 937.892 290.798 938.148 289.878 938.659C288.969 939.17 288.247 939.92 287.713 940.909C287.19 941.886 286.929 943.068 286.929 944.455ZM321.497 970.364C319.418 970.364 317.628 970.091 316.128 969.545C314.639 969 313.423 968.278 312.48 967.381C311.537 966.483 310.832 965.5 310.366 964.432L314.747 962.625C315.054 963.125 315.463 963.653 315.974 964.21C316.497 964.778 317.202 965.261 318.088 965.659C318.986 966.057 320.139 966.256 321.548 966.256C323.48 966.256 325.077 965.784 326.338 964.841C327.599 963.909 328.23 962.42 328.23 960.375V955.227H327.906C327.599 955.784 327.156 956.403 326.577 957.085C326.009 957.767 325.224 958.358 324.224 958.858C323.224 959.358 321.923 959.608 320.321 959.608C318.253 959.608 316.389 959.125 314.73 958.159C313.082 957.182 311.776 955.744 310.81 953.847C309.855 951.937 309.378 949.591 309.378 946.807C309.378 944.023 309.849 941.636 310.793 939.648C311.747 937.659 313.054 936.136 314.713 935.08C316.372 934.011 318.253 933.477 320.355 933.477C321.98 933.477 323.293 933.75 324.293 934.295C325.293 934.83 326.071 935.455 326.628 936.17C327.196 936.886 327.634 937.517 327.94 938.062H328.315V933.818H333.31V960.58C333.31 962.83 332.787 964.676 331.741 966.119C330.696 967.563 329.281 968.631 327.497 969.324C325.724 970.017 323.724 970.364 321.497 970.364ZM321.446 955.381C322.912 955.381 324.151 955.04 325.162 954.358C326.185 953.665 326.957 952.676 327.48 951.392C328.014 950.097 328.281 948.545 328.281 946.739C328.281 944.977 328.02 943.426 327.497 942.085C326.974 940.744 326.207 939.699 325.196 938.949C324.185 938.187 322.935 937.807 321.446 937.807C319.912 937.807 318.634 938.205 317.611 939C316.588 939.784 315.815 940.852 315.293 942.205C314.781 943.557 314.526 945.068 314.526 946.739C314.526 948.455 314.787 949.96 315.31 951.256C315.832 952.551 316.605 953.562 317.628 954.29C318.662 955.017 319.935 955.381 321.446 955.381ZM353.257 960V925.091H366.041C368.518 925.091 370.57 925.5 372.195 926.318C373.82 927.125 375.036 928.222 375.842 929.608C376.649 930.983 377.053 932.534 377.053 934.261C377.053 935.716 376.786 936.943 376.251 937.943C375.717 938.932 375.001 939.727 374.104 940.33C373.217 940.92 372.24 941.352 371.172 941.625V941.966C372.331 942.023 373.462 942.398 374.564 943.091C375.678 943.773 376.598 944.744 377.325 946.006C378.053 947.267 378.416 948.801 378.416 950.608C378.416 952.392 377.996 953.994 377.155 955.415C376.325 956.824 375.041 957.943 373.303 958.773C371.564 959.591 369.342 960 366.638 960H353.257ZM358.524 955.483H366.126C368.649 955.483 370.456 954.994 371.547 954.017C372.638 953.04 373.183 951.818 373.183 950.352C373.183 949.25 372.905 948.239 372.348 947.318C371.791 946.398 370.996 945.665 369.962 945.119C368.939 944.574 367.723 944.301 366.314 944.301H358.524V955.483ZM358.524 940.193H365.581C366.763 940.193 367.825 939.966 368.768 939.511C369.723 939.057 370.479 938.42 371.036 937.602C371.604 936.773 371.888 935.795 371.888 934.67C371.888 933.227 371.382 932.017 370.371 931.04C369.359 930.062 367.808 929.574 365.717 929.574H358.524V940.193ZM395.283 960.528C392.828 960.528 390.686 959.966 388.857 958.841C387.027 957.716 385.607 956.142 384.595 954.119C383.584 952.097 383.078 949.733 383.078 947.028C383.078 944.312 383.584 941.937 384.595 939.903C385.607 937.869 387.027 936.29 388.857 935.165C390.686 934.04 392.828 933.477 395.283 933.477C397.737 933.477 399.879 934.04 401.709 935.165C403.538 936.29 404.959 937.869 405.97 939.903C406.982 941.937 407.487 944.312 407.487 947.028C407.487 949.733 406.982 952.097 405.97 954.119C404.959 956.142 403.538 957.716 401.709 958.841C399.879 959.966 397.737 960.528 395.283 960.528ZM395.3 956.25C396.891 956.25 398.209 955.83 399.254 954.989C400.3 954.148 401.072 953.028 401.572 951.631C402.084 950.233 402.339 948.693 402.339 947.011C402.339 945.341 402.084 943.807 401.572 942.409C401.072 941 400.3 939.869 399.254 939.017C398.209 938.165 396.891 937.739 395.3 937.739C393.697 937.739 392.368 938.165 391.311 939.017C390.266 939.869 389.487 941 388.976 942.409C388.476 943.807 388.226 945.341 388.226 947.011C388.226 948.693 388.476 950.233 388.976 951.631C389.487 953.028 390.266 954.148 391.311 954.989C392.368 955.83 393.697 956.25 395.3 956.25ZM424.205 960.528C421.75 960.528 419.608 959.966 417.778 958.841C415.949 957.716 414.528 956.142 413.517 954.119C412.506 952.097 412 949.733 412 947.028C412 944.312 412.506 941.937 413.517 939.903C414.528 937.869 415.949 936.29 417.778 935.165C419.608 934.04 421.75 933.477 424.205 933.477C426.659 933.477 428.801 934.04 430.631 935.165C432.46 936.29 433.881 937.869 434.892 939.903C435.903 941.937 436.409 944.312 436.409 947.028C436.409 949.733 435.903 952.097 434.892 954.119C433.881 956.142 432.46 957.716 430.631 958.841C428.801 959.966 426.659 960.528 424.205 960.528ZM424.222 956.25C425.813 956.25 427.131 955.83 428.176 954.989C429.222 954.148 429.994 953.028 430.494 951.631C431.006 950.233 431.261 948.693 431.261 947.011C431.261 945.341 431.006 943.807 430.494 942.409C429.994 941 429.222 939.869 428.176 939.017C427.131 938.165 425.813 937.739 424.222 937.739C422.619 937.739 421.29 938.165 420.233 939.017C419.188 939.869 418.409 941 417.898 942.409C417.398 943.807 417.148 945.341 417.148 947.011C417.148 948.693 417.398 950.233 417.898 951.631C418.409 953.028 419.188 954.148 420.233 954.989C421.29 955.83 422.619 956.25 424.222 956.25ZM446.786 951.119L446.751 944.898H447.638L458.07 933.818H464.172L452.274 946.432H451.473L446.786 951.119ZM442.098 960V925.091H447.195V960H442.098ZM458.632 960L449.257 947.557L452.768 943.994L464.888 960H458.632ZM468.817 960V933.818H473.913V960H468.817ZM471.391 929.778C470.504 929.778 469.743 929.483 469.107 928.892C468.482 928.29 468.169 927.574 468.169 926.744C468.169 925.903 468.482 925.187 469.107 924.597C469.743 923.994 470.504 923.693 471.391 923.693C472.277 923.693 473.033 923.994 473.658 924.597C474.294 925.187 474.612 925.903 474.612 926.744C474.612 927.574 474.294 928.29 473.658 928.892C473.033 929.483 472.277 929.778 471.391 929.778ZM485.866 944.455V960H480.77V933.818H485.662V938.08H485.986C486.588 936.693 487.531 935.58 488.815 934.739C490.111 933.898 491.741 933.477 493.707 933.477C495.491 933.477 497.054 933.852 498.395 934.602C499.736 935.341 500.776 936.443 501.514 937.909C502.253 939.375 502.622 941.187 502.622 943.347V960H497.526V943.96C497.526 942.062 497.031 940.58 496.043 939.511C495.054 938.432 493.696 937.892 491.969 937.892C490.787 937.892 489.736 938.148 488.815 938.659C487.906 939.17 487.185 939.92 486.651 940.909C486.128 941.886 485.866 943.068 485.866 944.455ZM520.435 970.364C518.355 970.364 516.565 970.091 515.065 969.545C513.577 969 512.361 968.278 511.418 967.381C510.474 966.483 509.77 965.5 509.304 964.432L513.685 962.625C513.991 963.125 514.401 963.653 514.912 964.21C515.435 964.778 516.139 965.261 517.026 965.659C517.923 966.057 519.077 966.256 520.486 966.256C522.418 966.256 524.014 965.784 525.276 964.841C526.537 963.909 527.168 962.42 527.168 960.375V955.227H526.844C526.537 955.784 526.094 956.403 525.514 957.085C524.946 957.767 524.162 958.358 523.162 958.858C522.162 959.358 520.861 959.608 519.259 959.608C517.19 959.608 515.327 959.125 513.668 958.159C512.02 957.182 510.713 955.744 509.747 953.847C508.793 951.937 508.315 949.591 508.315 946.807C508.315 944.023 508.787 941.636 509.73 939.648C510.685 937.659 511.991 936.136 513.651 935.08C515.31 934.011 517.19 933.477 519.293 933.477C520.918 933.477 522.23 933.75 523.23 934.295C524.23 934.83 525.009 935.455 525.565 936.17C526.134 936.886 526.571 937.517 526.878 938.062H527.253V933.818H532.247V960.58C532.247 962.83 531.724 964.676 530.679 966.119C529.634 967.563 528.219 968.631 526.435 969.324C524.662 970.017 522.662 970.364 520.435 970.364ZM520.384 955.381C521.849 955.381 523.088 955.04 524.099 954.358C525.122 953.665 525.895 952.676 526.418 951.392C526.952 950.097 527.219 948.545 527.219 946.739C527.219 944.977 526.957 943.426 526.435 942.085C525.912 940.744 525.145 939.699 524.134 938.949C523.122 938.187 521.872 937.807 520.384 937.807C518.849 937.807 517.571 938.205 516.548 939C515.526 939.784 514.753 940.852 514.23 942.205C513.719 943.557 513.463 945.068 513.463 946.739C513.463 948.455 513.724 949.96 514.247 951.256C514.77 952.551 515.543 953.562 516.565 954.29C517.599 955.017 518.872 955.381 520.384 955.381ZM558.702 940.21L554.082 941.028C553.889 940.437 553.582 939.875 553.162 939.341C552.753 938.807 552.196 938.369 551.491 938.028C550.787 937.687 549.906 937.517 548.849 937.517C547.406 937.517 546.202 937.841 545.236 938.489C544.27 939.125 543.787 939.949 543.787 940.96C543.787 941.835 544.111 942.54 544.759 943.074C545.406 943.608 546.452 944.045 547.895 944.386L552.054 945.341C554.463 945.898 556.259 946.756 557.44 947.915C558.622 949.074 559.213 950.58 559.213 952.432C559.213 954 558.759 955.398 557.849 956.625C556.952 957.841 555.696 958.795 554.082 959.489C552.48 960.182 550.622 960.528 548.509 960.528C545.577 960.528 543.185 959.903 541.332 958.653C539.48 957.392 538.344 955.602 537.923 953.284L542.849 952.534C543.156 953.818 543.787 954.79 544.741 955.449C545.696 956.097 546.94 956.42 548.474 956.42C550.145 956.42 551.48 956.074 552.48 955.381C553.48 954.676 553.98 953.818 553.98 952.807C553.98 951.989 553.673 951.301 553.06 950.744C552.457 950.187 551.531 949.767 550.281 949.483L545.849 948.511C543.406 947.955 541.599 947.068 540.429 945.852C539.27 944.636 538.69 943.097 538.69 941.233C538.69 939.687 539.122 938.335 539.986 937.176C540.849 936.017 542.043 935.114 543.565 934.466C545.088 933.807 546.832 933.477 548.798 933.477C551.628 933.477 553.855 934.091 555.48 935.318C557.105 936.534 558.179 938.165 558.702 940.21ZM588.548 960.528C586.094 960.528 583.952 959.966 582.122 958.841C580.293 957.716 578.872 956.142 577.861 954.119C576.849 952.097 576.344 949.733 576.344 947.028C576.344 944.312 576.849 941.937 577.861 939.903C578.872 937.869 580.293 936.29 582.122 935.165C583.952 934.04 586.094 933.477 588.548 933.477C591.003 933.477 593.145 934.04 594.974 935.165C596.804 936.29 598.224 937.869 599.236 939.903C600.247 941.937 600.753 944.312 600.753 947.028C600.753 949.733 600.247 952.097 599.236 954.119C598.224 956.142 596.804 957.716 594.974 958.841C593.145 959.966 591.003 960.528 588.548 960.528ZM588.565 956.25C590.156 956.25 591.474 955.83 592.52 954.989C593.565 954.148 594.338 953.028 594.838 951.631C595.349 950.233 595.605 948.693 595.605 947.011C595.605 945.341 595.349 943.807 594.838 942.409C594.338 941 593.565 939.869 592.52 939.017C591.474 938.165 590.156 937.739 588.565 937.739C586.963 937.739 585.634 938.165 584.577 939.017C583.531 939.869 582.753 941 582.241 942.409C581.741 943.807 581.491 945.341 581.491 947.011C581.491 948.693 581.741 950.233 582.241 951.631C582.753 953.028 583.531 954.148 584.577 954.989C585.634 955.83 586.963 956.25 588.565 956.25ZM606.442 960V933.818H611.368V937.977H611.641C612.118 936.568 612.959 935.46 614.163 934.653C615.379 933.835 616.754 933.426 618.288 933.426C618.607 933.426 618.982 933.437 619.413 933.46C619.857 933.483 620.203 933.511 620.453 933.545V938.42C620.249 938.364 619.885 938.301 619.362 938.233C618.839 938.153 618.317 938.114 617.794 938.114C616.589 938.114 615.516 938.369 614.572 938.881C613.641 939.381 612.902 940.08 612.357 940.977C611.811 941.864 611.538 942.875 611.538 944.011V960H606.442ZM46.8864 983.091L56.6023 1011.52H56.9943L66.7102 983.091H72.4034L59.8409 1018H53.7557L41.1932 983.091H46.8864ZM77.0355 1018V991.818H82.1321V1018H77.0355ZM79.6094 987.778C78.723 987.778 77.9616 987.483 77.3253 986.892C76.7003 986.29 76.3878 985.574 76.3878 984.744C76.3878 983.903 76.7003 983.187 77.3253 982.597C77.9616 981.994 78.723 981.693 79.6094 981.693C80.4957 981.693 81.2514 981.994 81.8764 982.597C82.5128 983.187 82.831 983.903 82.831 984.744C82.831 985.574 82.5128 986.29 81.8764 986.892C81.2514 987.483 80.4957 987.778 79.6094 987.778ZM108.608 998.21L103.989 999.028C103.795 998.437 103.489 997.875 103.068 997.341C102.659 996.807 102.102 996.369 101.398 996.028C100.693 995.687 99.8125 995.517 98.7557 995.517C97.3125 995.517 96.108 995.841 95.142 996.489C94.1761 997.125 93.6932 997.949 93.6932 998.96C93.6932 999.835 94.017 1000.54 94.6648 1001.07C95.3125 1001.61 96.358 1002.05 97.8011 1002.39L101.96 1003.34C104.369 1003.9 106.165 1004.76 107.347 1005.91C108.528 1007.07 109.119 1008.58 109.119 1010.43C109.119 1012 108.665 1013.4 107.756 1014.62C106.858 1015.84 105.602 1016.8 103.989 1017.49C102.386 1018.18 100.528 1018.53 98.4148 1018.53C95.483 1018.53 93.0909 1017.9 91.2386 1016.65C89.3864 1015.39 88.25 1013.6 87.8295 1011.28L92.7557 1010.53C93.0625 1011.82 93.6932 1012.79 94.6477 1013.45C95.6023 1014.1 96.8466 1014.42 98.3807 1014.42C100.051 1014.42 101.386 1014.07 102.386 1013.38C103.386 1012.68 103.886 1011.82 103.886 1010.81C103.886 1009.99 103.58 1009.3 102.966 1008.74C102.364 1008.19 101.438 1007.77 100.188 1007.48L95.7557 1006.51C93.3125 1005.95 91.5057 1005.07 90.3352 1003.85C89.1761 1002.64 88.5966 1001.1 88.5966 999.233C88.5966 997.687 89.0284 996.335 89.892 995.176C90.7557 994.017 91.9489 993.114 93.4716 992.466C94.9943 991.807 96.7386 991.477 98.7045 991.477C101.534 991.477 103.761 992.091 105.386 993.318C107.011 994.534 108.085 996.165 108.608 998.21ZM114.723 1018V991.818H119.82V1018H114.723ZM117.297 987.778C116.411 987.778 115.649 987.483 115.013 986.892C114.388 986.29 114.075 985.574 114.075 984.744C114.075 983.903 114.388 983.187 115.013 982.597C115.649 981.994 116.411 981.693 117.297 981.693C118.183 981.693 118.939 981.994 119.564 982.597C120.2 983.187 120.518 983.903 120.518 984.744C120.518 985.574 120.2 986.29 119.564 986.892C118.939 987.483 118.183 987.778 117.297 987.778ZM127.085 1018V983.091H132.182V996.062H132.489C132.784 995.517 133.21 994.886 133.767 994.17C134.324 993.455 135.097 992.83 136.085 992.295C137.074 991.75 138.381 991.477 140.006 991.477C142.119 991.477 144.006 992.011 145.665 993.08C147.324 994.148 148.625 995.687 149.568 997.699C150.523 999.71 151 1002.13 151 1004.96C151 1007.79 150.528 1010.22 149.585 1012.24C148.642 1014.25 147.347 1015.8 145.699 1016.89C144.051 1017.97 142.17 1018.51 140.057 1018.51C138.466 1018.51 137.165 1018.24 136.153 1017.71C135.153 1017.18 134.369 1016.55 133.801 1015.84C133.233 1015.12 132.795 1014.48 132.489 1013.93H132.062V1018H127.085ZM132.08 1004.91C132.08 1006.75 132.347 1008.36 132.881 1009.75C133.415 1011.14 134.188 1012.22 135.199 1013.01C136.21 1013.78 137.449 1014.16 138.915 1014.16C140.438 1014.16 141.71 1013.76 142.733 1012.95C143.756 1012.14 144.528 1011.03 145.051 1009.63C145.585 1008.23 145.852 1006.66 145.852 1004.91C145.852 1003.18 145.591 1001.63 145.068 1000.26C144.557 998.881 143.784 997.795 142.75 997C141.727 996.205 140.449 995.807 138.915 995.807C137.438 995.807 136.188 996.187 135.165 996.949C134.153 997.71 133.386 998.773 132.864 1000.14C132.341 1001.5 132.08 1003.09 132.08 1004.91ZM156.723 1018V991.818H161.82V1018H156.723ZM159.297 987.778C158.411 987.778 157.649 987.483 157.013 986.892C156.388 986.29 156.075 985.574 156.075 984.744C156.075 983.903 156.388 983.187 157.013 982.597C157.649 981.994 158.411 981.693 159.297 981.693C160.183 981.693 160.939 981.994 161.564 982.597C162.2 983.187 162.518 983.903 162.518 984.744C162.518 985.574 162.2 986.29 161.564 986.892C160.939 987.483 160.183 987.778 159.297 987.778ZM173.773 983.091V1018H168.676V983.091H173.773ZM180.629 1018V991.818H185.726V1018H180.629ZM183.203 987.778C182.317 987.778 181.555 987.483 180.919 986.892C180.294 986.29 179.982 985.574 179.982 984.744C179.982 983.903 180.294 983.187 180.919 982.597C181.555 981.994 182.317 981.693 183.203 981.693C184.089 981.693 184.845 981.994 185.47 982.597C186.107 983.187 186.425 983.903 186.425 984.744C186.425 985.574 186.107 986.29 185.47 986.892C184.845 987.483 184.089 987.778 183.203 987.778ZM204.804 991.818V995.909H190.503V991.818H204.804ZM194.338 985.545H199.435V1010.31C199.435 1011.3 199.582 1012.05 199.878 1012.55C200.173 1013.03 200.554 1013.37 201.02 1013.55C201.497 1013.72 202.014 1013.81 202.571 1013.81C202.98 1013.81 203.338 1013.78 203.645 1013.72C203.952 1013.66 204.19 1013.62 204.361 1013.59L205.281 1017.8C204.986 1017.91 204.565 1018.02 204.02 1018.14C203.474 1018.26 202.793 1018.33 201.974 1018.34C200.634 1018.36 199.384 1018.12 198.224 1017.62C197.065 1017.12 196.128 1016.35 195.412 1015.31C194.696 1014.26 194.338 1012.95 194.338 1011.37V985.545ZM213.663 1027.82C212.902 1027.82 212.209 1027.76 211.584 1027.63C210.959 1027.52 210.493 1027.39 210.186 1027.26L211.413 1023.08C212.345 1023.33 213.175 1023.44 213.902 1023.4C214.629 1023.37 215.271 1023.1 215.828 1022.59C216.396 1022.07 216.896 1021.24 217.328 1020.08L217.959 1018.34L208.379 991.818H213.834L220.464 1012.14H220.737L227.368 991.818H232.839L222.05 1021.49C221.55 1022.86 220.913 1024.01 220.141 1024.95C219.368 1025.91 218.447 1026.63 217.379 1027.1C216.311 1027.58 215.072 1027.82 213.663 1027.82Z" fill="black"/>
</g>
<defs>
<clipPath id="clip0_2254_3119">
<rect width="1504" height="1060" fill="white" transform="translate(-50)"/>
</clipPath>
</defs>
</svg>
