<svg width="108" height="114" viewBox="0 0 108 114" fill="none" xmlns="http://www.w3.org/2000/svg">
<g opacity="0.2">
<path opacity="0.4" d="M121.626 57.7992V127.415H17.0869L17.3765 57.7412C17.3765 54.2083 18.9982 50.8495 21.8361 48.6486L62.3777 17.142C66.5477 13.8407 72.4552 13.8407 76.6252 17.142L84.3861 23.1652L110.043 43.0885L117.167 48.6486C120.005 50.8495 121.626 54.2084 121.626 57.7992Z" fill="#292D32"/>
<path d="M75.2913 98.458H63.708C58.9009 98.458 55.0205 102.338 55.0205 107.146V127.416H83.9788V107.146C83.9788 102.338 80.0984 98.458 75.2913 98.458Z" fill="#292D32"/>
<path d="M55.0205 79.6351H43.4372C40.2518 79.6351 37.6455 77.0288 37.6455 73.8434V65.1559C37.6455 61.9705 40.2518 59.3643 43.4372 59.3643H55.0205C58.2059 59.3643 60.8122 61.9705 60.8122 65.1559V73.8434C60.8122 77.0288 58.2059 79.6351 55.0205 79.6351Z" fill="#292D32"/>
<path d="M95.5625 79.6351H83.9792C80.7937 79.6351 78.1875 77.0288 78.1875 73.8434V65.1559C78.1875 61.9705 80.7937 59.3643 83.9792 59.3643H95.5625C98.7479 59.3643 101.354 61.9705 101.354 65.1559V73.8434C101.354 77.0288 98.7479 79.6351 95.5625 79.6351Z" fill="#292D32"/>
<path d="M110.044 43.0903L84.3867 23.167H104.136C107.322 23.167 109.928 25.7153 109.928 28.9007L110.044 43.0903Z" fill="#292D32"/>
</g>
</svg>
