<svg width="104" height="108" viewBox="0 0 104 108" fill="none" xmlns="http://www.w3.org/2000/svg">
<g opacity="0.2">
<path opacity="0.3" fill-rule="evenodd" clip-rule="evenodd" d="M103.709 60.0417C106.463 60.0408 109.116 61.081 111.135 62.9537C113.155 64.8264 114.392 67.3932 114.598 70.1396L114.626 70.9583V103.708C114.627 106.462 113.586 109.115 111.714 111.135C109.841 113.154 107.274 114.391 104.528 114.598L103.709 114.625H81.8757C79.1215 114.626 76.4688 113.586 74.4493 111.713C72.4298 109.84 71.1928 107.273 70.9863 104.527L70.959 103.708V70.9583C70.9581 68.2042 71.9983 65.5515 73.871 63.532C75.7437 61.5125 78.3105 60.2755 81.0569 60.069L81.8757 60.0417H103.709ZM103.709 16.375C106.604 16.375 109.381 17.5251 111.428 19.5724C113.476 21.6197 114.626 24.3964 114.626 27.2917V38.2083C114.626 41.1036 113.476 43.8803 111.428 45.9276C109.381 47.9749 106.604 49.125 103.709 49.125H81.8757C78.9804 49.125 76.2037 47.9749 74.1564 45.9276C72.1091 43.8803 70.959 41.1036 70.959 38.2083V27.2917C70.959 24.3964 72.1091 21.6197 74.1564 19.5724C76.2037 17.5251 78.9804 16.375 81.8757 16.375H103.709Z" fill="black"/>
<path fill-rule="evenodd" clip-rule="evenodd" d="M49.125 16.375C52.0203 16.375 54.797 17.5251 56.8442 19.5724C58.8915 21.6197 60.0417 24.3964 60.0417 27.2917V60.0417C60.0417 62.9369 58.8915 65.7136 56.8442 67.7609C54.797 69.8082 52.0203 70.9583 49.125 70.9583H27.2917C24.3964 70.9583 21.6197 69.8082 19.5724 67.7609C17.5251 65.7136 16.375 62.9369 16.375 60.0417V27.2917C16.375 24.3964 17.5251 21.6197 19.5724 19.5724C21.6197 17.5251 24.3964 16.375 27.2917 16.375H49.125Z" fill="black"/>
<path opacity="0.3" fill-rule="evenodd" clip-rule="evenodd" d="M49.125 81.875C52.0203 81.875 54.797 83.0251 56.8442 85.0724C58.8915 87.1197 60.0417 89.8964 60.0417 92.7917V103.708C60.0417 106.604 58.8915 109.38 56.8442 111.428C54.797 113.475 52.0203 114.625 49.125 114.625H27.2917C24.3964 114.625 21.6197 113.475 19.5724 111.428C17.5251 109.38 16.375 106.604 16.375 103.708V92.7917C16.375 89.8964 17.5251 87.1197 19.5724 85.0724C21.6197 83.0251 24.3964 81.875 27.2917 81.875H49.125Z" fill="black"/>
</g>
</svg>
