<svg width="87" height="88" viewBox="0 0 87 88" fill="none" xmlns="http://www.w3.org/2000/svg">
<g opacity="0.1">
<path d="M49.6872 8.8335C31.0533 8.85116 21.4161 9.18683 15.299 15.2995C9.18634 21.421 8.85067 31.0537 8.83301 49.6877H30.5365C28.9499 47.7046 27.8095 45.4027 27.1931 42.939C24.8213 33.4343 33.4338 24.8218 42.9385 27.1936C45.4648 27.8252 47.7527 28.9867 49.6872 30.537V8.8335ZM8.83301 56.3127C8.85067 74.9422 9.18634 84.5793 15.299 90.6964C21.4205 96.8135 31.0533 97.1448 49.6872 97.1668V62.3768C47.9451 65.8635 45.266 68.7961 41.9505 70.8454C38.635 72.8948 34.8141 73.98 30.9163 73.9793C30.0378 73.9793 29.1953 73.6303 28.5741 73.0091C27.9528 72.3879 27.6038 71.5454 27.6038 70.6668C27.6038 69.7883 27.9528 68.9458 28.5741 68.3245C29.1953 67.7033 30.0378 67.3543 30.9163 67.3543C34.1479 67.3551 37.2851 66.2653 39.8204 64.2615C42.3556 62.2577 44.1405 59.457 44.8863 56.3127H8.83301ZM56.3122 97.1668C74.9417 97.1448 84.5788 96.8135 90.6959 90.6964C96.813 84.5837 97.1443 74.9422 97.1664 56.3127H61.1131C61.8588 59.457 63.6437 62.2577 66.179 64.2615C68.7142 66.2653 71.8515 67.3551 75.083 67.3543C75.9615 67.3543 76.8041 67.7033 77.4253 68.3245C78.0465 68.9458 78.3955 69.7883 78.3955 70.6668C78.3955 71.5454 78.0465 72.3879 77.4253 73.0091C76.8041 73.6303 75.9615 73.9793 75.083 73.9793C71.1852 73.98 67.3643 72.8948 64.0488 70.8454C60.7333 68.7961 58.0543 65.8635 56.3122 62.3768V97.1668ZM97.1664 49.6877C97.1443 31.0537 96.813 21.4166 90.6959 15.2995C84.5833 9.18683 74.9417 8.85116 56.3122 8.8335V30.537C58.294 28.951 60.5943 27.8106 63.0564 27.1936C72.5655 24.8174 81.1824 33.4299 78.8018 42.939C78.1867 45.4024 77.0479 47.7042 75.4628 49.6877H97.1664Z" fill="black"/>
<path d="M41.3307 33.6248C43.7158 34.2228 45.833 35.5998 47.3468 37.5376C48.8605 39.4754 49.6841 41.863 49.687 44.3219V49.6882H44.3208C41.8618 49.6853 39.4742 48.8617 37.5364 47.348C35.5987 45.8342 34.2216 43.717 33.6236 41.3319C33.3588 40.2673 33.3739 39.1524 33.6673 38.0954C33.9608 37.0383 34.5227 36.0752 35.2983 35.2995C36.074 34.5238 37.0372 33.962 38.0942 33.6685C39.1512 33.3751 40.2661 33.36 41.3307 33.6248ZM56.312 44.3219V49.6882H61.6783C66.7353 49.6882 71.1476 46.2432 72.3754 41.3319C72.6405 40.2669 72.6255 39.1514 72.3319 38.0939C72.0382 37.0364 71.476 36.0729 70.6997 35.2971C69.9234 34.5212 68.9596 33.9595 67.9019 33.6664C66.8443 33.3734 65.7288 33.3591 64.6639 33.6248C62.2796 34.2236 60.1634 35.601 58.6505 37.5387C57.1376 39.4764 56.3147 41.8636 56.312 44.3219Z" fill="black"/>
</g>
</svg>
