<svg width="108" height="114" viewBox="0 0 108 114" fill="none" xmlns="http://www.w3.org/2000/svg">
<g opacity="0.2">
<path opacity="0.4" d="M128.457 79.1138C127.588 69.5576 125.04 59.3643 106.449 59.3643H32.5471C13.9558 59.3643 11.4654 69.5576 10.5387 79.1138L7.29541 114.385C6.89 118.787 8.33791 123.188 11.3496 126.49C14.4192 129.849 18.7629 131.76 23.3962 131.76H34.2846C43.6671 131.76 45.4625 126.374 46.6208 122.841L47.7792 119.366C49.1112 115.37 49.4587 114.385 54.6712 114.385H84.3246C89.5371 114.385 89.7108 114.964 91.2167 119.366L92.375 122.841C93.5333 126.374 95.3287 131.76 104.711 131.76H115.6C120.175 131.76 124.577 129.849 127.646 126.49C130.658 123.188 132.106 118.787 131.7 114.385L128.457 79.1138Z" fill="#292D32"/>
<path d="M121.625 41.9898H115.833C115.775 41.9898 115.775 41.9898 115.717 41.9898L113.517 31.5069C111.432 21.3715 107.088 12.0469 89.8288 12.0469H73.8438H65.1562H49.1712C31.9121 12.0469 27.5683 21.3715 25.4833 31.5069L23.2825 41.9898C23.2246 41.9898 23.2246 41.9898 23.1667 41.9898H17.375C15.0004 41.9898 13.0312 43.959 13.0312 46.3335C13.0312 48.7081 15.0004 50.6773 17.375 50.6773H21.4871L19.0546 62.2606C22.1821 60.4652 26.5258 59.3648 32.5492 59.3648H106.451C112.474 59.3648 116.818 60.4652 119.945 62.2606L117.513 50.6773H121.625C124 50.6773 125.969 48.7081 125.969 46.3335C125.969 43.959 124 41.9898 121.625 41.9898Z" fill="#292D32"/>
<path d="M52.125 91.2188H34.75C32.3754 91.2188 30.4062 89.2496 30.4062 86.875C30.4062 84.5004 32.3754 82.5312 34.75 82.5312H52.125C54.4996 82.5312 56.4688 84.5004 56.4688 86.875C56.4688 89.2496 54.4996 91.2188 52.125 91.2188Z" fill="#292D32"/>
<path d="M104.25 91.2188H86.875C84.5004 91.2188 82.5312 89.2496 82.5312 86.875C82.5312 84.5004 84.5004 82.5312 86.875 82.5312H104.25C106.625 82.5312 108.594 84.5004 108.594 86.875C108.594 89.2496 106.625 91.2188 104.25 91.2188Z" fill="#292D32"/>
</g>
</svg>
