<svg width="108" height="114" viewBox="0 0 108 114" fill="none" xmlns="http://www.w3.org/2000/svg">
<g opacity="0.1">
<path d="M80.2131 32.7467L76.3911 25.8823L85.3523 26.2921L81.1414 19.91L89.3326 20.0511L84.8948 14.399L93.4062 15.1158L88.6807 9.24453L95.974 7.14384C73.5202 -5.45647 61.6996 20.0797 60.3805 43.74C53.5485 19.7785 33.3975 -4.82169 13.1264 16.6312L21.0336 16.0803L17.9149 23.4442L26.2605 19.7289L23.3706 26.7763L31.558 23.7301L29.8519 29.0447C18.5364 25.4248 8.16637 28.1297 3.8125 42.9375L10.5873 39.3042L11.2011 47.3085L16.918 40.5966L17.5871 48.214L23.4717 42.1826L24.8098 50.2098L31.0642 43.4122L33.1649 52.1313L38.8074 46.2258L40.1742 51.3498C24.4496 53.8222 12.8348 62.3107 22.8864 78.5234L24.3066 72.3509L29.8843 76.9564L28.6967 69.4954L34.059 73.8283L33.407 66.6875L39.4117 70.8869L38.4681 63.058L45.3478 67.2498L44.652 60.3282L46.6726 61.4986C47.4275 63.8796 48.9544 65.8449 51.0608 67.0344C51.6651 67.3775 52.3151 67.6349 52.9842 67.8369L62.119 118.187H65.0241L64.6943 116.372L77.0163 114.084L63.8727 111.85L62.3973 103.711L74.5267 101.454L61.589 99.2634L60.0736 90.9121L71.2747 88.8286L59.3282 86.8022L57.7651 78.186L68.4248 76.2035L57.056 74.2743L55.9618 68.2468C57.4707 68.2129 58.9553 67.8595 60.3176 67.2098C61.061 67.9837 61.8864 68.6433 62.8014 69.1198L58.6706 69.8881L70.1786 71.842L72.8454 80.7003L63.0969 82.5151L73.9453 84.3527L76.6389 93.3025L66.7569 95.1401L77.754 97.0064L80.4113 105.832L70.0108 107.767L81.5856 109.731L84.1323 118.187H87.1175L72.0715 68.2048C73.5226 66.8982 74.4171 65.0847 74.5706 63.138C74.6334 62.2131 74.5458 61.2842 74.3113 60.3873L78.4079 57.812L77.4071 64.3675L83.8922 60.1128L82.6226 67.5434L88.307 63.3134L87.3425 70.0749L92.4512 65.7515L90.9815 72.8408L96.298 68.2544L97.2702 74.0113C107.583 57.7586 96.4334 50.2937 81.5189 49.0013L83.1888 43.2291L88.8293 48.6791L90.9338 40.629L97.1883 46.9025L98.5245 39.4967L104.407 45.063L105.082 38.0327L110.793 44.2242L111.407 36.8375L118.188 40.1944C112.316 21.7762 95.5336 23.6196 80.2131 32.7467ZM36.9603 32.0547C35.525 31.3002 34.052 30.6194 32.5473 30.015L37.9858 27.8267L36.9603 32.0547ZM43.2776 35.8653C42.5507 35.3697 41.8225 34.8925 41.093 34.4337L43.8113 33.3948L43.2776 35.8653ZM44.6672 50.8141L45.9559 49.5045L46.4515 50.6826C45.8563 50.7195 45.2615 50.7633 44.6672 50.8141ZM76.5531 48.8297C76.2672 48.3093 75.924 47.8194 75.5409 47.3543L76.0422 46.2563L78.7948 48.8373C78.0552 48.8106 77.3023 48.8278 76.5531 48.8297ZM74.4219 36.5897L72.5595 33.0383L79.4258 33.2232C77.713 34.2772 76.0437 35.4003 74.4219 36.5897Z" fill="black"/>
</g>
</svg>
