<svg width="107" height="114" viewBox="0 0 107 114" fill="none" xmlns="http://www.w3.org/2000/svg">
<g opacity="0.2">
<path opacity="0.4" d="M123.073 52.9945C109.694 31.9708 90.118 19.8662 69.4997 19.8662C59.1905 19.8662 49.1709 22.8779 40.0201 28.4958C30.8693 34.1716 22.6451 42.4537 15.9268 52.9945C10.1351 62.0875 10.1351 76.8562 15.9268 85.9491C29.3055 107.031 48.8813 119.077 69.4997 119.077C79.8088 119.077 89.8284 116.066 98.9793 110.448C108.13 104.772 116.354 96.49 123.073 85.9491C128.864 76.9141 128.864 62.0875 123.073 52.9945ZM69.4997 92.8991C56.5263 92.8991 46.1013 82.4162 46.1013 69.5008C46.1013 56.5854 56.5263 46.1025 69.4997 46.1025C82.473 46.1025 92.898 56.5854 92.898 69.5008C92.898 82.4162 82.473 92.8991 69.4997 92.8991Z" fill="#292D32"/>
<path d="M69.5023 52.9365C60.4094 52.9365 52.9961 60.3499 52.9961 69.5007C52.9961 78.5936 60.4094 86.0069 69.5023 86.0069C78.5953 86.0069 86.0665 78.5936 86.0665 69.5007C86.0665 60.4078 78.5953 52.9365 69.5023 52.9365Z" fill="#292D32"/>
</g>
</svg>
