<svg width="95" height="101" viewBox="0 0 95 101" fill="none" xmlns="http://www.w3.org/2000/svg">
<g opacity="0.2">
<path opacity="0.4" d="M20.1161 73.9104L12.4528 66.2472C9.32694 63.1214 9.32694 57.9788 12.4528 54.853L20.1161 47.1896C21.4269 45.8787 22.4856 43.3075 22.4856 41.4925V30.6531C22.4856 26.2164 26.1157 22.5862 30.5523 22.5862H41.3919C43.2069 22.5862 45.7782 21.5276 47.089 20.2168L54.7523 12.5534C57.8781 9.42753 63.0207 9.42753 66.1465 12.5534L73.8099 20.2168C75.1208 21.5276 77.6919 22.5862 79.5069 22.5862H90.3466C94.7832 22.5862 98.4131 26.2164 98.4131 30.6531V41.4925C98.4131 43.3075 99.4719 45.8787 100.783 47.1896L108.446 54.853C111.572 57.9788 111.572 63.1214 108.446 66.2472L100.783 73.9104C99.4719 75.2212 98.4131 77.7925 98.4131 79.6075V90.4472C98.4131 94.8838 94.7832 98.5137 90.3466 98.5137H79.5069C77.6919 98.5137 75.1208 99.5726 73.8099 100.883L66.1465 108.547C63.0207 111.673 57.8781 111.673 54.7523 108.547L47.089 100.883C45.7782 99.5726 43.2069 98.5137 41.3919 98.5137H30.5523C26.1157 98.5137 22.4856 94.8838 22.4856 90.4472V79.6075C22.4856 77.742 21.4269 75.1708 20.1161 73.9104Z" fill="#292D32"/>
<path d="M75.6263 80.6663C72.803 80.6663 70.5342 78.3976 70.5342 75.6247C70.5342 72.8518 72.8029 70.583 75.5758 70.583C78.3488 70.583 80.6175 72.8518 80.6175 75.6247C80.6175 78.3976 78.3992 80.6663 75.6263 80.6663Z" fill="#292D32"/>
<path d="M45.4251 50.4168C42.6018 50.4168 40.333 48.1481 40.333 45.3752C40.333 42.6022 42.6018 40.3335 45.3747 40.3335C48.1476 40.3335 50.4163 42.6022 50.4163 45.3752C50.4163 48.1481 48.1981 50.4168 45.4251 50.4168Z" fill="#292D32"/>
<path d="M45.377 79.406C44.4191 79.406 43.4612 79.0532 42.705 78.297C41.2429 76.8349 41.2429 74.4146 42.705 72.9525L72.955 42.7025C74.417 41.2404 76.837 41.2404 78.2991 42.7025C79.7612 44.1646 79.7612 46.5849 78.2991 48.047L48.0491 78.297C47.2929 79.0532 46.335 79.406 45.377 79.406Z" fill="#292D32"/>
</g>
</svg>
