<svg width="95" height="92" viewBox="0 0 95 92" fill="none" xmlns="http://www.w3.org/2000/svg">
<g opacity="0.2">
<path opacity="0.4" d="M44.2497 9.8335C31.368 9.8335 20.8955 20.306 20.8955 33.1877C20.8955 45.8235 30.778 56.0502 43.6597 56.4927C44.053 56.4435 44.4463 56.4435 44.7413 56.4927C44.8397 56.4927 44.8888 56.4927 44.9872 56.4927C45.0363 56.4927 45.0363 56.4927 45.0855 56.4927C57.6722 56.0502 67.5547 45.8235 67.6038 33.1877C67.6038 20.306 57.1313 9.8335 44.2497 9.8335Z" fill="#292D32"/>
<path d="M69.2267 69.5707C55.5092 60.4257 33.1384 60.4257 19.3226 69.5707C13.0784 73.7498 9.63672 79.404 9.63672 85.4515C9.63672 91.499 13.0784 97.104 19.2734 101.234C26.1567 105.856 35.2034 108.167 44.2501 108.167C53.2967 108.167 62.3434 105.856 69.2267 101.234C75.4217 97.0548 78.8634 91.4498 78.8634 85.3532C78.8142 79.3057 75.4217 73.7007 69.2267 69.5707Z" fill="#292D32"/>
<path opacity="0.4" d="M98.286 36.089C99.0726 45.6273 92.2876 53.9857 82.8968 55.1165C82.8476 55.1165 82.8476 55.1165 82.7985 55.1165H82.651C82.356 55.1165 82.061 55.1165 81.8151 55.2148C77.046 55.4607 72.6701 53.9365 69.376 51.134C74.4401 46.6107 77.341 39.8257 76.751 32.4507C76.4068 28.4682 75.0301 24.8298 72.9651 21.7323C74.8335 20.7982 76.9968 20.2082 79.2093 20.0115C88.846 19.1757 97.4501 26.354 98.286 36.089Z" fill="#292D32"/>
<path d="M108.118 81.5672C107.725 86.3363 104.677 90.4663 99.5635 93.2688C94.6468 95.973 88.4518 97.2513 82.306 97.1038C85.846 93.908 87.911 89.9255 88.3043 85.6972C88.796 79.6005 85.8952 73.7497 80.0935 69.0788C76.7993 66.473 72.9643 64.408 68.7852 62.8838C79.651 59.7372 93.3193 61.8513 101.727 68.6363C106.25 72.2747 108.561 76.8472 108.118 81.5672Z" fill="#292D32"/>
</g>
</svg>
