<svg width="98" height="101" viewBox="0 0 98 101" fill="none" xmlns="http://www.w3.org/2000/svg">
<g opacity="0.1">
<path d="M40.9372 73.688V68.2297H90.0622V73.688H40.9372ZM40.9372 95.5214V90.063H73.6872V95.5214H40.9372ZM30.6537 114.626C28.1392 114.626 26.0414 113.785 24.3602 112.104C22.679 110.423 21.8366 108.325 21.833 105.81V36.1074C21.833 33.5966 22.6754 31.5006 24.3602 29.8194C26.045 28.1382 28.1428 27.2958 30.6537 27.2922H40.3095V15.1201H46.1881V27.2922H85.237V15.1201H90.6953V27.2922H100.351C102.862 27.2922 104.96 28.1346 106.645 29.8194C108.329 31.5042 109.17 33.602 109.166 36.1129V105.81C109.166 108.321 108.326 110.419 106.645 112.104C104.963 113.789 102.864 114.629 100.346 114.626H30.6537ZM30.6537 109.167H100.351C101.188 109.167 101.958 108.818 102.66 108.119C103.362 107.421 103.712 106.649 103.708 105.805V57.9462H27.2913V105.81C27.2913 106.647 27.6407 107.417 28.3393 108.119C29.038 108.822 29.8076 109.171 30.6482 109.167" fill="black"/>
</g>
</svg>
