<svg width="101" height="30" viewBox="0 0 101 30" fill="none" xmlns="http://www.w3.org/2000/svg">
<g clip-path="url(#clip0_166_1022)">
<path d="M47.9652 7.74219H52.4434V22.2565H49.1249V12.496L44.8797 22.2565L40.4118 12.4838V22.2565H37.3154V7.74219H41.7415L44.9325 15.2546L47.9652 7.74219Z" fill="#999999"/>
<path d="M54.0928 7.74219V22.2565H62.432V19.7958H57.3256V16.1033H62.2209V13.6194H57.3256V10.2894H62.432V7.74219H54.0928Z" fill="#999999"/>
<path d="M74.8701 15.0018C74.8701 20.4046 80.4849 24.728 86.401 21.8363V18.7267C81.8487 21.9293 77.8861 18.7194 77.9511 15.1259C77.9954 12.7377 79.5935 10.4664 82.6848 10.2893C84.205 10.2027 85.2347 10.5821 86.401 11.7035V8.46989C82.1261 5.92587 74.8701 8.72584 74.8701 15.0018Z" fill="#999999"/>
<path d="M87.7656 22.2565H90.8395V7.88184H87.7656V22.2565Z" fill="#999999"/>
<path d="M94.6963 14.4733L99.3412 7.91357H95.7512L91.1494 14.461L96.492 22.2566H100.017L94.6963 14.4733Z" fill="#999999"/>
<path d="M63.8691 7.74219V22.2565H67.1132V14.4587L72.4758 22.2565H75.9339L71.6886 16.162C73.6561 15.4148 74.2944 13.7581 74.2944 12.1022C74.2944 10.4475 72.9113 7.74219 69.5607 7.74219H63.8691ZM67.1132 10.1575H68.5293C70.9234 10.1575 71.0512 11.7292 71.0512 12.3161C71.0512 13.4375 70.1038 14.3925 68.881 14.3925H67.1132V10.1575Z" fill="#999999"/>
<path d="M8.20882 7.74263C8.20882 3.73401 11.4449 0.484863 15.4359 0.484863C19.4281 0.484863 22.6629 3.73401 22.6629 7.74263H8.20882ZM8.20882 22.2576C8.20882 18.2496 11.4449 14.9998 15.4359 14.9998C11.4449 14.9998 8.20882 11.7513 8.20882 7.74263C4.21783 7.74263 0.982422 10.9918 0.982422 14.9998C0.982422 19.0091 4.21783 22.2576 8.20882 22.2576ZM8.20882 22.2576C8.20882 26.2668 11.4449 29.5154 15.4359 29.5154C19.4281 29.5154 22.6629 26.2668 22.6629 22.2576H8.20882ZM15.4359 14.9998C19.4281 14.9998 22.6629 18.2496 22.6629 22.2576C26.6545 22.2576 29.8906 19.0091 29.8906 14.9998C29.8906 10.9918 26.6545 7.74263 22.6629 7.74263C22.6629 11.7513 19.4281 14.9998 15.4359 14.9998Z" fill="#999999"/>
</g>
<defs>
<clipPath id="clip0_166_1022">
<rect width="100" height="30" fill="white" transform="translate(0.5)"/>
</clipPath>
</defs>
</svg>
