<svg width="34" height="34" viewBox="0 0 34 34" fill="none" xmlns="http://www.w3.org/2000/svg">
<path d="M1.59375 34H16.4688C16.6096 34 16.7448 33.944 16.8444 33.8444C16.944 33.7448 17 33.6096 17 33.4688C17 33.3279 16.944 33.1927 16.8444 33.0931C16.7448 32.9935 16.6096 32.9375 16.4688 32.9375H1.59375C1.45285 32.9375 1.31773 32.8815 1.2181 32.7819C1.11847 32.6823 1.0625 32.5471 1.0625 32.4062V1.59375C1.0625 1.45285 1.11847 1.31773 1.2181 1.2181C1.31773 1.11847 1.45285 1.0625 1.59375 1.0625H23.9062C24.0471 1.0625 24.1823 1.11847 24.2819 1.2181C24.3815 1.31773 24.4375 1.45285 24.4375 1.59375V6.90625C24.4375 7.04715 24.4935 7.18227 24.5931 7.2819C24.6927 7.38153 24.8279 7.4375 24.9688 7.4375C25.1096 7.4375 25.2448 7.38153 25.3444 7.2819C25.444 7.18227 25.5 7.04715 25.5 6.90625V1.59375C25.5 0.715062 24.7849 0 23.9062 0H1.59375C0.715062 0 0 0.715062 0 1.59375V32.4062C0 33.2849 0.715062 34 1.59375 34Z" fill="#DB3A06"/>
<path d="M19.125 11.1562V32.4062C19.125 33.2849 19.8401 34 20.7188 34H32.4062C33.2849 34 34 33.2849 34 32.4062V11.1562C34 10.2776 33.2849 9.5625 32.4062 9.5625H20.7188C19.8401 9.5625 19.125 10.2776 19.125 11.1562ZM32.9375 11.1562V32.4062C32.9375 32.5471 32.8815 32.6823 32.7819 32.7819C32.6823 32.8815 32.5471 32.9375 32.4062 32.9375H20.7188C20.5779 32.9375 20.4427 32.8815 20.3431 32.7819C20.2435 32.6823 20.1875 32.5471 20.1875 32.4062V11.1562C20.1875 11.0154 20.2435 10.8802 20.3431 10.7806C20.4427 10.681 20.5779 10.625 20.7188 10.625H32.4062C32.5471 10.625 32.6823 10.681 32.7819 10.7806C32.8815 10.8802 32.9375 11.0154 32.9375 11.1562Z" fill="#DB3A06"/>
<path d="M12.75 30.8125C13.3368 30.8125 13.8125 30.3368 13.8125 29.75C13.8125 29.1632 13.3368 28.6875 12.75 28.6875C12.1632 28.6875 11.6875 29.1632 11.6875 29.75C11.6875 30.3368 12.1632 30.8125 12.75 30.8125Z" fill="#DB3A06"/>
<path d="M26.5625 30.8125C27.1493 30.8125 27.625 30.3368 27.625 29.75C27.625 29.1632 27.1493 28.6875 26.5625 28.6875C25.9757 28.6875 25.5 29.1632 25.5 29.75C25.5 30.3368 25.9757 30.8125 26.5625 30.8125Z" fill="#DB3A06"/>
</svg>
