<svg width="40" height="40" viewBox="0 0 40 40" fill="none" xmlns="http://www.w3.org/2000/svg">
<path d="M31.5903 4.38758C26.3558 1.40164 19.6636 3.17371 16.6411 8.34242L16.2304 9.04686C16.1599 9.16646 16.1139 9.29896 16.0954 9.43656C16.0768 9.57417 16.086 9.7141 16.1223 9.84812C16.1587 9.98213 16.2215 10.1075 16.307 10.2169C16.3925 10.3263 16.4991 10.4174 16.6204 10.485L24.3838 14.9127L19.738 22.9418H19.6405C15.1518 22.9418 11.264 25.5134 8.94716 29.1489C9.34321 29.011 9.76465 28.9613 10.1819 29.0034C10.5992 29.0455 11.0022 29.1784 11.3627 29.3927C13.3688 26.7724 16.3633 25.0478 19.6417 25.0478C23.0591 25.0478 26.1681 26.921 28.1717 29.7315C28.7336 29.2217 29.4748 28.9556 30.2326 28.9917C28.3399 26.1033 25.4454 23.9095 22.0487 23.1929L26.2315 15.9657L33.7268 20.2399C33.9717 20.3787 34.2613 20.4161 34.5335 20.3442C34.8057 20.2722 35.0389 20.0965 35.1832 19.8547L35.5951 19.1503C38.6164 13.9816 36.8248 7.37108 31.5903 4.38758ZM28.474 14.8128L23.9865 12.2534C24.8007 11.0164 25.5733 10.0743 26.5008 9.24186C27.4027 8.43139 28.4813 7.6977 29.9426 6.90064C30.1583 8.24127 30.2241 9.35764 30.0852 10.4521C29.9206 11.761 29.4514 13.109 28.474 14.8128ZM30.3204 15.8658C31.4002 13.9877 31.9925 12.3704 32.2021 10.7129C32.3386 9.62699 32.3082 8.55449 32.1704 7.42227C35.015 10.073 35.7987 14.3643 33.8645 17.8877L30.3204 15.8658ZM25.0663 7.68308C23.9414 8.69342 23.0396 9.81589 22.1377 11.2004L18.6118 9.18946C20.6898 5.84521 24.7178 4.36077 28.4021 5.34064C27.0822 6.09261 26.0072 6.83849 25.0663 7.68308ZM10.9081 31.4658C10.8338 31.2477 10.6907 31.0597 10.5004 30.9298C10.3101 30.7999 10.0828 30.7353 9.85269 30.7455C9.6227 30.7534 9.40153 30.8359 9.22257 30.9806C9.04361 31.1252 8.91656 31.3242 8.86063 31.5474C8.49866 33.0099 7.8125 33.8119 7.03006 34.2786C6.21106 34.7661 5.16903 34.9563 4.00391 34.9563C3.7229 34.9546 3.45275 35.0646 3.25279 35.2621C3.05283 35.4595 2.93943 35.7283 2.9375 36.0093C2.93943 36.2903 3.05283 36.559 3.25279 36.7565C3.45275 36.9539 3.7229 37.0639 4.00391 37.0623C5.36403 37.0623 6.84725 36.8478 8.13181 36.0824C8.89771 35.6283 9.54443 34.9983 10.0184 34.2445C12.562 37.4486 17.5259 37.4315 19.9963 34.2104C22.5057 37.4827 27.5892 37.4486 30.0937 34.0897C31.4782 35.9703 33.7353 37.0623 35.99 37.0623C36.2708 37.0636 36.5406 36.9534 36.7403 36.756C36.94 36.5586 37.0533 36.2901 37.0552 36.0093C37.0533 35.7285 36.94 35.4599 36.7403 35.2625C36.5406 35.0651 36.2708 34.955 35.99 34.9563C33.8938 34.9563 31.8036 33.6083 31.1126 31.4767C31.0433 31.2637 30.9083 31.0781 30.7271 30.9465C30.5458 30.8149 30.3275 30.7441 30.1034 30.7443C29.8793 30.7415 29.6601 30.8099 29.4773 30.9395C29.2944 31.0692 29.1574 31.2534 29.0858 31.4658C27.7159 35.5486 22.3485 35.4974 21.0055 31.6364C20.9327 31.4272 20.7962 31.2461 20.6152 31.1185C20.4342 30.9908 20.2178 30.923 19.9963 30.9246C19.7752 30.9232 19.5592 30.9909 19.3785 31.1183C19.1977 31.2457 19.0614 31.4264 18.9884 31.6352C17.6442 35.4986 12.278 35.5498 10.9081 31.4658Z" fill="#DB3A06"/>
</svg>
