<svg width="40" height="40" viewBox="0 0 40 40" fill="none" xmlns="http://www.w3.org/2000/svg">
<path d="M2.125 36.25C2.125 37.1275 2.85625 37.875 3.75 37.875H24.875C25.785 37.875 26.5 37.1275 26.5 36.25V34.625H2.125V36.25ZM14.3125 15.125C8.21875 15.125 2.125 18.375 2.125 24.875H26.5C26.5 18.375 20.4062 15.125 14.3125 15.125ZM6.3825 21.625C8.18625 19.1063 12.0212 18.375 14.3125 18.375C16.6038 18.375 20.4387 19.1063 22.2425 21.625H6.3825ZM2.125 28.125H26.5V31.375H2.125V28.125ZM29.75 8.625V2.125H26.5V8.625H18.375L18.7487 11.875H34.2838L32.0087 34.625H29.75V37.875H32.545C33.91 37.875 35.0312 36.8188 35.1938 35.4863L37.875 8.625H29.75Z" fill="#DB3A06"/>
</svg>
