<svg width="40" height="40" viewBox="0 0 40 40" fill="none" xmlns="http://www.w3.org/2000/svg">
<path d="M10.3337 3.28565C8.96314 3.28565 7.8015 4.31358 7.65943 5.68833C7.45328 7.64947 7.11621 11.1999 7.11621 13.3839C7.11621 15.4453 8.06057 17.2867 9.5356 18.4984C10.0203 18.8968 10.2501 19.3342 10.2501 19.7019V20.6239L10.2487 20.6894C10.1916 21.5237 9.55371 30.8392 9.55371 32.5357C9.55371 33.0844 9.66179 33.6278 9.87179 34.1347C10.0818 34.6417 10.3896 35.1023 10.7776 35.4903C11.1656 35.8784 11.6262 36.1862 12.1332 36.3961C12.6402 36.6061 13.1835 36.7142 13.7323 36.7142C14.281 36.7142 14.8244 36.6061 15.3314 36.3961C15.8383 36.1862 16.299 35.8784 16.687 35.4903C17.075 35.1023 17.3828 34.6417 17.5928 34.1347C17.8028 33.6278 17.9109 33.0844 17.9109 32.5357C17.9109 30.8392 17.2743 21.5237 17.2158 20.6894L17.2144 20.6239V19.7019C17.2144 19.3328 17.4442 18.8968 17.929 18.4984C18.6861 17.8785 19.2959 17.098 19.7143 16.2135C20.1327 15.3289 20.3493 14.3624 20.3484 13.3839C20.3484 11.1999 20.0113 7.64947 19.8051 5.68833C19.7355 5.02798 19.4236 4.41687 18.9297 3.9731C18.4358 3.52933 17.7949 3.2844 17.1309 3.28565C16.4943 3.28565 15.9079 3.50572 15.4455 3.87483C14.956 3.49304 14.353 3.28567 13.7323 3.28565C13.1115 3.28567 12.5085 3.49304 12.0191 3.87483C11.5408 3.49217 10.9462 3.28431 10.3337 3.28565ZM13.0359 6.07137C13.0359 5.88666 13.1092 5.70952 13.2398 5.57892C13.3704 5.44831 13.5476 5.37494 13.7323 5.37494C13.917 5.37494 14.0941 5.44831 14.2247 5.57892C14.3553 5.70952 14.4287 5.88666 14.4287 6.07137V13.3839C14.4287 13.6609 14.5388 13.9266 14.7347 14.1225C14.9306 14.3184 15.1963 14.4285 15.4734 14.4285C15.7504 14.4285 16.0161 14.3184 16.212 14.1225C16.4079 13.9266 16.518 13.6609 16.518 13.3839V5.98779C16.518 5.82525 16.5826 5.66937 16.6975 5.55444C16.8124 5.43951 16.9683 5.37494 17.1309 5.37494C17.4442 5.37494 17.6977 5.60754 17.7284 5.90562C17.9345 7.88347 18.2591 11.3266 18.2591 13.3839C18.2601 14.0536 18.112 14.7152 17.8255 15.3206C17.5391 15.9261 17.1214 16.4601 16.603 16.8841C15.8536 17.4998 15.1251 18.472 15.1251 19.7019V20.6239C15.1251 20.6936 15.1265 20.7577 15.1321 20.8329C15.1934 21.7313 15.8216 30.9325 15.8216 32.5357C15.8216 33.0898 15.6014 33.6212 15.2096 34.013C14.8178 34.4048 14.2864 34.6249 13.7323 34.6249C13.1782 34.6249 12.6468 34.4048 12.2549 34.013C11.8631 33.6212 11.643 33.0898 11.643 32.5357C11.643 30.9339 12.2698 21.7313 12.3325 20.8329C12.338 20.7577 12.3394 20.6936 12.3394 20.6239V19.7019C12.3394 18.4706 11.611 17.4998 10.8616 16.8841C10.3431 16.4601 9.9255 15.9261 9.63905 15.3206C9.3526 14.7152 9.2045 14.0536 9.2055 13.3839C9.2055 11.3266 9.53003 7.88487 9.73618 5.90562C9.75208 5.75875 9.82208 5.62306 9.93253 5.52496C10.043 5.42687 10.186 5.37339 10.3337 5.37494C10.4963 5.37494 10.6521 5.43951 10.7671 5.55444C10.882 5.66937 10.9466 5.82525 10.9466 5.98779V13.3839C10.9466 13.6609 11.0566 13.9266 11.2525 14.1225C11.4484 14.3184 11.7142 14.4285 11.9912 14.4285C12.2683 14.4285 12.534 14.3184 12.7299 14.1225C12.9258 13.9266 13.0359 13.6609 13.0359 13.3839V6.07137ZM31.8394 5.38329V18.9553C31.8394 19.4428 31.9704 21.7368 32.1152 24.2621L32.1236 24.4083C32.3186 27.8013 32.5359 31.6024 32.5359 32.5357C32.5359 33.0898 32.3157 33.6212 31.9239 34.013C31.5321 34.4048 31.0007 34.6249 30.4466 34.6249C29.8925 34.6249 29.361 34.4048 28.9692 34.013C28.5774 33.6212 28.3573 33.0898 28.3573 32.5357C28.3573 31.7069 28.5286 28.3529 28.7041 25.1535C28.8068 23.2785 28.9127 21.4038 29.0217 19.5292L29.0523 19.0166L29.0537 18.9553C29.0537 18.6782 28.9437 18.4125 28.7477 18.2166C28.5518 18.0207 28.2861 17.9107 28.0091 17.9107H25.2234C25.131 17.9107 25.0424 17.874 24.9771 17.8087C24.9118 17.7434 24.8751 17.6548 24.8751 17.5624V12.6874C24.8752 10.8083 25.5986 9.00136 26.8953 7.64137C28.192 6.28138 29.9625 5.47277 31.8394 5.38329ZM26.9017 19.9999L26.8572 20.7744C26.7917 21.9123 26.704 23.4487 26.6176 25.0393C26.4449 28.1969 26.268 31.6331 26.268 32.5357C26.268 33.0844 26.3761 33.6278 26.5861 34.1347C26.7961 34.6417 27.1039 35.1023 27.4919 35.4903C27.8799 35.8784 28.3405 36.1862 28.8475 36.3961C29.3545 36.6061 29.8978 36.7142 30.4466 36.7142C30.9953 36.7142 31.5387 36.6061 32.0456 36.3961C32.5526 36.1862 33.0132 35.8784 33.4013 35.4903C33.7893 35.1023 34.0971 34.6417 34.3071 34.1347C34.5171 33.6278 34.6251 33.0844 34.6251 32.5357C34.6251 31.5314 34.4051 27.6969 34.2156 24.3805L34.2101 24.2885C34.0582 21.6435 33.9287 19.3732 33.9287 18.9553V4.33029C33.9287 4.05324 33.8186 3.78753 33.6227 3.59162C33.4268 3.39571 33.1611 3.28565 32.8841 3.28565H32.1876C29.6941 3.28565 27.3027 4.27619 25.5396 6.03937C23.7764 7.80255 22.7859 10.1939 22.7859 12.6874V17.5624C22.7859 18.9079 23.8779 19.9999 25.2234 19.9999H26.9017Z" fill="#DB3A06"/>
</svg>
