<svg width="157" height="31" viewBox="0 0 157 31" fill="none" xmlns="http://www.w3.org/2000/svg">
<path opacity="0.4" d="M7.17519 20.4995C7.31269 19.887 7.06269 19.012 6.62519 18.5745L3.58769 15.537C2.63769 14.587 2.26269 13.5745 2.53769 12.6995C2.82519 11.8245 3.71269 11.2245 5.03769 10.9995L8.93769 10.3495C9.50019 10.2495 10.1877 9.74951 10.4502 9.23701L12.6002 4.92451C13.2252 3.68701 14.0752 2.99951 15.0002 2.99951C15.9252 2.99951 16.7752 3.68701 17.4002 4.92451L19.5502 9.23701C19.7127 9.56201 20.0502 9.87451 20.4127 10.087L6.95019 23.5495C6.77519 23.7245 6.47519 23.562 6.52519 23.312L7.17519 20.4995Z" fill="#DB3A06"/>
<path d="M23.375 18.5749C22.925 19.0249 22.675 19.8874 22.825 20.4999L23.6875 24.2624C24.05 25.8249 23.825 26.9999 23.05 27.5624C22.7375 27.7874 22.3625 27.8999 21.925 27.8999C21.2875 27.8999 20.5375 27.6624 19.7125 27.1749L16.05 24.9999C15.475 24.6624 14.525 24.6624 13.95 24.9999L10.2875 27.1749C8.9 27.9874 7.7125 28.1249 6.95 27.5624C6.6625 27.3499 6.45 27.0624 6.3125 26.6874L21.5125 11.4874C22.0875 10.9124 22.9 10.6499 23.6875 10.7874L24.95 10.9999C26.275 11.2249 27.1625 11.8249 27.45 12.6999C27.725 13.5749 27.35 14.5874 26.4 15.5374L23.375 18.5749Z" fill="#DB3A06"/>
<path opacity="0.4" d="M48.1752 20.4995C48.3127 19.887 48.0627 19.012 47.6252 18.5745L44.5877 15.537C43.6377 14.587 43.2627 13.5745 43.5377 12.6995C43.8252 11.8245 44.7127 11.2245 46.0377 10.9995L49.9377 10.3495C50.5002 10.2495 51.1877 9.74951 51.4502 9.23701L53.6002 4.92451C54.2252 3.68701 55.0752 2.99951 56.0002 2.99951C56.9252 2.99951 57.7752 3.68701 58.4002 4.92451L60.5502 9.23701C60.7127 9.56201 61.0502 9.87451 61.4127 10.087L47.9502 23.5495C47.7752 23.7245 47.4752 23.562 47.5252 23.312L48.1752 20.4995Z" fill="#DB3A06"/>
<path d="M64.375 18.5749C63.925 19.0249 63.675 19.8874 63.825 20.4999L64.6875 24.2624C65.05 25.8249 64.825 26.9999 64.05 27.5624C63.7375 27.7874 63.3625 27.8999 62.925 27.8999C62.2875 27.8999 61.5375 27.6624 60.7125 27.1749L57.05 24.9999C56.475 24.6624 55.525 24.6624 54.95 24.9999L51.2875 27.1749C49.9 27.9874 48.7125 28.1249 47.95 27.5624C47.6625 27.3499 47.45 27.0624 47.3125 26.6874L62.5125 11.4874C63.0875 10.9124 63.9 10.6499 64.6875 10.7874L65.95 10.9999C67.275 11.2249 68.1625 11.8249 68.45 12.6999C68.725 13.5749 68.35 14.5874 67.4 15.5374L64.375 18.5749Z" fill="#DB3A06"/>
<path opacity="0.4" d="M89.1752 20.4995C89.3127 19.887 89.0627 19.012 88.6252 18.5745L85.5877 15.537C84.6377 14.587 84.2627 13.5745 84.5377 12.6995C84.8252 11.8245 85.7127 11.2245 87.0377 10.9995L90.9377 10.3495C91.5002 10.2495 92.1877 9.74951 92.4502 9.23701L94.6002 4.92451C95.2252 3.68701 96.0752 2.99951 97.0002 2.99951C97.9252 2.99951 98.7752 3.68701 99.4002 4.92451L101.55 9.23701C101.713 9.56201 102.05 9.87451 102.413 10.087L88.9502 23.5495C88.7752 23.7245 88.4752 23.562 88.5252 23.312L89.1752 20.4995Z" fill="#DB3A06"/>
<path d="M105.375 18.5749C104.925 19.0249 104.675 19.8874 104.825 20.4999L105.688 24.2624C106.05 25.8249 105.825 26.9999 105.05 27.5624C104.738 27.7874 104.363 27.8999 103.925 27.8999C103.288 27.8999 102.538 27.6624 101.713 27.1749L98.05 24.9999C97.475 24.6624 96.525 24.6624 95.95 24.9999L92.2875 27.1749C90.9 27.9874 89.7125 28.1249 88.95 27.5624C88.6625 27.3499 88.45 27.0624 88.3125 26.6874L103.512 11.4874C104.087 10.9124 104.9 10.6499 105.688 10.7874L106.95 10.9999C108.275 11.2249 109.163 11.8249 109.45 12.6999C109.725 13.5749 109.35 14.5874 108.4 15.5374L105.375 18.5749Z" fill="#DB3A06"/>
<path opacity="0.4" d="M130.175 20.4995C130.313 19.887 130.063 19.012 129.625 18.5745L126.588 15.537C125.638 14.587 125.263 13.5745 125.538 12.6995C125.825 11.8245 126.713 11.2245 128.038 10.9995L131.938 10.3495C132.5 10.2495 133.188 9.74951 133.45 9.23701L135.6 4.92451C136.225 3.68701 137.075 2.99951 138 2.99951C138.925 2.99951 139.775 3.68701 140.4 4.92451L142.55 9.23701C142.713 9.56201 143.05 9.87451 143.413 10.087L129.95 23.5495C129.775 23.7245 129.475 23.562 129.525 23.312L130.175 20.4995Z" fill="#DB3A06"/>
<path d="M146.375 18.5749C145.925 19.0249 145.675 19.8874 145.825 20.4999L146.688 24.2624C147.05 25.8249 146.825 26.9999 146.05 27.5624C145.738 27.7874 145.363 27.8999 144.925 27.8999C144.288 27.8999 143.538 27.6624 142.713 27.1749L139.05 24.9999C138.475 24.6624 137.525 24.6624 136.95 24.9999L133.287 27.1749C131.9 27.9874 130.712 28.1249 129.95 27.5624C129.662 27.3499 129.45 27.0624 129.312 26.6874L144.512 11.4874C145.087 10.9124 145.9 10.6499 146.688 10.7874L147.95 10.9999C149.275 11.2249 150.163 11.8249 150.45 12.6999C150.725 13.5749 150.35 14.5874 149.4 15.5374L146.375 18.5749Z" fill="#DB3A06"/>
</svg>
