<svg width="42" height="42" viewBox="0 0 42 42" fill="none" xmlns="http://www.w3.org/2000/svg">
<path opacity="0.4" d="M10.0444 28.0005C10.2369 27.143 9.88689 25.918 9.27439 25.3055L5.02189 21.053C3.69189 19.723 3.16689 18.3055 3.55189 17.0805C3.95439 15.8555 5.19689 15.0155 7.05189 14.7005L12.5119 13.7905C13.2994 13.6505 14.2619 12.9505 14.6294 12.233L17.6394 6.19549C18.5144 4.46299 19.7044 3.50049 20.9994 3.50049C22.2944 3.50049 23.4844 4.46299 24.3594 6.19549L27.3694 12.233C27.5969 12.688 28.0694 13.1255 28.5769 13.423L9.72939 32.2705C9.48439 32.5155 9.06439 32.288 9.13439 31.938L10.0444 28.0005Z" fill="#DB3A06"/>
<path d="M32.7254 25.3053C32.0954 25.9353 31.7454 27.1428 31.9554 28.0003L33.1629 33.2678C33.6704 35.4553 33.3554 37.1003 32.2704 37.8878C31.8329 38.2028 31.3079 38.3603 30.6954 38.3603C29.8029 38.3603 28.7529 38.0278 27.5979 37.3453L22.4704 34.3003C21.6654 33.8278 20.3354 33.8278 19.5304 34.3003L14.4029 37.3453C12.4604 38.4828 10.7979 38.6753 9.73039 37.8878C9.32789 37.5903 9.03039 37.1878 8.83789 36.6628L30.1179 15.3828C30.9229 14.5778 32.0604 14.2103 33.1629 14.4028L34.9304 14.7003C36.7854 15.0153 38.0279 15.8553 38.4304 17.0803C38.8154 18.3053 38.2904 19.7228 36.9604 21.0528L32.7254 25.3053Z" fill="#DB3A06"/>
</svg>
