<svg width="149" height="30" viewBox="0 0 149 30" fill="none" xmlns="http://www.w3.org/2000/svg">
<g clip-path="url(#clip0_166_1032)">
<path d="M23.3291 28.8479V29.2857H28.9444V23.6866V23.6636H23.3291V28.3871C23.3291 28.5253 23.3291 28.6636 23.3291 28.8018C23.3291 28.8249 23.3291 28.8479 23.3291 28.8479Z" fill="#999999"/>
<path d="M0.5 23.6632L2.203 25.3222L6.20736 29.4697V23.6402H23.3294V17.8798H6.23037C6.06927 17.8337 0.5 12.1655 0.5 12.1655V23.6632Z" fill="#999999"/>
<path d="M6.1153 1.24385V0.829102H0.5V6.42818V6.45122H6.1153V1.70468C6.1153 1.56643 6.1153 1.42818 6.1153 1.28993C6.1153 1.28993 6.1153 1.26689 6.1153 1.24385Z" fill="#999999"/>
<path d="M28.9447 6.45147L27.2417 4.79249L23.2373 0.64502V6.45147H6.11523V12.2349H23.2143C23.3754 12.304 28.9447 17.9492 28.9447 17.9492V6.45147Z" fill="#999999"/>
<path d="M74.6953 8.77882H79.3671V11.129L79.4821 11.2212C80.886 9.12444 82.8881 8.24886 85.3276 8.34103C87.8591 8.45624 89.6081 9.74656 90.5977 12.1198C90.6897 11.9816 90.7818 11.8894 90.8278 11.7972C92.3697 9.14748 94.7861 8.13366 97.7319 8.38711C100.839 8.66361 102.818 10.6452 103.462 13.9631C103.6 14.7235 103.692 15.4839 103.692 16.2673C103.715 20.5069 103.692 24.7696 103.692 29.0092C103.692 29.1475 103.669 29.2857 103.669 29.4701H98.8825V28.7788C98.8825 24.7466 98.8825 20.7143 98.8825 16.7051C98.8825 16.1751 98.8365 15.6452 98.7214 15.1152C98.4453 13.894 97.7549 12.9954 96.4661 12.742C95.0623 12.4655 93.7735 12.6959 92.807 13.8249C91.7944 15.0231 91.6103 16.4747 91.5872 17.9724C91.5642 21.5668 91.5872 25.1843 91.5872 28.7788V29.447H86.8234C86.8234 29.2166 86.8004 28.9862 86.8004 28.7558C86.8004 25 86.8004 21.2443 86.8004 17.5115C86.8004 16.7972 86.7544 16.083 86.6393 15.3687C86.4322 14.0092 85.7418 13.0415 84.338 12.742C82.8421 12.4194 81.5303 12.788 80.5407 14.0553C79.7583 15.0922 79.4821 16.3134 79.4591 17.5807C79.4361 21.3134 79.4361 25.0461 79.4131 28.7788C79.4131 28.9862 79.4131 29.2166 79.4131 29.4701H74.6953V8.77882Z" fill="#999999"/>
<path d="M62.4066 10.1381H57.3206C57.2515 9.83854 57.1825 9.49292 57.1135 9.17034C56.4691 6.12887 54.697 4.63117 51.5902 4.46988C50.3935 4.40076 49.1968 4.44684 48.0691 4.88463C46.5963 5.46066 45.6297 6.47449 45.3766 8.08739C45.1694 9.4238 45.6757 10.3915 46.8034 11.0367C48.0922 11.7971 49.542 12.0736 50.9688 12.3961C53.017 12.857 55.0422 13.3178 57.0674 13.8478C57.7348 14.0551 58.3792 14.3547 58.9776 14.7003C61.5321 16.1058 62.6597 18.2948 62.5447 21.1749C62.3375 25.9215 59.2997 29.1703 54.559 29.8155C52.1886 30.1611 49.7721 30.0459 47.4478 29.4238C43.2133 28.2717 40.7969 25.3915 39.7843 21.221C39.6922 20.8754 39.6462 20.5298 39.5771 20.2072C39.5771 20.115 39.5771 20.0229 39.5771 19.9538H44.7092C44.8242 20.3915 44.9393 20.8293 45.0544 21.2441C45.7448 23.5943 47.2407 25.0459 49.7031 25.4607C51.314 25.7372 52.925 25.7602 54.5129 25.2994C56.4921 24.7233 57.5967 23.3178 57.6888 21.3362C57.7578 20.3915 57.3206 19.4929 56.5381 18.986C55.4335 18.2026 54.1447 17.88 52.856 17.5805C50.8077 17.0966 48.7365 16.6819 46.6883 16.1058C45.6987 15.8063 44.7552 15.3915 43.8807 14.8385C41.4412 13.433 40.3826 11.2671 40.5207 8.4791C40.7278 4.72334 43.0982 1.75099 46.8724 0.621954C49.9332 -0.322747 53.2472 -0.184498 56.2159 1.01366C59.5759 2.32702 61.371 4.95375 62.1534 8.36389C62.2455 8.80168 62.3145 9.26251 62.3836 9.72334C62.4066 9.86159 62.4066 9.99983 62.4066 10.1381Z" fill="#999999"/>
<path d="M125.809 12.9719C124.037 10.1839 121.414 8.73229 118.169 8.47883C113.957 8.15625 110.482 9.53874 108.227 13.2715C106.915 15.4374 106.57 17.8337 106.754 20.3222C107.191 25.9673 111.311 29.8152 117.34 29.8383C119.688 29.8383 121.966 29.0088 123.784 27.5111C128.203 23.9397 128.456 17.1194 125.809 12.9719ZM122.679 20.1609C122.564 21.5894 122.012 22.9489 121.114 24.0549C119.434 26.0364 115.959 26.2899 113.888 24.8383C113.129 24.2853 112.553 23.548 112.208 22.6724C111.242 20.4374 111.242 17.8798 112.231 15.6447C113.037 13.7784 114.694 12.6954 116.696 12.5802C117.869 12.488 119.02 12.7415 120.033 13.3406C122.242 14.7 122.955 17.6263 122.679 20.1609Z" fill="#999999"/>
<path d="M130.55 8.77838H135.291V11.4512C135.452 11.2669 135.521 11.1977 135.59 11.1056C137.132 8.93967 139.295 8.20234 141.849 8.36363C146.038 8.64013 147.948 11.5203 148.385 15.0917C148.454 15.806 148.5 16.5203 148.5 17.2346C148.5 21.0825 148.5 24.9074 148.5 28.7553V29.4466H143.691V28.7553C143.691 24.7 143.691 20.6678 143.668 16.6125C143.668 16.1977 143.598 15.806 143.506 15.4143C143.184 13.9857 142.379 12.9719 140.883 12.7185C139.157 12.3959 137.661 12.8567 136.602 14.3314C135.82 15.4604 135.383 16.7968 135.383 18.1563C135.314 21.1747 135.314 24.1701 135.291 27.1885C135.291 27.9258 135.291 28.6401 135.291 29.4235H130.55V8.77838Z" fill="#999999"/>
<path d="M70.7374 29.4236H65.9736V8.75537H70.7374V29.4236Z" fill="#999999"/>
<path d="M65.835 5.9674V1.05957H70.8519V5.9674H65.835Z" fill="#999999"/>
<path d="M122.242 16.2442C121.85 15.023 121.045 13.9862 119.986 13.2949C121.068 13.9631 121.873 15.023 122.242 16.2442Z" fill="#999999"/>
<path d="M122.679 20.115C122.702 19.7925 122.725 19.4929 122.725 19.1703C122.725 19.0551 122.725 18.9399 122.725 18.8247C122.748 18.9399 122.771 19.0551 122.771 19.1703C122.748 19.4929 122.725 19.7925 122.679 20.115Z" fill="#999999"/>
</g>
<defs>
<clipPath id="clip0_166_1032">
<rect width="148" height="30" fill="white" transform="translate(0.5)"/>
</clipPath>
</defs>
</svg>
