<svg width="119" height="24" viewBox="0 0 119 24" fill="none" xmlns="http://www.w3.org/2000/svg">
<path opacity="0.4" d="M5.73986 15.9995C5.84986 15.5095 5.64986 14.8095 5.29986 14.4595L2.86986 12.0295C2.10986 11.2695 1.80986 10.4595 2.02986 9.75951C2.25986 9.05951 2.96986 8.57951 4.02986 8.39951L7.14986 7.87951C7.59986 7.79951 8.14986 7.39951 8.35986 6.98951L10.0799 3.53951C10.5799 2.54951 11.2599 1.99951 11.9999 1.99951C12.7399 1.99951 13.4199 2.54951 13.9199 3.53951L15.6399 6.98951C15.7699 7.24951 16.0399 7.49951 16.3299 7.66951L5.55986 18.4395C5.41986 18.5795 5.17986 18.4495 5.21986 18.2495L5.73986 15.9995Z" fill="#DB3A06"/>
<path d="M18.6998 14.4599C18.3398 14.8199 18.1398 15.5099 18.2598 15.9999L18.9498 19.0099C19.2398 20.2599 19.0598 21.1999 18.4398 21.6499C18.1898 21.8299 17.8898 21.9199 17.5398 21.9199C17.0298 21.9199 16.4298 21.7299 15.7698 21.3399L12.8398 19.5999C12.3798 19.3299 11.6198 19.3299 11.1598 19.5999L8.2298 21.3399C7.1198 21.9899 6.1698 22.0999 5.5598 21.6499C5.3298 21.4799 5.1598 21.2499 5.0498 20.9499L17.2098 8.7899C17.6698 8.3299 18.3198 8.1199 18.9498 8.2299L19.9598 8.3999C21.0198 8.5799 21.7298 9.0599 21.9598 9.7599C22.1798 10.4599 21.8798 11.2699 21.1198 12.0299L18.6998 14.4599Z" fill="#DB3A06"/>
<path opacity="0.4" d="M37.4015 15.9995C37.5115 15.5095 37.3115 14.8095 36.9615 14.4595L34.5315 12.0295C33.7715 11.2695 33.4715 10.4595 33.6915 9.75951C33.9215 9.05951 34.6315 8.57951 35.6915 8.39951L38.8115 7.87951C39.2615 7.79951 39.8115 7.39951 40.0215 6.98951L41.7415 3.53951C42.2415 2.54951 42.9215 1.99951 43.6615 1.99951C44.4015 1.99951 45.0815 2.54951 45.5815 3.53951L47.3015 6.98951C47.4315 7.24951 47.7015 7.49951 47.9915 7.66951L37.2215 18.4395C37.0815 18.5795 36.8415 18.4495 36.8815 18.2495L37.4015 15.9995Z" fill="#DB3A06"/>
<path d="M50.3614 14.4599C50.0014 14.8199 49.8014 15.5099 49.9214 15.9999L50.6114 19.0099C50.9014 20.2599 50.7214 21.1999 50.1014 21.6499C49.8514 21.8299 49.5514 21.9199 49.2014 21.9199C48.6914 21.9199 48.0914 21.7299 47.4314 21.3399L44.5014 19.5999C44.0414 19.3299 43.2814 19.3299 42.8214 19.5999L39.8914 21.3399C38.7814 21.9899 37.8314 22.0999 37.2214 21.6499C36.9914 21.4799 36.8214 21.2499 36.7114 20.9499L48.8714 8.7899C49.3314 8.3299 49.9814 8.1199 50.6114 8.2299L51.6214 8.3999C52.6814 8.5799 53.3914 9.0599 53.6214 9.7599C53.8414 10.4599 53.5414 11.2699 52.7814 12.0299L50.3614 14.4599Z" fill="#DB3A06"/>
<path opacity="0.4" d="M69.0631 15.9995C69.1731 15.5095 68.9731 14.8095 68.6231 14.4595L66.1931 12.0295C65.4331 11.2695 65.1331 10.4595 65.3531 9.75951C65.5831 9.05951 66.2931 8.57951 67.3531 8.39951L70.4731 7.87951C70.9231 7.79951 71.4731 7.39951 71.6831 6.98951L73.4031 3.53951C73.9031 2.54951 74.5831 1.99951 75.3231 1.99951C76.0631 1.99951 76.7431 2.54951 77.2431 3.53951L78.9631 6.98951C79.0931 7.24951 79.3631 7.49951 79.6531 7.66951L68.8831 18.4395C68.7431 18.5795 68.5031 18.4495 68.5431 18.2495L69.0631 15.9995Z" fill="#DB3A06"/>
<path d="M82.023 14.4599C81.663 14.8199 81.463 15.5099 81.583 15.9999L82.273 19.0099C82.563 20.2599 82.383 21.1999 81.763 21.6499C81.513 21.8299 81.213 21.9199 80.863 21.9199C80.353 21.9199 79.753 21.7299 79.093 21.3399L76.163 19.5999C75.703 19.3299 74.943 19.3299 74.483 19.5999L71.553 21.3399C70.443 21.9899 69.493 22.0999 68.883 21.6499C68.653 21.4799 68.483 21.2499 68.373 20.9499L80.533 8.7899C80.993 8.3299 81.643 8.1199 82.273 8.2299L83.283 8.3999C84.343 8.5799 85.053 9.0599 85.283 9.7599C85.503 10.4599 85.203 11.2699 84.443 12.0299L82.023 14.4599Z" fill="#DB3A06"/>
<path opacity="0.4" d="M100.725 15.9995C100.835 15.5095 100.635 14.8095 100.285 14.4595L97.8547 12.0295C97.0947 11.2695 96.7947 10.4595 97.0147 9.75951C97.2447 9.05951 97.9547 8.57951 99.0147 8.39951L102.135 7.87951C102.585 7.79951 103.135 7.39951 103.345 6.98951L105.065 3.53951C105.565 2.54951 106.245 1.99951 106.985 1.99951C107.725 1.99951 108.405 2.54951 108.905 3.53951L110.625 6.98951C110.755 7.24951 111.025 7.49951 111.315 7.66951L100.545 18.4395C100.405 18.5795 100.165 18.4495 100.205 18.2495L100.725 15.9995Z" fill="#DB3A06"/>
<path d="M113.685 14.4599C113.325 14.8199 113.125 15.5099 113.245 15.9999L113.935 19.0099C114.225 20.2599 114.045 21.1999 113.425 21.6499C113.175 21.8299 112.875 21.9199 112.525 21.9199C112.015 21.9199 111.415 21.7299 110.755 21.3399L107.825 19.5999C107.365 19.3299 106.605 19.3299 106.145 19.5999L103.215 21.3399C102.105 21.9899 101.155 22.0999 100.545 21.6499C100.315 21.4799 100.145 21.2499 100.035 20.9499L112.195 8.7899C112.655 8.3299 113.305 8.1199 113.935 8.2299L114.945 8.3999C116.005 8.5799 116.715 9.0599 116.945 9.7599C117.165 10.4599 116.865 11.2699 116.105 12.0299L113.685 14.4599Z" fill="#DB3A06"/>
</svg>
