<svg width="17" height="17" viewBox="0 0 17 17" fill="none" xmlns="http://www.w3.org/2000/svg">
<path opacity="0.4" d="M3.8737 11.1344C3.94793 10.8037 3.81296 10.3313 3.57677 10.0951L1.93688 8.45526C1.424 7.94237 1.22154 7.39574 1.37001 6.92335C1.52523 6.45096 2.00437 6.12703 2.71971 6.00555L4.82524 5.65463C5.12892 5.60065 5.50008 5.33071 5.6418 5.05402L6.80254 2.72579C7.13997 2.05769 7.59886 1.68652 8.09825 1.68652C8.59764 1.68652 9.05654 2.05769 9.39396 2.72579L10.5547 5.05402C10.6424 5.22948 10.8246 5.39819 11.0203 5.51292L3.75223 12.781C3.65775 12.8755 3.49578 12.7878 3.52278 12.6528L3.8737 11.1344Z" fill="#FF881B"/>
<path d="M12.6196 10.0948C12.3767 10.3377 12.2417 10.8034 12.3227 11.1341L12.7884 13.1653C12.9841 14.0089 12.8626 14.6433 12.4442 14.9469C12.2755 15.0684 12.073 15.1292 11.8368 15.1292C11.4926 15.1292 11.0877 15.0009 10.6423 14.7377L8.66503 13.5635C8.3546 13.3813 7.84171 13.3813 7.53128 13.5635L5.55398 14.7377C4.8049 15.1764 4.16379 15.2506 3.75213 14.9469C3.59692 14.8322 3.48219 14.677 3.40796 14.4746L11.6141 6.26839C11.9245 5.95796 12.3632 5.81625 12.7884 5.89048L13.47 6.0052C14.1853 6.12668 14.6644 6.4506 14.8196 6.923C14.9681 7.39539 14.7657 7.94202 14.2528 8.4549L12.6196 10.0948Z" fill="#FF881B"/>
</svg>
