<svg width="118" height="30" viewBox="0 0 118 30" fill="none" xmlns="http://www.w3.org/2000/svg">
<g clip-path="url(#clip0_166_1013)">
<path d="M11.9777 2.58018H7.71109V10.5602H4.76656V2.58018H0.5V0.180176H11.9777V2.58018Z" fill="#999999"/>
<path d="M13.4199 10.5602V0.180176H23.3953V2.40018H16.3645V4.20018H22.9746V6.30018H16.3645V8.34018H23.7558V10.5602H13.4199Z" fill="#999999"/>
<path d="M25.0176 5.58C25.0176 4.26 25.2579 3.24 25.7988 2.4C26.2795 1.56 27.0607 0.96 28.0823 0.6C29.1039 0.18 30.3057 0 31.7479 0C32.2287 0 32.6493 0 33.07 0.06C33.4305 0.06 33.7911 0.12 34.1516 0.18C34.5122 0.24 34.8126 0.3 35.1131 0.36C35.4136 0.42 35.7741 0.48 36.1347 0.6L35.5338 2.7C35.1131 2.64 34.6925 2.52 34.2718 2.46C33.8512 2.4 33.4906 2.34 33.07 2.34C32.7094 2.34 32.2888 2.28 31.9282 2.28C31.2672 2.28 30.6663 2.34 30.1855 2.46C29.7048 2.58 29.2841 2.76 28.9837 3.06C28.6832 3.3 28.4428 3.66 28.3227 4.08C28.1424 4.5 28.0823 4.98 28.0823 5.58C28.0823 6.12 28.1424 6.54 28.3227 6.9C28.4428 7.26 28.6832 7.56 28.9837 7.8C29.2841 8.04 29.7048 8.22 30.1254 8.34C30.6062 8.46 31.147 8.52 31.808 8.52C32.469 8.52 33.1902 8.46 33.8512 8.4C34.5723 8.34 35.2333 8.22 35.8943 8.04L36.4351 10.08C36.0746 10.2 35.7741 10.26 35.4136 10.32C35.053 10.38 34.6925 10.44 34.2718 10.5C33.8512 10.56 33.4305 10.62 32.9498 10.62C32.469 10.68 31.9282 10.68 31.3273 10.68C30.3057 10.68 29.4043 10.56 28.563 10.38C27.7818 10.2 27.1208 9.9 26.58 9.48C26.0392 9.06 25.6185 8.52 25.3781 7.92C25.1378 7.32 25.0176 6.48 25.0176 5.58Z" fill="#999999"/>
<path d="M38.0576 10.5602V0.180176H41.0622V4.62018H46.771V0.180176H49.7756V10.5602H46.771V7.02018H41.0622V10.5602H38.0576Z" fill="#999999"/>
<path fill-rule="evenodd" clip-rule="evenodd" d="M25.5586 19.6198H33.5508C35.3536 19.6198 36.8559 21.0598 36.8559 22.7998V29.9998H24.8975C23.8159 29.9998 22.9145 29.1598 22.9145 28.0798V25.5598C22.9145 24.5998 23.7558 23.7598 24.7773 23.7598H31.3875L30.6664 25.1998H25.7989C25.5585 25.1998 25.3783 25.3798 25.3783 25.5598V27.5998C25.3783 27.8398 25.6186 27.9598 25.7989 27.9598H34.2119V23.2198C34.2119 22.3198 33.3706 21.5998 32.4692 21.5998H24.5971L25.5586 19.6198ZM91.0593 15.7798V29.9998H79.4615C78.3798 29.9998 77.4784 29.1598 77.4784 28.0798V22.7398C77.4784 20.9998 78.9807 19.5598 80.7835 19.5598H87.3937L86.4322 21.5998H81.8051C80.9037 21.5998 80.0624 22.3198 80.0624 23.2198V27.5998C80.0624 27.8398 80.3028 27.9598 80.4831 27.9598H88.5354V15.7798H91.0593ZM50.2565 29.9998H52.8405V22.7398C52.8405 20.9998 51.3382 19.5598 49.5354 19.5598H44.067L43.1055 21.5998H48.5139C49.4153 21.5998 50.2565 22.3198 50.2565 23.2198V29.9998ZM39.5601 15.7798V29.9998H42.1441V15.7798H39.5601ZM18.1071 29.9998H20.6911V22.7398C20.6911 20.9998 19.1888 19.5598 17.386 19.5598H0.5V29.9998H3.08398V22.0198C3.08398 21.7798 3.32435 21.5998 3.50462 21.5998H8.79276C9.03313 21.5998 9.21341 21.7798 9.21341 21.9598V29.9998H11.7974V22.0198C11.7974 21.7798 12.0378 21.6598 12.218 21.6598H16.2442C17.1456 21.6598 17.9869 22.3798 17.9869 23.2798V29.9998H18.1071ZM104.46 19.6198H98.03C96.2273 19.6198 94.725 21.0598 94.725 22.7998V29.9998H97.3089V23.2198C97.3089 22.3198 98.1502 21.5998 99.0516 21.5998H103.498L104.46 19.6198ZM71.5293 19.6198C73.332 19.6198 74.8344 21.0598 74.8344 22.7998V29.9998H72.2504V23.2198C72.2504 22.3198 71.4091 21.5998 70.5077 21.5998H64.3182V29.9998H61.7943V19.6198C65.0393 19.6198 68.2843 19.6198 71.5293 19.6198ZM56.0254 20.2798L58.6094 18.8398V29.9998H56.0254V20.2798ZM58.6094 17.3398V15.7798H56.0254V18.7798L58.6094 17.3398ZM106.263 19.6198H114.255C116.058 19.6198 117.56 21.0598 117.56 22.7998V29.9998H105.662C104.58 29.9998 103.679 29.1598 103.679 28.0798V25.5598C103.679 24.5998 104.52 23.7598 105.542 23.7598H112.152L111.431 25.1998H106.563C106.323 25.1998 106.143 25.3798 106.143 25.5598V27.5998C106.143 27.8398 106.383 27.9598 106.563 27.9598H114.976V23.2198C114.976 22.3198 114.135 21.5998 113.233 21.5998H105.301L106.263 19.6198Z" fill="#999999"/>
</g>
<defs>
<clipPath id="clip0_166_1013">
<rect width="117" height="30" fill="white" transform="translate(0.5)"/>
</clipPath>
</defs>
</svg>
