<svg width="16" height="16" viewBox="0 0 16 16" fill="none" xmlns="http://www.w3.org/2000/svg">
<path d="M2.46257 10.6503C2.31257 10.6628 1.13757 10.7128 0.962567 10.7253C0.637567 10.7503 0.662567 11.3003 0.987567 11.2878C1.16257 11.2753 2.48757 11.2128 2.48757 11.2128C2.83757 11.1753 2.80007 10.6253 2.46257 10.6503ZM3.62507 12.5253C3.57507 12.6753 3.20007 13.7753 3.13757 13.9503C3.03757 14.2628 3.56257 14.4378 3.66257 14.1253C3.72507 13.9503 4.15007 12.7003 4.15007 12.7003C4.25007 12.3878 3.72507 12.2128 3.62507 12.5253ZM13.9251 2.30029C13.8126 2.40029 12.9001 3.13779 12.7751 3.26279C12.5251 3.47529 12.8751 3.90029 13.1251 3.68779C13.2626 3.57529 14.2751 2.72529 14.2751 2.72529C14.5376 2.50029 14.1751 2.07529 13.9251 2.30029ZM10.1251 1.52529C10.1751 1.67529 10.4876 2.80029 10.5376 2.96279C10.6251 3.27529 11.1626 3.12529 11.0751 2.81279C11.0251 2.63779 10.6626 1.37529 10.6626 1.37529C10.5626 1.05029 10.0251 1.20029 10.1251 1.52529ZM2.88757 11.6378C2.76257 11.7253 1.13757 12.8628 0.987567 12.9753C0.725067 13.1628 1.05007 13.6253 1.31257 13.4253C1.46257 13.3128 3.21257 12.0878 3.21257 12.0878C3.48757 11.8753 3.15007 11.4253 2.88757 11.6378ZM12.4501 0.725286C12.4001 0.875286 11.7251 2.75029 11.6751 2.92529C11.5751 3.23779 12.1001 3.42529 12.2001 3.11279C12.2626 2.93779 12.9751 0.912786 12.9751 0.912786C13.0751 0.587786 12.5501 0.412786 12.4501 0.725286Z" fill="#BDCCD4"/>
<path d="M12.3748 5.58772C12.6123 5.02522 13.0623 4.62522 13.5873 4.75022C13.9498 4.82522 14.0248 5.16272 13.9998 5.36272C13.7123 7.35022 14.1373 8.87522 14.0248 10.3502C13.8873 12.2127 12.7123 14.1377 10.2498 14.3127C8.6873 14.6877 6.9498 14.4252 5.5498 13.0627C4.77481 12.3127 4.0998 11.7377 3.1623 10.2127C2.7748 9.57522 2.1748 8.56272 2.1748 7.90022C2.1748 7.33772 2.7373 7.16272 3.0248 7.42522C2.6498 6.82522 2.4748 6.38772 2.4623 5.87522C2.4498 5.45022 2.9748 5.15022 3.3123 5.47522C3.0248 5.01272 2.6248 4.20022 3.2248 3.78772C3.4123 3.66272 3.8873 3.50022 4.4623 4.22522C4.3123 3.93772 4.1498 3.45022 4.5498 3.12522C4.76231 2.95022 5.1748 2.90022 5.5248 3.30022C5.4998 3.15022 5.7123 2.77522 6.0623 2.76272C6.4873 2.73772 6.8248 3.12522 7.0748 3.41272C6.8248 2.41272 7.8623 2.12522 8.4373 2.80022C8.7373 3.13772 9.4373 3.98772 10.4873 5.73772C10.4623 4.68772 10.9748 3.76272 11.7248 3.90022C11.9873 3.95022 12.2498 4.12522 12.2748 4.61272C12.3248 5.05022 12.3748 5.58772 12.3748 5.58772Z" fill="#FFCA28"/>
<mask id="mask0_75_602" style="mask-type:luminance" maskUnits="userSpaceOnUse" x="2" y="2" width="13" height="13">
<path d="M12.3748 5.58772C12.6123 5.02522 13.0623 4.62522 13.5873 4.75022C13.9498 4.82522 14.0248 5.16272 13.9998 5.36272C13.7123 7.35022 14.1373 8.87522 14.0248 10.3502C13.8873 12.2127 12.7123 14.1377 10.2498 14.3127C8.6873 14.6877 6.9498 14.4252 5.5498 13.0627C4.77481 12.3127 4.0998 11.7377 3.1623 10.2127C2.7748 9.57522 2.1748 8.56272 2.1748 7.90022C2.1748 7.33772 2.7373 7.16272 3.0248 7.42522C2.6498 6.82522 2.4748 6.38772 2.4623 5.87522C2.4498 5.45022 2.9748 5.15022 3.3123 5.47522C3.0248 5.01272 2.6248 4.20022 3.2248 3.78772C3.4123 3.66272 3.8873 3.50022 4.4623 4.22522C4.3123 3.93772 4.1498 3.45022 4.5498 3.12522C4.76231 2.95022 5.1748 2.90022 5.5248 3.30022C5.4998 3.15022 5.7123 2.77522 6.0623 2.76272C6.4873 2.73772 6.8248 3.12522 7.0748 3.41272C6.8248 2.41272 7.8623 2.12522 8.4373 2.80022C8.7373 3.13772 9.4373 3.98772 10.4873 5.73772C10.4623 4.68772 10.9748 3.76272 11.7248 3.90022C11.9873 3.95022 12.2498 4.12522 12.2748 4.61272C12.3248 5.05022 12.3748 5.58772 12.3748 5.58772Z" fill="white"/>
</mask>
<g mask="url(#mask0_75_602)">
<path d="M9.46221 14.2502C8.51221 14.2252 6.88721 14.2877 4.83721 12.0127C4.47471 11.6127 3.12471 9.9752 2.41221 8.1002C2.34971 7.9502 2.36221 7.6127 2.61221 7.5252C2.86221 7.4377 3.03721 7.6627 3.17471 7.8752C3.27471 8.0252 3.81221 8.91269 4.12471 9.2752C4.24971 9.41269 4.31221 9.3127 4.33721 9.2877C3.62471 8.0752 2.67471 6.5252 2.67471 5.9377C2.67471 5.6127 3.02471 5.4002 3.27471 5.7252C3.47471 5.97519 4.36221 7.0877 4.47471 7.2377C4.58721 7.3752 4.67471 7.2627 4.71221 7.2377C4.19971 6.5752 3.07471 4.8502 3.16221 4.3002C3.21221 3.9752 3.64971 3.7377 3.94971 4.0377C4.17471 4.2627 5.41221 5.6377 5.41221 5.6377C5.41221 5.6377 5.53721 5.7752 5.63721 5.6502C5.03721 4.9002 4.19971 3.7377 4.69971 3.3252C4.89971 3.1627 5.16221 3.0877 5.69971 3.6627C6.04971 4.0377 8.39971 6.16269 10.4747 7.53769C10.6747 7.66269 10.8122 7.4627 10.7997 7.2752C10.6247 5.4127 10.8122 4.0752 11.5997 4.0627C11.9622 4.0627 12.1122 4.3377 12.1372 4.7127C12.1622 5.0752 12.2747 6.0877 12.5372 7.1252C12.7997 8.1752 13.1872 9.6377 13.0747 10.7377C12.9622 11.8377 12.1747 13.1627 11.4372 13.6127C10.6872 14.0627 10.1747 14.1752 10.0872 14.2002C9.99971 14.2252 9.87471 14.5002 10.1872 14.4377C10.4997 14.3877 11.4622 14.3002 11.4622 14.3002L12.8497 13.5627L14.0372 12.0752L14.5497 9.9627L14.3872 3.9127L10.9997 3.3252L7.79971 1.8252L2.53721 3.2002L1.63721 8.2252L3.79971 11.9752L6.48721 14.4627C6.48721 14.4627 9.28721 14.6627 9.48721 14.6377C9.67471 14.6252 9.77471 14.2627 9.46221 14.2502Z" fill="#FAA700"/>
</g>
<mask id="mask1_75_602" style="mask-type:luminance" maskUnits="userSpaceOnUse" x="2" y="2" width="13" height="13">
<path d="M12.3748 5.58772C12.6123 5.02522 13.0623 4.62522 13.5873 4.75022C13.9498 4.82522 14.0248 5.16272 13.9998 5.36272C13.7123 7.35022 14.1373 8.87522 14.0248 10.3502C13.8873 12.2127 12.7123 14.1377 10.2498 14.3127C8.6873 14.6877 6.9498 14.4252 5.5498 13.0627C4.77481 12.3127 4.0998 11.7377 3.1623 10.2127C2.7748 9.57522 2.1748 8.56272 2.1748 7.90022C2.1748 7.33772 2.7373 7.16272 3.0248 7.42522C2.6498 6.82522 2.4748 6.38772 2.4623 5.87522C2.4498 5.45022 2.9748 5.15022 3.3123 5.47522C3.0248 5.01272 2.6248 4.20022 3.2248 3.78772C3.4123 3.66272 3.8873 3.50022 4.4623 4.22522C4.3123 3.93772 4.1498 3.45022 4.5498 3.12522C4.76231 2.95022 5.1748 2.90022 5.5248 3.30022C5.4998 3.15022 5.7123 2.77522 6.0623 2.76272C6.4873 2.73772 6.8248 3.12522 7.0748 3.41272C6.8248 2.41272 7.8623 2.12522 8.4373 2.80022C8.7373 3.13772 9.4373 3.98772 10.4873 5.73772C10.4623 4.68772 10.9748 3.76272 11.7248 3.90022C11.9873 3.95022 12.2498 4.12522 12.2748 4.61272C12.3248 5.05022 12.3748 5.58772 12.3748 5.58772Z" fill="white"/>
</mask>
<g mask="url(#mask1_75_602)">
<path d="M11.9997 3.7748C11.9122 3.8248 11.9122 3.9123 11.9997 4.0498C12.0622 4.1498 12.1122 4.2748 12.0997 4.5998C12.0497 7.0998 12.9497 8.1373 12.8997 10.4998C12.8497 13.0373 10.9247 14.5623 7.84975 14.1998C7.53725 14.1623 7.63725 14.4498 7.63725 14.4498C7.63725 14.4498 8.44975 14.6248 8.74975 14.5998C9.81225 14.5373 10.2622 14.2873 10.2622 14.2873C11.7997 13.9623 13.2872 12.4748 13.2872 10.4748C13.2872 8.8623 12.5747 6.9623 12.3872 5.5748C12.3247 5.1123 12.5247 4.6498 12.5622 4.4123C12.5997 4.0248 12.3122 3.5998 11.9997 3.7748ZM3.03725 7.4123C2.96225 7.2873 2.84975 7.3623 2.91225 7.4873C2.98725 7.6373 3.62475 9.0498 4.98725 10.5748C5.04975 10.6373 5.11225 10.7623 5.12475 10.8123C5.16225 10.9873 5.37475 10.9623 5.41225 10.8123C5.42475 10.7498 5.44975 10.6873 5.46225 10.6248C5.47475 10.5873 5.48725 10.4998 5.41225 10.4248C4.59975 9.6123 3.81225 8.6873 3.03725 7.4123ZM3.31225 5.4623C3.27475 5.4123 3.22475 5.3623 3.21225 5.3248C3.14975 5.3498 3.11225 5.3873 3.17475 5.5373C3.71225 6.7248 5.39975 8.4748 5.81225 8.8748C5.91225 8.9748 5.92475 9.0373 5.94975 9.1248C6.03725 9.4498 6.23725 9.4123 6.31225 9.2748C6.36225 9.1748 6.41225 9.08731 6.42475 9.0373C6.43725 8.9873 6.44975 8.9248 6.37475 8.8623C5.33725 7.9498 4.14975 6.5748 3.31225 5.4623ZM4.47475 4.1998C4.41225 4.0998 4.29975 3.9373 4.29975 3.9373C4.29975 3.9373 4.14975 3.9748 4.24975 4.1623C4.84975 5.2873 6.42475 7.0623 7.03725 7.5623C7.09975 7.6123 7.19975 7.7498 7.23725 7.8623C7.31225 8.0998 7.49975 8.08731 7.59975 7.96231C7.64975 7.89981 7.69975 7.8373 7.72475 7.7623C7.76225 7.6998 7.73725 7.61231 7.63725 7.52481C5.84975 5.98731 4.47475 4.1998 4.47475 4.1998ZM7.31225 2.4248C7.24975 2.6123 7.11225 2.9248 7.36225 3.4373C7.82475 4.3998 8.77475 5.28731 9.37475 6.77481C9.19975 6.64981 9.06225 6.5373 8.84975 6.3748C8.41225 5.3248 7.18725 3.9373 7.08725 3.3748C7.01225 2.9873 6.91225 2.5873 6.91225 2.5873L7.31225 2.4248Z" fill="#B55E19"/>
</g>
</svg>
