<svg width="16" height="16" viewBox="0 0 16 16" fill="none" xmlns="http://www.w3.org/2000/svg">
<path d="M6.1565 2.76561C6.1565 1.31561 7.2185 0.974107 7.8125 0.984607C9.019 0.984607 9.3535 1.98911 9.453 2.52361C9.577 3.18861 9.456 4.77811 9.4 5.50811L9.3985 5.52861C9.48299 5.50944 9.56937 5.49988 9.656 5.50011H11.585C12.365 5.50011 13 6.13511 13 6.91511C13 7.31811 12.8705 7.68261 12.6175 7.94011C13.1395 8.17061 13.5 8.65411 13.5 9.21211C13.5 9.72361 13.2685 10.1721 12.818 10.4211C13.2295 10.6766 13.5 11.1041 13.5 11.5871C13.5 12.1406 13.2285 12.6216 12.701 12.8536C12.8885 13.0466 13 13.3336 13 13.7506C13 14.4406 12.5155 15.0016 11.585 15.0016H9.656C9.63333 15.0016 9.611 15.0011 9.589 15.0001H8.0235C2.8045 15.0861 2.5 11.7031 2.5 10.3281C2.5 7.75011 3.649 6.98361 4.67 6.30261C5.153 5.98061 5.6075 5.67761 5.8985 5.21111C6.1425 4.81961 6.156 4.46111 6.156 2.76611" fill="#FFC83D"/>
<path d="M9.49988 5.5C8.98988 5.5155 7.49988 5.797 7.49988 6.9845C7.49988 7.6095 7.73438 7.961 8.01538 8.1565C7.73438 8.2815 7.48438 8.7455 7.48438 9.3205C7.48438 9.9605 8.01538 10.4295 8.01538 10.4295C8.01538 10.4295 7.48438 10.9455 7.48438 11.5625C7.48438 12.0285 7.68838 12.3725 8.01538 12.6065C7.83838 12.7065 7.48438 13.053 7.48438 13.6405C7.48438 14.341 8.13838 14.928 9.41938 14.9805C8.79538 14.865 8.49187 14.293 8.49187 13.7505C8.49187 13.5715 8.55888 13.2835 8.72538 13.0295H11.4999C11.5662 13.0295 11.6298 13.0032 11.6767 12.9563C11.7235 12.9094 11.7499 12.8458 11.7499 12.7795C11.7499 12.7132 11.7235 12.6496 11.6767 12.6027C11.6298 12.5558 11.5662 12.5295 11.4999 12.5295H8.79438C8.59188 12.2645 8.49187 11.9205 8.49187 11.587C8.49187 11.379 8.57038 11.043 8.76488 10.75H11.4999C11.5662 10.75 11.6298 10.7237 11.6767 10.6768C11.7235 10.6299 11.7499 10.5663 11.7499 10.5C11.7499 10.4337 11.7235 10.3701 11.6767 10.3232C11.6298 10.2763 11.5662 10.25 11.4999 10.25H8.87488C8.61838 9.975 8.49187 9.5875 8.49187 9.212C8.49187 9.0335 8.54987 8.7595 8.68987 8.5H11.4999C11.5662 8.5 11.6298 8.47366 11.6767 8.42678C11.7235 8.37989 11.7499 8.3163 11.7499 8.25C11.7499 8.1837 11.7235 8.12011 11.6767 8.07322C11.6298 8.02634 11.5662 8 11.4999 8H8.91337C8.63137 7.7015 8.49187 7.258 8.49187 6.915C8.49187 6.51 8.71338 5.615 9.49988 5.51V5.5Z" fill="#D67D00"/>
</svg>
