<svg width="16" height="16" viewBox="0 0 16 16" fill="none" xmlns="http://www.w3.org/2000/svg">
<path d="M7.9502 14.85C4.4627 14.85 0.700195 12.6625 0.700195 7.8625C0.700195 3.0625 4.4627 0.875 7.9502 0.875C9.8877 0.875 11.6752 1.5125 13.0002 2.675C14.4377 3.95 15.2002 5.75 15.2002 7.8625C15.2002 9.975 14.4377 11.7625 13.0002 13.0375C11.6752 14.2 9.8752 14.85 7.9502 14.85Z" fill="url(#paint0_radial_75_624)"/>
<path d="M13.9365 3.70898C14.6027 4.78398 14.9502 6.06398 14.9502 7.48773C14.9502 9.60023 14.1877 11.3877 12.7502 12.6627C11.4252 13.8252 9.62523 14.4752 7.70023 14.4752C5.44273 14.4752 3.07523 13.5565 1.67773 11.6077C3.02273 13.8152 5.55273 14.8502 7.95023 14.8502C9.87523 14.8502 11.6752 14.2002 13.0002 13.0377C14.4377 11.7627 15.2002 9.97523 15.2002 7.86273C15.2002 6.27023 14.7665 4.85523 13.9365 3.70898Z" fill="#EB8F00"/>
<path d="M8.00012 11.726C6.56137 11.726 5.53387 10.976 5.22512 10.5085C5.16812 10.4344 5.13223 10.3462 5.12123 10.2534C5.11023 10.1605 5.12453 10.0664 5.16262 9.981C5.22137 9.86975 5.33762 9.801 5.46387 9.80475C5.51012 9.80475 5.55637 9.81225 5.60012 9.826C6.37823 10.0612 7.18724 10.1784 8.00012 10.1735C8.81262 10.1785 9.62262 10.061 10.4001 9.826C10.4439 9.81225 10.4901 9.80475 10.5364 9.80475C10.6626 9.801 10.7789 9.86975 10.8376 9.981C10.8757 10.0664 10.89 10.1605 10.879 10.2534C10.868 10.3462 10.8321 10.4344 10.7751 10.5085C10.4664 10.9785 9.43887 11.726 8.00012 11.726ZM15.5001 5.67725C15.5001 5.67725 14.9676 5.6885 14.9676 6.11475C14.9676 7.16725 14.9801 9.426 12.2176 9.426C10.0101 9.426 8.95637 8.286 8.77887 7.02725C8.70637 6.5035 8.52887 5.9335 7.99512 5.9335C7.46137 5.9335 7.28887 6.49975 7.21637 7.02725C7.03887 8.286 5.98512 9.426 3.77762 9.426C1.02012 9.426 1.02762 7.16725 1.02762 6.11475C1.02762 5.6885 0.495117 5.67725 0.495117 5.67725V4.63475C1.35085 4.52251 2.21334 4.46988 3.07637 4.47725C4.63637 4.47725 5.25762 4.47725 6.49887 4.60225C7.23262 4.67475 7.99887 4.6835 7.99887 4.6835C7.99887 4.6835 8.76137 4.67475 9.49887 4.60225C10.7401 4.47725 11.3614 4.47725 12.9214 4.47725C13.7839 4.46975 14.6451 4.5235 15.5001 4.63475V5.67725Z" fill="#422B0D"/>
<path d="M2.63993 6.49985C2.62743 6.69985 2.54743 6.88485 2.35118 6.92235C2.32868 6.9261 2.30743 6.9286 2.28493 6.9286C2.19937 6.92821 2.11672 6.89746 2.05171 6.84184C1.9867 6.78621 1.94355 6.70932 1.92993 6.62485C1.85368 6.27985 1.93743 5.9186 2.15743 5.64235C2.25756 5.52138 2.38325 5.42412 2.52547 5.35754C2.66769 5.29097 2.8229 5.25675 2.97993 5.25735C3.16868 5.23985 3.33618 5.3786 3.35368 5.56735C3.35368 5.5711 3.35493 5.57485 3.35493 5.57985C3.35493 5.81485 3.16743 5.91485 2.97993 5.97985C2.77493 6.07235 2.64243 6.27485 2.63993 6.49985ZM10.5874 6.49985C10.5762 6.69985 10.4949 6.88485 10.2999 6.92235C10.2524 6.93132 10.2036 6.9307 10.1564 6.92053C10.1091 6.91036 10.0644 6.89084 10.0248 6.86312C9.98516 6.8354 9.95151 6.80004 9.92578 6.75912C9.90004 6.7182 9.88275 6.67255 9.87493 6.62485C9.79868 6.27985 9.88243 5.9186 10.1024 5.64235C10.2028 5.52135 10.3287 5.42408 10.4711 5.35752C10.6136 5.29095 10.769 5.25674 10.9262 5.25735C11.1149 5.23985 11.2824 5.3786 11.2999 5.56735C11.2999 5.5711 11.3012 5.57485 11.3012 5.57985C11.3012 5.81485 11.1137 5.91485 10.9262 5.97985C10.8261 6.02529 10.741 6.09836 10.681 6.19048C10.621 6.28259 10.5885 6.38992 10.5874 6.49985Z" fill="#896024"/>
<defs>
<radialGradient id="paint0_radial_75_624" cx="0" cy="0" r="1" gradientUnits="userSpaceOnUse" gradientTransform="translate(7.9502 7.8625) scale(7.12)">
<stop offset="0.5" stop-color="#FDE030"/>
<stop offset="0.92" stop-color="#F7C02B"/>
<stop offset="1" stop-color="#F4A223"/>
</radialGradient>
</defs>
</svg>
