<svg width="176" height="176" viewBox="0 0 176 176" fill="none" xmlns="http://www.w3.org/2000/svg">
<rect width="176" height="176" rx="88" fill="#FBFBFB" fill-opacity="0.69"/>
<path opacity="0.4" d="M87.8499 137.584C115.234 137.584 137.433 115.384 137.433 88.0003C137.433 60.6162 115.234 38.417 87.8499 38.417C60.4658 38.417 38.2666 60.6162 38.2666 88.0003C38.2666 115.384 60.4658 137.584 87.8499 137.584Z" fill="#DB3A06"/>
<path d="M102.728 79.2241L88.3492 70.9437C84.7792 68.8612 80.4654 68.8612 76.8954 70.9437C73.3254 73.0262 71.1934 76.6954 71.1934 80.8604V97.4708C71.1934 101.586 73.3254 105.305 76.8954 107.387C78.6804 108.429 80.6638 108.925 82.5975 108.925C84.5809 108.925 86.5146 108.429 88.2996 107.387L102.679 99.107C106.249 97.0245 108.381 93.3554 108.381 89.1904C108.48 85.0254 106.348 81.3066 102.728 79.2241Z" fill="#DB3A06"/>
</svg>
