<svg width="24" height="24" viewBox="0 0 24 24" fill="none" xmlns="http://www.w3.org/2000/svg">
<g clip-path="url(#clip0_51_791)">
<path d="M23.1429 12.0003C23.1429 14.9555 21.9689 17.7898 19.8792 19.8795C17.7895 21.9692 14.9553 23.1431 12 23.1431C9.04477 23.1431 6.21054 21.9692 4.12085 19.8795C2.03115 17.7898 0.857178 14.9555 0.857178 12.0003M23.1429 12.0003C23.1429 9.04501 21.9689 6.21078 19.8792 4.12109C17.7895 2.0314 14.9553 0.857422 12 0.857422C9.04477 0.857422 6.21054 2.0314 4.12085 4.12109C2.03115 6.21078 0.857178 9.04501 0.857178 12.0003M23.1429 12.0003H0.857178" stroke="#FBFBFB" stroke-width="1.5" stroke-linecap="round" stroke-linejoin="round"/>
<path d="M16.2858 12.0003C16.0753 16.0751 14.5744 19.9774 12.0001 23.1431C9.42576 19.9774 7.92487 16.0751 7.71436 12.0003C7.92487 7.92544 9.42576 4.02311 12.0001 0.857422C14.5744 4.02311 16.0753 7.92544 16.2858 12.0003Z" stroke="#FBFBFB" stroke-width="1.5" stroke-linecap="round" stroke-linejoin="round"/>
</g>
<defs>
<clipPath id="clip0_51_791">
<rect width="24" height="24" fill="white"/>
</clipPath>
</defs>
</svg>
